<?xml version="1.0" encoding="utf-8"?>
<!-- Generator: Adobe Illustrator 27.0.0, SVG Export Plug-In . SVG Version: 6.00 Build 0)  -->
<svg version="1.1" id="Capa_1" xmlns="http://www.w3.org/2000/svg" xmlns:xlink="http://www.w3.org/1999/xlink" x="0px" y="0px"
	 viewBox="0 0 1200 1200" enable-background="new 0 0 1200 1200" xml:space="preserve">
<g id="Desitgn_02">
	<path fill="#FFFFFF" d="M745.569,507.693c-1.427-1.065-3.031-1.914-4.629-2.71c-0.368-0.183-1.186,0.124-1.553,0.467
		c-0.381,0.356-0.757,1.117-0.627,1.545c0.344,1.125,0.806,2.283,1.501,3.221c3.769,5.091,7.635,10.109,11.444,15.171
		c3.08,4.094,6.245,8.131,9.16,12.34c4.422,6.385,6.42,13.805,6.832,21.318c0.475,8.658-3.451,15.71-10.738,20.753
		c-12.04,8.332-25.144,12.461-39.972,11.916c-16.227-0.596-31.588-4.361-46.528-10.37c-0.548,2.199-0.27,4.215,1.315,5.941
		c6.943,2.036,13.898,4.077,20.854,6.116c14.543,4.263,29.279,4.275,43.953,1.226c11.554-2.401,21.099-8.99,29.539-16.91
		c4.557-4.276,6.237-10.297,6.107-16.586c-0.225-10.852-3.33-20.808-9.769-29.619c-2.31-3.161-4.783-6.202-7.215-9.341
		c1.932-1.482,3.02,0.204,4.095,0.864c13.387,8.218,26.904,16.161,41.287,22.587c5.822,2.601,11.702,4.864,17.911,6.219
		c2.736,0.597,4.603,1.86,5.917,3.998l-0.114-7.304c-7.517-1.386-14.807-3.861-21.968-7.296
		C782.455,531.685,763.296,520.925,745.569,507.693z"/>
	<path fill="#FFFFFF" d="M368.571,722.133c1.096-1.243,2.192-2.486,3.288-3.729c-9.028-2.682-17.123-7.057-24.121-13.385
		c-5.739-5.188-10.255-11.131-12.426-18.422l-3.083,6.587C340.805,707.368,352.522,717.474,368.571,722.133z"/>
	<path fill="#FFFFFF" d="M477.24,339.703c9.199-3.791,18.226-7.981,27.235-14.12c-0.569,3.806-0.934,6.847-1.489,9.853
		c-2.03,10.986,1.395,20.765,6.385,30.29c4.641,8.858,12.54,13.591,21.244,17.413c2.185-0.931,1.691-2.982,1.969-4.711
		c-6.98-3.053-13.501-6.568-17.85-13.315c-5.801-8.998-8.098-18.751-7.33-29.301c0.222-3.051,1.562-5.781,3.04-8.46
		c2.626-4.759,5.181-9.563,7.566-14.446c0.745-1.525,2.231-2.945,1.562-5.032c-1.346-1.173-2.143,0.257-2.882,0.853
		c-2.818,2.272-5.602,4.605-8.231,7.092c-10.783,10.2-24.043,16.005-37.581,21.318c-2.807,1.102-5.713,1.948-8.54,2.999
		c-3.902,1.451-7.807,1.969-11.702,1.77l-0.878,5.354c0.786-0.132,1.595-0.223,2.43-0.275
		C461.03,346.436,469.167,343.03,477.24,339.703z"/>
	<path fill="#279989" d="M942.94,789.13c16.362,6.06,32.336,12.996,47.677,21.33c7.172,3.896,13.841,8.564,19.434,14.526
		c7.48,7.973,12.569,17.139,10.474,28.509c-1.537,8.344-4.699,16.397-10.405,22.724c-6.633,7.353-14.081,14.017-24.071,16.774
		c-2.018-5.412-2.511-11.143-3.503-16.769c-0.733-4.159-1.481-8.31-3.559-12.068c-0.467-0.845-1.197-1.249-2.179-1.224
		c-1.197,0.031-1.53,0.985-1.643,1.816c-0.579,4.25,0.302,8.397,1.013,12.559c1.065,6.233,2.06,12.477,3.084,18.717
		c-13.507,3.161-27.104,4.937-41.063,4.131c-9.76-0.564-18.917-3.174-27.92-6.524c-5.053-1.88-9.869-4.401-14.781-6.657
		c-1.099-0.505-2.17-1.017-3.438-0.603c-1.196,1.647-0.521,3.458-0.232,5.15c2.174,12.763-4.64,21.183-13.817,28.304
		c-3.06,2.374-6.649,4.08-10.461,5.122c-1.194-2.226-0.983-4.659-1.069-7.056c-0.108-3.004-0.149-6.018-0.451-9.005
		c-0.337-3.34-2.164-5.191-4.238-4.641c-1.813,0.48-2.774,2.241-2.316,5.214c0.915,5.947,1.806,11.876,1.13,17.916
		c-9.407,2.926-18.505,1.642-27.321-2.24c-12.41-5.465-24.503-11.47-35.83-19.071c-7.353-4.934-13.379-11.194-19.803-17.091
		c-1.095-1.006-2.128-2.119-3.359-2.923c-0.765-0.5-1.96-0.071-2.034,0.873c-0.187,2.391-0.032,4.806-0.078,7.21
		c-0.104,5.414,0.348,10.875-1.111,16.19c-4.771,17.376-15.552,28.866-33.084,33.71c-1.33-2.067-1.781-4.373-2.137-6.789
		c-1.573-10.677-3.071-21.359-3.813-32.135c-0.102-1.477-0.376-2.983-0.854-4.379c-0.381-1.114-1.255-2.097-2.619-2.034
		c-1.452,0.066-2.091,1.164-2.043,2.425c0.253,6.585-0.057,13.186,0.968,19.75c1.247,7.988,2.225,16.018,3.319,24.029
		c-8.279,0.66-16.229-1.353-23.982-3.672c-8.072-2.415-16.018-5.328-23.727-8.862c-12.226-5.605-23.029-13.169-32.621-22.543
		c-2.346-2.292-4.789-4.484-7.236-6.767c-2.171,1.432-3.8,2.756-5.634,3.669c-5.463,2.72-8.349,6.782-7.365,13.08
		c-2.477,13.435-1.537,27.112-2.862,40.639c-0.885,9.036-0.2,9.483,8.509,8.812c7.223-0.557,14.42-1.441,21.642-2.016
		c3.303-0.263,6.64-0.08,9.958-0.194c3.522-0.121,5.553,1.393,6.554,4.868c1.669,5.795,3.415,11.593,5.578,17.216
		c3.796,9.869,5.723,20.367,10.223,29.984c1.042,2.228,0.627,4.151-1.071,5.755c-1.528,1.443-3.092,2.926-4.875,4.002
		c-3.097,1.87-6.205,4.073-9.616,4.995c-5.918,1.6-8.085,4.761-7.935,10.932c0.279,11.506-2.589,22.778-3.562,34.215
		c-1.1,12.93-2.78,25.82-3.542,38.766c-0.369,6.265-2.675,10.734-7.351,14.707c-5.907,5.018-12.607,8.314-19.914,10.38
		c-10.463,2.958-21.038,5.388-31.992,5.898c-7.527,0.351-14.988,1.339-22.582,1.227c-15.172-0.224-30.072-2.312-44.823-5.535
		c-6.797-1.485-13.129-4.397-19.123-8.043c-2.589-1.574-3.662-3.57-4.16-6.49c-4.158-24.39-8.465-48.754-12.733-73.124
		c-0.312-1.783-0.616-3.57-1.018-5.334c-0.576-2.525-1.821-4.211-4.681-4.786c-5.668-1.14-10.843-3.668-15.918-6.39
		c-3.301-1.77-4.317-4.084-3.953-8.083c1.584-17.431,2.655-34.908,3.916-52.368c0.174-2.41,0.56-4.821,0.519-7.226
		c-0.11-6.351,3.909-8.161,9.641-7.978c6.618,0.211,13.21,1.208,19.817,1.812c5.113,0.468,10.233,0.857,15.344,1.279
		c4.058,1.628,8.347,0.774,12.526,1.13c3.744,0.32,4.007,0.648,4.833,5.958c-9.943-0.471-19.887-0.383-29.823-1.692
		c-6.844-0.902-13.676-2.469-20.689-2.113c-4.226,0.214-4.808,0.506-5.138,4.47c-1.226,14.735-2.615,29.461-3.518,44.216
		c-0.306,4.999-2.817,10.955,0.632,14.919c3.698,4.251,10.008,5.272,15.55,6.703c18.81,4.855,38.021,6.844,57.375,7.395
		c9.046,0.258,18.17,0.392,27.156-0.475c16.513-1.594,32.925-4.123,49.272-7.037c15.85-2.825,31.075-7.543,45.642-14.376
		c2.18-1.023,4.326-2.176,6.328-3.509c2.498-1.664,2.926-3.121,1.885-6.236c-4.398-13.168-8.85-26.319-13.315-39.465
		c-1.224-3.605-2.299-4.528-5.841-4.321c-6.629,0.388-13.302,0.634-19.853,1.625c-11.948,1.808-23.982,2.11-35.999,2.795
		c-0.436-2.421-0.313-4.72,1.439-6.669c1.5-0.082,3-0.235,4.499-0.233c7.878,0.008,7.807-0.126,8.14-8.07
		c0.365-8.687,0.337-17.376,1.227-26.063c0.534-5.212,1.468-10.586,0.458-15.96c-3.286-0.121-5.408,1.694-7.658,3.05
		c-12.373,7.451-25.489,12.02-40.189,10.708c-0.894-0.08-1.802-0.016-2.703-0.019c-2-8.515-1.437-17.232-2.051-25.856
		c-0.168-2.367-0.358-4.748-0.806-7.07c-0.124-0.641-1.141-1.381-1.879-1.571c-1.229-0.318-2.281,0.289-2.921,1.471
		c-1.371,2.53-1.094,5.284-0.698,7.892c1.263,8.312,1.033,16.675,1.195,25.027c-0.286-0.006-0.573,0.007-0.856-0.019
		c-5.612-0.532-7.361-0.657-6.789,7.146c0.021,0.285,0.052,0.569,0.078,0.853c-1.807,2.148-4.001,3.674-6.799,4.23
		c0.156-4.504,1.639-9.651-0.686-13.309c-2.372-3.733-7.878-3.644-12.167-4.637c-16.392-3.797-28.593-13.555-38.614-26.574
		c-2.243-2.914-3.715-6.188-5.072-9.543c-1.351-3.341-2.654-6.701-3.935-9.946c-2.274-0.754-3.495,0.806-4.89,1.803
		c-8.587,6.135-17.441,11.723-27.194,15.957c-7.822,3.396-15.884,5.491-24.22,6.913c-9.845,1.679-19.756,2.068-29.704,1.909
		c0.651-6.294,2.291-12.304,4.53-18.238c2.007-5.317,3.436-10.861,4.933-16.356c0.373-1.369,0.234-2.98-0.081-4.388
		c-0.152-0.68-1.19-1.303-1.962-1.642c-0.376-0.165-1.22,0.238-1.579,0.632c-0.792,0.871-1.879,1.834-2.026,2.875
		c-1.096,7.799-5.026,14.726-6.674,22.366c-1.069,4.954-2.886,9.747-4.367,14.612c-7.239-0.757-14.352-2.061-21.096-4.926
		c-14.88-6.321-25.87-16.391-31.258-32.035c-2.004-5.819-2.559-11.743-2.469-17.819c0.149-10.017,1.363-19.84,4.807-29.32
		c0.252-0.695,0.014-1.985-0.492-2.417c-0.479-0.409-1.785-0.354-2.43,0.016c-7.358,4.216-14.997,7.787-23.038,10.501
		c-17.236,5.818-34.759,10.182-53.069,10.639c-5.43,0.136-10.86,0.505-16.288,0.468c-6.704-0.045-13.097-2.11-19.581-3.493
		c0.682-7.495,1.51-14.953,3.823-22.187c0.624-1.953,0.569-4.143,0.677-6.232c0.047-0.916-0.535-1.645-1.472-2.003
		c-1.023-0.39-1.78,0.129-2.364,0.799c-2.062,2.365-2.608,5.358-3.292,8.288c-1.502,6.44-3.013,12.877-4.52,19.316
		c-7.595-1.624-14.058-5.232-19.624-10.679c-4.309-4.217-9.024-8.016-13.356-12.21c-2.146-2.077-3.876-4.595-5.722-6.969
		c-6.297-8.099-7.506-17.682-7.469-27.439c0.025-6.532,3.011-12.315,6.746-17.493c9.052-12.549,20.709-21.623,35.282-27.359
		c13.868-5.458,28.211-8.953,42.65-12.143c17.817-3.937,34.826-9.843,50.792-18.737c5.578-3.107,10.971-6.364,15.13-11.344
		c0.532-0.637,1.477-0.928,2.364-1.46c8.599,14.413,20.392,24.674,36.606,29.38c0.018,3.965-2.558,6.665-5.01,9.155
		c-2.218,2.252-5.089-0.128-7.684,0.03c-2.384,0.145-4.82-0.206-7.166,0.13c-8.233,1.177-15.605,4.023-20.313,11.492
		c-1.503,1.072-2.715,2.357-3.096,4.25c-8.615,12.88-5.649,29.541,6.248,38.738c9.132,7.06,26.91,8.81,39.299-2.036
		c10.797-9.452,17.03-30.081,2.524-44.216c-4.949-4.823-4.775-5.015-0.973-10.456c1.215-1.738,2.459-3.463,4.511-4.332
		c4.129,0.791,8.23,1.953,12.399,2.304c16.07,1.353,31.835-0.289,47.229-5.306c14.985-4.883,28.662-12.463,42.342-20.082
		c6.007-3.346,11.426-7.789,18.145-9.817c0.503,0.502,1.005,1.004,1.508,1.506c-2.714,6.032-5.822,11.923-8.047,18.13
		c-2.973,8.295-4.439,16.974-2.344,25.745c4.526,18.948,16.07,31.239,35.108,36.178c-0.064,7.895-0.065,7.783-7.782,7.833
		c-5.468,0.036-10.709,1.059-15.536,3.997c-11.709,7.126-16.987,18.64-14.665,32.288c1.956,11.5,8.706,19.466,19.409,22.928
		c10.814,3.499,21.452,2.056,30.386-6.109c13.997-12.793,13.732-35.302-2.155-47.359c-4.874-3.699-4.798-3.816-2.807-9.659
		c0.291-0.853,0.727-1.656,1.093-2.48c14.843,1.797,28.964-0.81,41.789-8.347c15.476-9.095,29.014-20.513,38.548-36.083
		c1.417-2.313,2.895-4.589,4.374-6.863c2.137-3.284,4.333-6.531,6.445-9.831c2.011-3.144,3.25-6.78,5.904-10.368
		c2.3,3.372,4.135,6.083,5.992,8.781c3.247,4.719,6.614,9.332,10.644,13.447c17.35,17.715,37.685,30.908,60.666,40.065
		c12.606,5.023,25.502,9.048,39.09,10.429c0.315,0.846,0.724,1.67,0.93,2.542c1.493,6.309,1.465,6.284-4.477,9.402
		c-1.869,0.981-3.71,2.053-5.435,3.268c-9.094,6.404-16.049,21.43-9.808,35.557c5.091,11.524,21.216,20.833,33.526,17.129
		c6.395-1.924,11.53-5.048,15.914-9.786c11.381-12.303,8.75-33.644-5.215-42.968c-3.84-2.564-8.053-3.951-12.505-5.035
		c-5.789-1.41-6.258-2.935-3.595-9.039c8.14,1.415,16.266,0.526,24.242-0.875c10.179-1.788,19.765-5.301,27.292-12.908
		c6.726-6.797,9.878-15.114,9.306-24.533c-0.343-5.66-1.579-11.299-3.927-16.6c-0.681-1.538-2.093-2.958-1.376-4.928
		c1.768-0.93,2.736,0.554,3.845,1.335c8.602,6.061,16.884,12.677,26.517,17.049c4.721,2.143,8.969,4.833,12.996,7.978
		c10.456,8.165,21.83,14.87,33.47,21.157c0.559,3.857,0.977,7.742,1.704,11.568c2.452,12.916,9.872,21.66,22.394,25.79
		c9.321,3.075,17.841,1.297,25.158-5.258C938.275,794.669,940.507,791.788,942.94,789.13z M502.241,1050.115
		c1.263,8.779,2.174,16.562,3.535,24.266c2.464,13.948,5.201,27.848,7.81,41.771c0.667,3.561,1.344,7.122,1.9,10.701
		c0.465,2.988,2.25,4.898,4.805,6.149c1.89,0.925,3.861,1.714,5.854,2.393c12.938,4.405,26.315,6.583,39.9,7.446
		c15.099,0.959,30.183,0.593,45.154-1.752c10.158-1.591,20.15-3.87,29.405-8.623c5.903-3.032,10.182-7.625,11.755-14.025
		c1.141-4.643,1.333-9.548,1.673-14.356c1.127-15.951,2.607-31.853,5.168-47.653c0.809-4.993,1.167-10.099,0.706-14.879
		c-2.355-1.359-4.01-0.195-5.675,0.196c-3.524,0.827-6.969,1.995-10.5,2.781c-24.79,5.52-49.877,8.915-75.227,10.424
		c-14.506,0.863-28.933-0.122-43.326-1.798C517.761,1052.293,510.369,1051.201,502.241,1050.115z"/>
	<path fill="#279989" d="M346.482,661.564c4.223-2.035,8.771-3.594,13.006-5.622c6.758-3.236,13.32-7.174,19.629-11.222
		c5.544-3.557,10.492-8.053,15.645-12.206c1.03-0.83,1.185-2.095,0.196-3.154c-0.667-0.714-1.603-0.815-2.455-0.306
		c-0.77,0.459-1.434,1.091-2.186,1.583c-6.051,3.959-11.562,8.681-17.997,12.121c-4.072,2.177-7.803,4.661-11.613,7.267
		c-4.085,2.793-8.174,5.589-12.438,8.1c-10.388,6.118-22.021,10.559-34.069,10.96c-4.3,0.143-8.524,0.304-12.809-0.094
		c-4.78-0.444-9.488-1.64-14.266-2.139c-9.133-0.954-17.507-4.056-25.51-8.364c2.316-4.844,4.605-9.703,6.955-14.531
		c1.176-2.416,2.467-4.775,3.7-7.164c0.462-0.896,0.312-1.746-0.404-2.406c-0.698-0.642-1.499-0.745-2.435-0.323
		c-2.324,1.049-3.723,2.976-4.856,5.096c-2.106,3.942-4.159,7.916-6.108,11.938c-0.796,1.644-1.531,3.238-3.257,4.098
		c-0.991-0.689-1.912-1.521-2.984-2.043c-11.011-5.367-16.848-15.174-21.861-25.61c-4.444-9.252-3.03-18.896-1.032-28.38
		c1.052-4.994,3.282-9.629,6.488-13.781c6.842-8.86,13.684-17.756,23.661-23.325c5.769-3.22,11.761-6.169,17.927-8.517
		c9.283-3.533,18.806-6.432,28.226-9.599c2.862,0.929,5.694,1.968,8.593,2.767c10.41,2.87,20.122,1.855,29.232-4.553
		c5.697-4.007,8.871-9.673,12.079-15.45c5.852-2.393,11.56-5.104,16.712-8.818c6.84-4.93,13.826-9.699,20.304-15.074
		c3.677-3.051,7.495-4.662,12.122-5.26c14.733-1.903,28.892-5.957,42.488-11.953c1.113-0.491,2.206-0.89,3.705-0.293
		c0.879,2.522,0.272,5.173-0.445,7.751c-1.964,7.068-2.3,14.21-1.61,21.492c1.985,20.947,12.526,35.945,31.189,45.396
		c0.521,2.886-1.057,5.236-1.989,7.748c-0.609,1.642-1.907,2.294-3.544,2.059c-1.481-0.213-2.919-0.712-4.39-1.016
		c-6.255-1.293-12.513-1.636-18.754,0.086c-11.331,3.127-22.603,14.539-23.897,29.89c-1.875,22.236,20.861,40.416,41.716,34.862
		c23.411-6.235,32.31-32.763,19.897-50.903c-1.187-1.735-2.391-3.496-3.83-5.014c-2.138-2.254-2.623-4.77-1.376-7.459
		c0.984-2.122,1.075-4.801,3.454-6.152c0.575,0.182,1.152,0.357,1.723,0.547c19.699,6.57,37.986,2.293,55.552-7.297
		c1.568-0.856,2.994-2.038,4.333-3.24c10.639-9.544,19.764-20.238,25.524-33.519c1.264-2.915,2.766-5.752,4.889-9.288
		c2.571,3.299,4.609,5.826,6.546,8.429c1.436,1.931,2.628,4.05,4.122,5.93c10.726,13.497,22.824,25.662,36.313,36.375
		c11.107,8.821,22.789,16.79,36.306,21.616c0.935,3.841,1.046,7.746,0.983,11.675c-0.04,2.494-1.381,3.852-3.6,4.553
		c-0.861,0.272-1.743,0.475-2.613,0.716c-10.722,2.969-17.685,10.154-21.362,20.289c-5.952,16.405,0.707,34.98,18.724,42.483
		c14.069,5.859,30.239,1.206,38.945-10.268c7.227-9.525,9.143-19.998,5.144-31.537c-3.147-9.082-8.61-15.673-17.821-18.95
		c-2.823-1.004-5.527-2.342-8.309-3.468c-1.172-0.475-2.245-1.078-2.354-2.415c-0.266-3.229-1.352-6.618,1.425-9.397
		c6.955,2.04,13.911,4.082,20.866,6.121c14.543,4.263,29.279,4.275,43.953,1.225c11.554-2.401,21.099-8.99,29.539-16.91
		c4.557-4.276,6.237-10.297,6.107-16.586c-0.225-10.852-3.331-20.808-9.769-29.619c-2.31-3.161-4.783-6.202-7.215-9.341
		c1.932-1.482,3.02,0.204,4.095,0.864c13.387,8.218,26.904,16.161,41.287,22.587c5.822,2.601,11.702,4.864,17.911,6.219
		c3.578,0.781,5.675,2.696,6.983,6.225c4.676,12.618,12.409,23.417,21.232,33.383c13.502,15.251,28.921,28.202,46.69,38.375
		c6.782,3.883,13.196,8.537,19.321,13.413c9.349,7.443,16.798,16.488,20.665,28.061c3.91,11.705,3.508,23.132-2.158,34.252
		c-1.804,3.541-3.984,6.77-6.998,9.375c-5.25,4.537-10.339,9.29-16.486,12.658c-2.238-3.368-2.301-7.384-3.332-11.114
		c-1.037-3.755-2.083-7.514-3.322-11.204c-0.828-2.466-2.44-3.348-3.864-2.559c-1.601,0.888-1.712,2.355-1.446,3.864
		c0.259,1.471,0.792,2.892,1.113,4.355c1.472,6.728,2.911,13.463,4.361,20.197c-9.9,5.076-20.722,6.402-31.54,7.058
		c-5.634,0.342-11.294-0.924-16.827-2.835c-9.217-3.184-17.725-7.506-25.507-13.332c-9.157-6.856-19.251-12.442-27.623-20.366
		c-0.429-0.406-0.94-0.909-1.467-0.983c-0.826-0.115-1.816-0.134-2.522,0.227c-1.091,0.559-1.886,1.656-1.612,2.945
		c0.242,1.138,0.764,2.273,1.394,3.262c1.783,2.796,3.699,5.507,5.536,8.269c4.243,6.38,6.875,13.352,7.831,20.975
		c1.444,11.527-2.247,20.672-12.061,27.266c-8.02,5.388-16.925,7.747-26.407,8.234c-6.302,0.324-12.617,0.385-18.926,0.563
		c-1.76-3.608-1.671-7.549-1.869-11.391c-0.264-5.099-1.368-10.03-2.551-14.945c-0.689-2.864-2.51-4.288-4.143-3.666
		c-2.265,0.863-1.929,3.028-1.615,4.56c1.622,7.914,1.785,15.979,2.775,23.954c-4.433-0.897-8.924-1.577-13.29-2.73
		c-18.491-4.883-36-12.049-52.229-22.316c-19.723-12.477-36.8-27.368-46.664-49.162c-0.246-0.544-0.619-1.034-0.956-1.534
		c-1.216-1.803-3.067-2.062-4.522-0.457c-1.199,1.323-2.584,2.702-3.172,4.316c-4.087,11.221-11.465,20.484-17.7,30.438
		c-4.712,7.522-10.766,13.793-17.318,19.624c-15.97,14.213-34.039,22.765-56.069,20.314c2.152-8.144,4.315-16.285,6.451-24.434
		c0.763-2.913,1.555-5.825,2.154-8.774c0.503-2.477-0.395-4.277-1.953-4.318c-1.79-0.047-2.65,1.112-3.126,2.667
		c-1.057,3.448-2.129,6.892-3.171,10.345c-2.426,8.042-4.838,16.089-7.256,24.134c-3.064-1.251-6.208-2.337-9.177-3.781
		c-11.484-5.587-18.864-14.465-22.142-26.966c-2.329-8.881-1.344-17.324,1.863-25.652c3.798-9.866,8.687-19.187,14.621-27.949
		c1.009-1.49,2.077-2.92,2.042-4.894c-0.031-1.777-2.184-3.447-3.777-2.752c-0.548,0.239-1.109,0.491-1.584,0.845
		c-10.427,7.757-22.048,13.562-33.134,20.239c-13.199,7.95-26.958,14.809-41.812,19.094c-17.287,4.988-34.796,7.058-52.574,2.473
		c1.052-2.152,2.08-4.316,3.163-6.453c1.351-2.666,2.706-5.332,4.141-7.953c0.791-1.444,1.086-2.787-0.223-4.043
		c-1.135-1.089-2.76-0.612-4.403,1.561c-1.437,1.9-2.779,3.909-3.885,6.016c-1.822,3.471-3.69,6.875-6.599,9.583
		c-9.028-2.682-17.123-7.057-24.121-13.385c-1.119-1.011-2.203-2.061-3.24-3.156c-3.886-4.103-7.09-8.878-8.882-14.267
		c-0.902-2.712-1.345-5.542-1.682-8.367c-0.361-3.024-0.089-6.222,1.468-8.9c0.703-1.208,1.638-2.267,2.655-3.227
		C340.53,664.765,343.421,663.039,346.482,661.564z"/>
	<path fill="#279989" d="M862.475,544.438c-5.783,3.686-12.176,4.759-18.945,5.209c-14.557,0.969-28.072-2.129-41.159-8.407
		c-19.916-9.555-39.074-20.315-56.801-33.546c-1.427-1.065-3.031-1.914-4.629-2.71c-0.368-0.183-1.186,0.124-1.553,0.467
		c-0.381,0.356-0.757,1.117-0.627,1.545c0.344,1.125,0.806,2.283,1.501,3.221c3.769,5.091,7.635,10.109,11.444,15.171
		c3.08,4.094,6.245,8.131,9.16,12.34c4.422,6.385,6.42,13.805,6.832,21.318c0.475,8.658-3.451,15.71-10.738,20.753
		c-12.04,8.332-25.144,12.461-39.972,11.917c-16.227-0.596-31.588-4.361-46.516-10.365c-0.567-7.429-1.157-14.862-1.721-22.297
		c-0.271-3.578-0.328-7.181-0.808-10.729c-0.24-1.773-1.323-3.364-3.44-3.619c-1.525-0.183-2.56,1.537-2.47,4.044
		c0.021,0.598,0.032,1.202,0.127,1.79c1.447,8.918,0.915,17.898,0.861,26.861c-9.931-3.092-18.555-8.682-26.79-14.746
		c-18.326-13.496-34.434-29.256-47.288-48.174c-2.369-3.487-4.807-6.933-7.353-10.291c-2.122-2.799-3.888-2.652-5.386,0.312
		c-3.534,6.994-6.743,14.169-10.592,20.983c-9.351,16.556-21.752,29.642-41.119,34.228c-11.892,2.816-23.761,4.142-35.425-1.054
		c2.285-5.901,4.588-11.795,6.845-17.707c0.752-1.97,1.535-3.948,2.029-5.99c0.417-1.725,0.66-3.643-1.334-4.749
		c-1.372-0.762-3.19,0.274-4.148,2.503c-0.951,2.213-1.607,4.552-2.557,6.765c-2.363,5.501-3.514,11.556-7.419,16.357
		c-2.27-1.483-4.595-2.889-6.802-4.462c-10.453-7.454-17.648-17.164-20.369-29.885c-1.916-8.959-1.837-17.943-0.055-26.913
		c0.763-3.839,1.71-7.644,2.38-11.498c0.248-1.427,0.109-2.983-0.157-4.424c-0.333-1.803-2.549-2.919-4.193-2.233
		c-1.107,0.462-2.13,1.119-3.21,1.65c-16.939,8.332-34.869,13.228-53.608,15.072c-6.268,0.617-12.508,0.517-18.862-0.747
		c-12.237-2.434-22.328-8.724-32.069-15.935c2.479-4.105,4.954-8.213,7.44-12.315c2.48-4.092,5.01-8.153,7.442-12.273
		c1.234-2.09,1.042-4.244-0.202-4.717c-1.779-0.676-2.761,0.677-3.927,1.508c-0.475,0.338-0.861,0.841-1.192,1.334
		c-3.173,4.727-6.478,9.375-9.423,14.241c-1.588,2.623-3.274,5.003-5.853,6.685c-1.748-2.072-3.421-4.213-5.256-6.205
		c-9.489-10.3-10.293-22.504-8.418-35.592c2.149-14.999,10.627-26.032,21.47-35.558c12.012-10.552,26.007-17.229,41.716-20.588
		c12.088-2.585,23.813-6.48,34.964-11.951c5.687-2.79,11.473-5.406,16.358-9.546c3.346-2.835,7.072-4.224,11.528-4.5
		c8.843-0.549,16.981-3.955,25.054-7.282c9.199-3.791,18.226-7.981,27.235-14.12c-0.569,3.806-0.934,6.847-1.489,9.853
		c-2.03,10.986,1.395,20.765,6.385,30.29c4.641,8.858,12.54,13.591,21.243,17.413c0.323,1.914,0.241,3.705-1.979,4.412
		c-2.29,0.729-4.699,1.124-6.933,1.985c-15.431,5.948-21.243,20.01-21.136,33.716c0.059,7.584,3.542,14.6,8.718,20.411
		c8.234,9.243,22.424,12.442,33.024,6.913c14.173-7.392,22.691-20.924,17.892-39.271c-2.362-9.03-6.906-16.721-16.558-20.005
		c-1.676-0.57-3.271-1.554-4.68-2.637c-0.488-0.375-0.296-1.634-0.419-2.488c9.802,1.214,19.197-0.177,28.119-4.485
		c11.263-5.438,21.227-12.509,28.646-22.792c0.864-1.198,1.648-2.55,3.62-3.117c3.843,5.489,7.277,11.51,12.137,16.36
		c5.106,5.095,10.259,10.209,15.868,14.722c13.783,11.092,28.919,19.481,46.903,21.536c0.287,0.859,0.646,1.701,0.849,2.579
		c1.955,8.473,1.948,8.476-6.346,11.096c-1.151,0.363-2.343,0.62-3.456,1.074c-17.33,7.064-24.11,30.054-13.09,44.721
		c10.824,14.406,28.679,16.77,41.985,9.383c18.33-10.176,21.064-33.672,7.196-46.759c-4.029-3.802-8.281-7.14-13.601-8.619
		c-3.396-0.943-5.014-2.764-5.456-6.135c-0.277-2.115-0.62-4.174,0.087-6.251c5.729,0.538,11.422,0.181,17.048-0.932
		c15.263-3.02,25.665-13.2,28.538-27.7c1.472-7.429-0.415-14.292-3.275-21.025c-0.766-1.803-2.802-3.132-2.15-5.519
		c2.508-1.016,3.931,1.085,5.641,1.949c11.647,5.885,23.735,10.393,36.896,10.757c4.211,0.117,6.677,1.984,8.994,4.856
		c-0.149,1.178-0.08,2.439-0.484,3.521c-2.371,6.34-2.326,12.708-1.448,19.387c1.097,8.342,5.179,14.702,11.561,19.482
		c6.34,4.749,13.493,7.799,21.782,5.413c1.564-0.45,2.93,0.131,4.33,0.632c11.249,11.459,23.572,21.61,37.034,30.365
		c5.06,3.291,10.25,6.384,15.254,9.756c8.848,5.963,16.139,13.547,22.537,22.049c4.729,6.284,6.622,13.545,7.039,21.161
		c0.335,6.121-1.201,11.917-4.462,17.28c-4.656,7.655-11.093,13.47-18.253,18.607c-3.882-3.636-5.505-8.575-7.403-13.292
		c-2.147-5.333-4.337-10.619-7.616-15.364c-0.441-0.638-1.517-1.332-2.174-1.226c-1.558,0.253-1.428,1.852-1.161,2.846
		c1.01,3.763,2.021,7.554,3.456,11.167C856.466,530.646,859.53,537.518,862.475,544.438z"/>
	<path fill="#279989" d="M532.584,378.429c-6.98-3.053-13.501-6.568-17.85-13.315c-5.801-8.998-8.098-18.751-7.33-29.301
		c0.222-3.051,1.562-5.782,3.04-8.46c2.626-4.759,5.181-9.563,7.566-14.446c0.745-1.525,2.231-2.945,1.562-5.032
		c-1.346-1.173-2.143,0.257-2.882,0.853c-2.818,2.272-5.602,4.605-8.231,7.092c-10.783,10.2-24.043,16.005-37.581,21.318
		c-2.807,1.102-5.713,1.948-8.54,2.999c-7.117,2.646-14.241,2.204-21.3-0.069c-10.044-3.235-18.29-15.523-17.405-25.989
		c0.75-8.868,3.448-17.182,8.235-24.69c6.556-10.283,14.603-19.115,24.918-25.896c13.87-9.119,27.771-18.224,40.313-29.2
		c19.941-17.45,36.59-37.557,50.186-60.347c8.37-14.029,16.406-28.173,22.705-43.254c6.629-15.868,13.587-31.603,19.145-47.905
		c2.921-8.569,6.088-17.056,9.274-25.53c1.06-2.821,2.407-5.494,5.687-6.609c3.669-1.247,6.558-0.795,8.874,2.263
		c2.726,3.6,5.459,7.223,6.963,11.601c2.548,7.42,5.439,14.727,7.065,22.439c0.311,1.473,0.734,2.929,1.204,4.361
		c6.203,18.928,12.145,37.947,18.704,56.751c10.116,28.999,24.839,55.65,42.404,80.775c3.808,5.447,7.384,11.072,11.435,16.331
		c12.435,16.144,27.047,30.049,43.85,41.604c7.214,4.961,14.69,9.555,21.746,14.726c9.755,7.148,17.188,16.074,19.43,28.442
		c1.211,6.682,1.326,13.236-2.377,19.305c-3.679-2.354-5.093-6.499-7.684-9.711c-2.411-2.989-4.853-5.959-7.438-8.793
		c-0.369-0.404-1.835-0.292-2.414,0.118c-0.578,0.408-1.045,1.561-0.908,2.26c0.217,1.11,0.943,2.133,1.513,3.161
		c3.597,6.492,8.562,12.166,11.419,19.103c-5.066,5.106-11.124,6.758-18.212,5.753c-4.513-0.64-8.9-1.613-13.206-3.029
		c-13.059-4.295-24.722-11.128-35.451-19.63c-3.186-2.524-6.325-5.097-10.598-6.774c0.62,4.964,3.817,7.542,6.051,10.662
		c3.157,4.409,6.25,8.901,9.795,12.989c6.349,7.32,6.676,15.823,5.649,24.734c-0.574,4.977-2.729,9.203-5.937,12.974
		c-4.484,5.272-10.182,8.302-16.905,9.82c-5.975,1.349-11.998,0.976-18.012,1.187c-1.286-5.896-1.969-11.865-1.899-17.896
		c0.039-3.366-0.578-6.576-1.714-9.705c-0.31-0.853-0.894-1.529-1.96-1.541c-1.389-0.017-2.541,0.797-2.633,1.938
		c-0.24,2.975-0.193,5.986-0.071,8.976c0.232,5.698,1.777,11.302,1.255,17.059c-8.558-0.716-16.398-3.712-24.003-7.501
		c-12.564-6.26-23.313-14.93-33.113-24.858c-5.111-5.179-9.344-11.003-12.715-17.468c-1.076-2.064-1.682-4.53-4.112-5.729
		c-2.911,0.699-4.162,3.283-5.908,5.277c-5.772,6.59-11.836,12.818-19.11,17.843c-10.768,7.438-22.323,11.806-35.63,10.275
		c0.181-2.397,0.818-4.636,1.728-6.892c2.013-4.994,3.3-10.218,3.847-15.59c0.148-1.449,0.23-3.045-1.594-3.704
		c-1.487-0.537-3.165,0.579-3.926,2.757c-0.589,1.686-0.919,3.461-1.479,5.158C536.254,367.804,535.226,373.392,532.584,378.429z"/>
	<path fill="#279989" d="M533.626,967.761c-4.462-0.051-8.925-0.027-13.394-0.035c4.058,1.628,8.347,0.774,12.526,1.13
		c3.145,0.268,3.834,0.544,4.463,3.774l0.522-7.13C536.959,967.069,535.621,967.783,533.626,967.761z"/>
	<path fill="#F8DD6F" d="M608.696,971.043c-1.77-1.074-1.771-3.019-2.318-4.698c-1.804-5.532-4.905-10.381-8.727-14.622
		c-5.161-5.728-11.538-9.354-19.503-10.118c-4.991-0.478-5.223-1.206-5.679-7.151c-2-8.515-1.437-17.232-2.051-25.856
		c-0.168-2.367-0.358-4.747-0.806-7.07c-0.124-0.641-1.141-1.381-1.879-1.571c-1.229-0.318-2.281,0.289-2.921,1.471
		c-1.371,2.53-1.094,5.284-0.698,7.892c1.263,8.312,1.033,16.674,1.195,25.027c0.251,0.864,0.65,1.715,0.728,2.594
		c0.267,3.005-0.307,3.904-2.967,4.516c-1.749,0.402-3.549,0.584-5.327,0.867c-1.808,2.151-4.002,3.677-6.8,4.236
		c-6.231,4.528-10.648,10.367-12.773,17.823c-0.118,0.413-0.261,0.784-0.428,1.118l-0.522,7.13c0.12,0.615,0.237,1.335,0.369,2.184
		c2.353,17.743,15.763,30.884,33.532,31.997c15.228,0.953,30.898-7.623,35.077-23.812c0.448-1.737,0.707-3.523,1.055-5.286
		C606.821,975.291,606.944,972.991,608.696,971.043z M557.982,951.178c2.674-0.244,5.386-0.077,9.37-0.077
		c3.513-0.139,8.375,0.322,12.929-1.855c0.76-0.364,1.799-0.496,2.608-0.305c0.763,0.18,1.691,0.792,1.995,1.464
		c0.306,0.676,0.251,1.922-0.196,2.464c-2.45,2.969-6.05,4.117-9.571,4.556c-5.366,0.669-10.832,0.73-16.18-0.595
		c-0.577-0.143-1.284-0.307-1.627-0.716c-0.541-0.644-1.036-1.47-1.17-2.282C555.917,952.484,556.805,951.286,557.982,951.178z
		 M575.971,977.939c-2.347,0.144-4.124-1.266-4.287-3.401c-0.192-2.516,1.746-4.785,4.078-4.774
		c1.871,0.009,3.658,1.928,3.833,4.117C579.774,976.114,578.27,977.798,575.971,977.939z M550.315,970.597
		c1.591-2.547,3.748-3.241,6.004-1.784c1.249,0.807,2.428,1.765,3.492,2.805c0.876,0.856,1.375,2.037,0.775,3.252
		c-0.698,1.413-1.891,2.287-3.504,2.492c-1.914,0.216-3.505-0.689-5.068-1.554C549.723,974.538,549.114,972.52,550.315,970.597z
		 M592.343,989.057c-1.284,3.015-3.822,4.636-6.961,5.076c-3.569,0.501-7.181,0.698-10.775,1.027
		c-6.755-0.518-13.214-1.877-19.295-4.793c-1.339-0.642-2.615-1.5-3.745-2.464c-1-0.853-1.085-2.182-0.565-3.331
		c0.537-1.188,1.723-1.725,2.965-1.555c1.169,0.16,2.363,0.531,3.419,1.063c4.669,2.351,9.719,3.149,14.8,3.978
		c5.488,0.896,10.807,1.172,15.732-2.048c0.486-0.318,1.173-0.638,1.685-0.538c0.832,0.162,1.852,0.475,2.318,1.087
		C592.386,987.169,592.632,988.378,592.343,989.057z M591.69,974.369c-2.471-0.168-4.6-2.477-4.352-4.72
		c0.235-2.121,2.193-4.085,4.062-4.074c2.311,0.014,4.724,2.192,4.856,4.383C596.401,972.354,594.142,974.536,591.69,974.369z"/>
	<path fill="#F8DD6F" d="M663.021,577.402c0.054-8.965,0.586-17.945-0.861-26.863c-0.095-0.588-0.106-1.192-0.127-1.79
		c-0.09-2.507,0.945-4.227,2.47-4.044c2.117,0.255,3.201,1.846,3.44,3.619c0.48,3.548,0.537,7.151,0.808,10.729
		c0.564,7.435,1.154,14.868,1.721,22.297c-0.561,2.194-0.283,4.209,1.296,5.934c-2.783,2.776-1.697,6.165-1.431,9.394
		c0.11,1.337,1.182,1.941,2.354,2.415c2.782,1.126,5.486,2.464,8.309,3.468c9.211,3.277,14.674,9.868,17.821,18.95
		c3.999,11.539,2.083,22.012-5.144,31.537c-8.706,11.474-24.877,16.127-38.945,10.268c-18.017-7.503-24.676-26.078-18.724-42.483
		c3.677-10.134,10.639-17.32,21.362-20.289c0.871-0.241,1.753-0.444,2.613-0.716c2.219-0.701,3.561-2.059,3.6-4.553
		c0.063-3.929-0.049-7.834-0.978-11.671C663.578,581.596,663.351,579.502,663.021,577.402z M673.731,636.861
		c-1.99-1.161-1.758-2.91-2.051-4.248c-0.644-2.932-0.724-5.984-1.282-8.941c-0.751-3.977-3.766-5.492-7.435-3.996
		c-3.245,1.323-5.557,3.516-6.854,6.81c-0.744,1.89-0.834,4.203-3.109,5.257c-0.938-2.571-0.45-5.41-1.986-7.86
		c-2.321-3.701-6.11-4.369-9.009-1.214c-4.504,4.901-5.241,10.703-3.532,16.895c0.292,1.057,1.363,2.089,2.764,1.953
		c1.669-0.162,2.725-1.163,3.003-2.834c0.325-1.959-1.621-5.393,0.73-5.61c3.041-0.281,1.286,3.675,2.34,5.525
		c0.741,1.301,1.066,2.843,1.835,4.122c1.331,2.214,3.341,3.55,6.015,3.251c2.8-0.313,4.157-2.249,4.632-4.846
		c0.65-3.553,1.228-7.12,1.809-10.686c0.258-1.583,0.754-2.91,2.697-3.032c1.22,2.558,0.713,5.319,0.809,8.001
		c0.112,3.128,1.052,5.955,2.938,8.409c1.619,2.107,5.797,3.135,8.302,2.074c2.174-0.921,3.074-2.893,3.254-5.073
		c0.198-2.399,0.107-4.824,0.092-7.238c-0.015-2.43-0.055-4.878,1.264-7.032c0.42-0.685,1.133-1.386,1.864-1.638
		c1.045-0.36,1.708,0.599,1.903,1.434c0.682,2.934,1.225,5.901,1.788,8.862c0.224,1.18,0.155,2.464,0.612,3.533
		c0.288,0.674,1.238,1.286,2.006,1.487c1.33,0.349,2.57-0.526,2.829-1.643c1.108-4.792,0.82-9.58-0.719-14.268
		c-0.77-2.346-2.031-4.362-4.029-5.888c-3.938-3.006-9.235-1.87-11.541,2.478c-1.304,2.46-1.864,5.102-1.927,7.851
		C673.685,631.366,673.731,633.975,673.731,636.861z"/>
	<path fill="#F8DD6F" d="M339.824,470.925c2.579-1.682,4.265-4.061,5.853-6.685c2.946-4.866,6.25-9.514,9.423-14.241
		c0.331-0.493,0.717-0.995,1.192-1.334c1.166-0.831,2.148-2.184,3.927-1.508c1.244,0.473,1.436,2.627,0.202,4.717
		c-2.432,4.12-4.962,8.182-7.442,12.273c-2.486,4.101-4.96,8.21-7.438,12.317c-0.962,1.124-2.13,2.129-2.855,3.388
		c-3.214,5.58-3.172,5.77,2.411,9.612c1.751,1.205,3.163,2.62,4.443,4.306c6.516,8.58,8.801,18.056,6.245,28.583
		c-0.356,1.465-0.796,2.859-0.238,4.345c-3.215,5.783-6.389,11.448-12.086,15.456c-9.111,6.408-18.822,7.423-29.232,4.553
		c-2.899-0.799-5.731-1.838-8.593-2.767c-2.191-2.461-4.292-5.009-6.59-7.367c-12.343-12.665-11.334-39.681,8.473-50.632
		c3.452-1.909,7.12-3.263,11.114-3.404c3.61-0.128,7.256-0.446,10.829-0.099c3.593,0.349,5.497-1.276,7.254-4.047
		C338.207,476.042,339.019,473.508,339.824,470.925z M325.376,540.191c3.468-0.642,7.03-1.153,10.506-2.013
		c1.534-0.38,2.419-1.906,2.175-3.52c-0.25-1.657-1.634-2.482-3.218-2.58c-1.17-0.072-2.434,0.035-3.534,0.415
		c-4.903,1.693-9.507,0.42-14.001-1.384c-5.015-2.014-9.864-4.374-14.059-7.901c-1.127-0.948-2.451-1.696-3.773-2.357
		c-0.397-0.199-1.327,0.022-1.607,0.374c-0.512,0.643-1.001,1.535-0.978,2.308c0.025,0.823,0.493,1.764,1.044,2.42
		C305.071,534.452,314.663,538.199,325.376,540.191z M343.569,509.336c1.804,0.2,3.614,0.12,5.234-0.826
		c1.055-0.615,1.94-1.455,1.793-2.857c-0.139-1.323-1.004-2.305-2.124-2.632c-1.411-0.412-2.967-0.545-4.444-0.47
		c-4.01,0.205-7.689-0.976-11.467-2.1c-6.799-2.022-12.791-5.14-17.438-10.641c-0.768-0.909-2.131-1.331-3.248-0.384
		c-1.185,1.004-2.024,2.307-1.209,3.934c1.514,3.023,3.66,5.489,6.606,7.234C325.403,505.41,334.008,508.792,343.569,509.336z
		 M311.08,509.335c-0.124-1.373-0.984-2.442-2.601-2.825c-2.996-0.708-5.255,0.046-6.055,2.132
		c-0.663,1.731-0.735,3.464,0.917,4.801c1.255,1.016,2.629,1.17,4.134,0.601C309.545,513.262,311.139,512.12,311.08,509.335z
		 M344.563,524.079c0.325-2.066-1.741-4.649-4.069-4.826c-1.582-0.12-2.896,0.661-3.371,2.249c-0.629,2.1,1.306,4.31,4.067,4.714
		C342.876,526.461,343.962,525.618,344.563,524.079z M323.406,522.489c2.405-0.232,4.101-2.041,3.797-4.049
		c-0.257-1.694-2.296-3.175-3.948-2.866c-2.072,0.388-3.544,2.519-3.135,4.645C320.465,522.006,321.761,522.528,323.406,522.489z"/>
	<path fill="#F8DD6F" d="M730.807,944.901c-1.094-8.012-2.072-16.041-3.319-24.029c-1.025-6.564-0.715-13.165-0.968-19.75
		c-0.048-1.26,0.591-2.359,2.043-2.425c1.364-0.062,2.238,0.921,2.619,2.034c0.477,1.396,0.752,2.902,0.854,4.379
		c0.742,10.776,2.24,21.457,3.813,32.135c0.356,2.416,0.807,4.722,2.137,6.789c0.227,1.18,0.464,2.36,0.7,3.54
		c0.885,4.412,0.869,4.591,4.867,4.954c23.528,2.137,34.594,25.938,28.187,44.347c-4.965,14.265-16.42,21.58-29.967,22.07
		c-12.246,0.444-25.314-9.383-29.323-21.719c-2.378-7.318-2.721-14.751-0.491-22.248c2.144-7.208,5.887-13.157,12.523-17.023
		c1.822-1.061,3.595-2.211,5.451-3.207c1.9-1.02,2.382-2.592,2.013-4.543C731.609,948.428,731.189,946.668,730.807,944.901z
		 M741.912,984.695c2.329,1.678,1.309,4.472,2.289,6.582c1.134,2.441,1.692,5.172,2.979,7.514c1.436,2.614,4.039,3.472,6.994,3.048
		c2.904-0.417,3.775-2.716,4.517-5.047c0.561-1.764,0.381-3.543-0.095-5.34c-0.299-1.131-0.528-2.389-0.331-3.51
		c0.192-1.095,0.568-2.531,2.018-2.607c0.324-0.017,0.731,1.359,1.081,2.103c0.577,1.224,1.564,1.836,2.871,1.635
		c1.743-0.267,2.551-1.575,2.628-3.168c0.167-3.43-1.052-6.525-2.811-9.386c-1.335-2.173-4.197-2.613-6.347-1.144
		c-3.513,2.401-4.663,6.105-5.607,9.969c-0.394,1.614,0.793,3.663-1.476,4.989c-0.445-3.672-0.222-7.306-1.999-10.655
		c-3.007-5.666-7.16-6.441-11.324-1.555c-1.802,2.115-2.916,4.817-4.431,7.404c-0.67-0.918-1.186-1.644-1.722-2.355
		c-0.722-0.957-1.332-2.047-2.215-2.825c-2.433-2.145-4.861-2.025-7.336-0.109c-4.311,3.337-4.556,8.248-5.074,12.993
		c-0.112,1.026,0.828,2.228,1.442,3.255c0.672,1.123,1.827,1.689,3.044,1.147c0.707-0.315,1.516-1.15,1.646-1.866
		c0.318-1.762,0.168-3.604,0.407-5.386c0.149-1.115,0.336-2.556,2.014-2.377c0.963,0.103,1.361,0.966,1.557,1.876
		c0.506,2.341,0.817,4.753,1.604,6.997c0.82,2.336,2.352,4.465,5.154,4.358c2.846-0.109,5.301-1.429,6.378-4.268
		c0.628-1.656,0.842-3.476,1.177-5.235C741.382,989.429,740.482,986.942,741.912,984.695z"/>
	<path fill="#F8DD6F" d="M777.88,355.38c-2.857-6.935-7.823-12.609-11.419-19.101c-0.569-1.028-1.295-2.05-1.513-3.161
		c-0.137-0.699,0.33-1.852,0.908-2.26c0.58-0.409,2.046-0.522,2.414-0.118c2.586,2.834,5.028,5.804,7.438,8.793
		c2.591,3.212,4.005,7.356,7.684,9.711c0.561,1.398,1.005,2.856,1.721,4.165c2.282,4.172,2.984,4.225,7.11,2.683
		c9.971-3.727,18.792-1.042,27.078,5.012c4.344,3.174,6.823,7.508,8.873,12.219c7.272,16.711-0.142,35.355-14.279,42.926
		c-1.838,0.984-3.924,1.664-4.45,4.067c-1.407-0.508-2.773-1.089-4.337-0.638c-8.289,2.385-15.442-0.664-21.782-5.413
		c-6.382-4.781-10.464-11.141-11.561-19.482c-0.878-6.679-0.923-13.047,1.448-19.387c0.405-1.083,0.335-2.343,0.485-3.521
		c2.092-2.421,4.16-4.863,6.282-7.257c1.607-1.813,1.598-3.701,0.372-5.651C779.58,357.739,778.707,356.574,777.88,355.38z
		 M794.871,413.601c0.597-0.03,1.201-0.018,1.792-0.096c13.098-1.737,21.083-10.422,27.955-20.607
		c0.159-0.235,0.205-0.563,0.253-0.855c0.202-1.233,0.119-2.462-0.969-3.232c-1.053-0.745-2.416-0.773-3.308,0.087
		c-1.49,1.439-2.682,3.182-4.08,4.723c-4.425,4.874-8.632,10.095-15.31,12.032c-2.561,0.743-5.287,0.903-7.914,1.442
		c-1.279,0.262-2.041,1.32-2.243,2.518c-0.282,1.666,0.696,2.823,2.102,3.565C793.655,413.445,794.293,413.465,794.871,413.601z
		 M809.002,364.492c0.055-1.19-2.16-2.272-3.549-1.896c-2.212,0.599-3.503,2.31-4.848,3.894c-4.417,5.202-9.827,8.851-16.387,10.737
		c-2.066,0.594-4.045,1.271-5.313,3.141c-0.32,0.473-0.754,1.241-0.578,1.601c0.372,0.761,1.033,1.451,1.729,1.959
		c0.432,0.316,1.182,0.428,1.73,0.322c11.5-2.233,20.595-8.097,26.937-18.034C809.012,365.766,808.919,365.073,809.002,364.492z
		 M809.658,387.508c0.131-1.811-1.361-3.843-2.895-3.944c-2.385-0.156-4.921,2.249-5.213,5.129
		c-0.177,1.743,0.889,2.824,2.518,3.101C807.076,392.305,809.448,390.417,809.658,387.508z M815.788,373.463
		c-2.22-0.019-3.702,1.399-3.825,3.745c-0.106,2.021,1.284,3.7,2.938,3.547c2.459-0.227,4.34-2.378,4.02-4.756
		C818.693,374.309,817.463,373.623,815.788,373.463z M792.281,395.865c-0.02-1.392-1.548-2.522-3.143-2.326
		c-2.211,0.272-4.028,2.086-3.824,4.059c0.166,1.6,1.21,2.725,2.811,2.959C790.276,400.873,792.319,398.473,792.281,395.865z"/>
	<path fill="#F8DD6F" d="M901.294,731.123c-1.451-6.732-2.891-13.468-4.362-20.196c-0.32-1.463-0.854-2.884-1.113-4.355
		c-0.265-1.509-0.155-2.977,1.446-3.864c1.423-0.789,3.036,0.093,3.864,2.559c1.239,3.691,2.285,7.45,3.322,11.204
		c1.03,3.73,1.094,7.746,3.332,11.114c0.181,1.186,0.252,2.402,0.565,3.551c1.437,5.271,1.457,5.312,7.292,5.859
		c16.924,1.586,28.731,13.099,30.531,31.107c0.603,6.039,0.27,11.975-2.58,17.557c-0.514,1.006-0.452,2.305-0.654,3.47
		c-2.43,2.659-4.663,5.54-7.333,7.932c-7.317,6.555-15.837,8.332-25.158,5.258c-12.522-4.13-19.942-12.874-22.394-25.79
		c-0.726-3.826-1.144-7.71-1.701-11.565c0.472-0.759,1.236-1.474,1.368-2.29c1.305-8.098,5.185-14.747,11.544-19.785
		C903.656,739.407,904.023,735.633,901.294,731.123z M909.447,793.086c10.273-0.035,19.003-2.906,25.109-8.044
		c1.145-0.964,2.479-1.865,2.66-3.488c0.089-0.805-0.021-1.895-0.509-2.427c-0.498-0.543-1.72-0.965-2.361-0.727
		c-1.661,0.614-3.234,1.529-4.74,2.485c-7.677,4.874-15.924,6.766-24.927,4.969c-0.878-0.175-1.813-0.306-2.688-0.195
		c-1.21,0.154-2.312,0.655-2.664,2.032c-0.355,1.39,0.484,2.296,1.404,3.035C903.496,792.949,906.808,793.147,909.447,793.086z
		 M909.197,761.518c5.814-1.174,11.763-1.968,16.878-5.466c1.458-0.997,3.382-1.311,4.366-3.008c0.65-1.122,0.775-2.274,0.007-3.346
		c-0.711-0.993-1.711-1.956-2.975-1.56c-1.39,0.436-2.603,1.407-3.95,2.018c-7.423,3.367-14.861,6.701-23.194,2.918
		c-0.252-0.114-0.594-0.05-0.893-0.038c-1.229,0.049-2.356,0.302-2.963,1.549c-0.649,1.334,0.115,2.381,0.887,3.231
		C900.55,761.328,905.205,760.151,909.197,761.518z M898.658,769.393c-3.113,0.118-5.282,2.701-4.415,5.257
		c0.891,2.63,3.667,4.166,6.38,3.532c2.385-0.558,3.976-2.977,3.546-5.391C903.77,770.558,901.694,769.278,898.658,769.393z
		 M916.12,768.044c-3.501-0.007-6.098,2.319-5.92,5.301c0.105,1.76,1.605,3.041,3.69,3.151c3.646,0.192,5.862-1.774,5.827-5.166
		C919.699,769.679,917.913,768.048,916.12,768.044z M936.49,767.613c0.091-1.781-1.361-3.482-3.085-3.614
		c-2.779-0.212-5.192,1.918-5.263,4.647c-0.046,1.764,2.177,3.795,4.138,3.781C934.381,772.412,936.359,770.151,936.49,767.613z"/>
	<path fill="#F8DD6F" d="M862.475,544.438c-2.945-6.92-6.009-13.792-8.785-20.778c-1.435-3.612-2.447-7.404-3.456-11.167
		c-0.267-0.994-0.397-2.594,1.161-2.846c0.656-0.106,1.733,0.588,2.174,1.226c3.28,4.745,5.47,10.032,7.616,15.364
		c1.898,4.717,3.522,9.656,7.403,13.292c4.447,10.671,4.512,10.916,15.524,8.012c4.086-1.078,7.639-0.609,11.483,0.464
		c9.682,2.701,20.32,13.87,20.11,27.204c-0.193,12.277-4.89,21.526-15.091,28.11c-16.802,10.846-38.69,1.661-43.489-17.839
		c-2.559-10.396,0.993-18.89,6.364-27.187c4.498-2.785,3.776-6.303,1.409-10.05C864.095,546.971,863.283,545.705,862.475,544.438z
		 M868.374,571.274c6.446,0.01,16.04-3.589,20.695-7.643c1.815-1.581,3.494-3.34,5.082-5.152c1.539-1.756,1.593-3.873,0.337-4.807
		c-1.761-1.31-3.477-0.732-4.975,0.388c-1.688,1.263-3.154,2.817-4.802,4.138c-4.307,3.451-8.925,6.203-14.701,6.221
		c-1.205,0.004-2.419,0.06-3.613,0.211c-1.287,0.163-2.34,0.934-2.682,2.132c-0.48,1.679,0.549,2.928,1.916,3.666
		C866.658,570.982,867.899,571.136,868.374,571.274z M880.081,599.435c9.869-0.933,18.667-4.281,25.605-11.616
		c0.988-1.045,1.645-2.509,2.112-3.895c0.23-0.683-0.117-1.776-0.57-2.426c-0.783-1.124-2.115-1.091-3.239-0.613
		c-0.786,0.334-1.494,1.001-2.068,1.665c-4.733,5.469-10.876,8.314-17.813,9.758c-1.76,0.367-3.538,0.783-5.197,1.453
		c-1.105,0.446-1.877,1.458-1.777,2.847C877.266,598.444,878.531,599.083,880.081,599.435z M873.536,585.82
		c-0.099-2.942-2.338-3.994-4.539-4.958c-1.693-0.742-3.491-0.942-5.034,0.453c-1.343,1.214-1.824,4.098-0.722,5.841
		c0.77,1.218,1.888,2.31,3.07,3.152c1.552,1.106,3.341,1.236,5.042,0.136C873.027,589.361,873.635,587.753,873.536,585.82z
		 M882.377,578.324c-0.152,3.178,1.315,5.211,3.31,5.279c2.402,0.082,3.946-1.261,5.043-3.203c1.134-2.008,0.818-4.244-0.721-5.844
		c-2.07-2.152-5.671-1.668-6.773,0.965C882.775,576.62,882.53,577.81,882.377,578.324z M902.058,572.144
		c2.794-0.222,4.766-2.26,4.411-4.559c-0.37-2.394-2.061-4.192-3.946-4.194c-2.171-0.002-4.412,2.39-4.468,4.771
		C898.006,570.208,900.108,572.299,902.058,572.144z"/>
	<path fill="#F8DD6F" d="M255.209,655.196c1.726-0.86,2.46-2.454,3.257-4.098c1.949-4.022,4.002-7.995,6.108-11.938
		c1.133-2.12,2.532-4.047,4.856-5.096c0.936-0.422,1.737-0.319,2.435,0.323c0.717,0.659,0.867,1.509,0.404,2.406
		c-1.232,2.388-2.524,4.748-3.7,7.164c-2.35,4.828-4.639,9.687-6.955,14.531c-0.387,0.462-0.827,0.889-1.148,1.393
		c-2.753,4.325-2.519,5.463,0.96,8.428c5.743,4.894,8.292,11.397,10.416,18.588c2.656,8.994-4.119,23.177-12.157,28.179
		c-13.809,8.593-30.909,3.562-39.767-7.797c-6.571-8.426-8.572-17.833-5.148-28.146c3.695-11.129,13.492-18.314,25.257-18.537
		c1.51-0.029,3.095-0.204,4.521,0.169C249.868,662.154,253.303,660.207,255.209,655.196z M247.92,714.005
		c0.833-0.085,1.45-0.069,2.021-0.222c1.536-0.411,2.76-1.224,2.925-2.965c0.172-1.811-0.887-2.801-2.515-3.123
		c-3.238-0.641-6.592-0.86-9.73-1.807c-6.347-1.917-12.548-4.128-15.106-11.344c-0.762-2.148-3.95-1.902-5.043,0.173
		c-0.707,1.341-1.275,2.707-0.524,4.258c1.328,2.742,2.969,5.231,5.511,7.008C232.282,710.754,239.983,713.039,247.92,714.005z
		 M258.818,691.421c1.715,0,2.623,0.058,3.52-0.013c1.565-0.125,3.045-0.579,3.322-2.378c0.266-1.729-0.693-2.81-2.35-3.239
		c-1.456-0.377-2.913-0.781-4.394-1.029c-7.605-1.273-13.134-5.456-17.019-11.997c-0.458-0.771-0.944-1.539-1.518-2.224
		c-1.115-1.328-3.76-0.768-4.566,0.876c-1.071,2.185-0.5,4.161,0.888,5.882c3.22,3.99,6.846,7.538,11.122,10.456
		C251.435,690.221,255.208,691.764,258.818,691.421z M243.042,701.434c1.965-0.116,4.365-3.035,4.142-5.04
		c-0.167-1.501-2.216-3.095-3.884-3.022c-1.967,0.087-4.063,2.065-4.176,3.939C239.014,699.137,241.296,701.537,243.042,701.434z
		 M226.474,682.284c-1.825-0.039-3.637,1.77-3.411,3.406c0.271,1.966,2.137,3.403,4.627,3.468c1.68,0.044,2.976-0.68,3.302-2.407
		C231.426,684.451,229.218,682.343,226.474,682.284z M258.932,705.406c1.48,0.083,3.144-1.398,3.213-3.184
		c0.066-1.696-0.882-2.817-2.43-3.166c-1.942-0.437-4.333,1.73-3.99,3.589C256.007,704.173,256.994,705.223,258.932,705.406z"/>
	<path fill="#F8DD6F" d="M860.604,927.375c0.676-6.039-0.215-11.969-1.13-17.916c-0.457-2.973,0.503-4.734,2.316-5.214
		c2.074-0.549,3.901,1.301,4.238,4.641c0.301,2.986,0.343,6.001,0.451,9.005c0.086,2.397-0.125,4.83,1.069,7.056
		c-0.369,6.383,1.901,10.444,8.494,12.754c18.17,6.364,21.784,27.715,13.337,42.228c-8.175,14.046-26.283,19.424-40.83,11.458
		c-10.18-5.575-16.519-19.493-13.797-30.85c2.797-11.674,9.396-19.972,20.984-24.019
		C861.481,934.511,861.433,934.372,860.604,927.375z M863.202,955.916c6.948,0.183,12.693-1.536,18.146-4.233
		c1.448-0.716,1.825-2.357,1.169-3.948c-0.699-1.696-2.016-2.124-3.635-1.376c-8.081,3.735-16.504,2.82-24.925,1.848
		c-0.885-0.102-1.729-0.692-2.602-0.717c-1.251-0.037-2.286,0.539-2.779,1.839c-0.478,1.261-0.253,2.506,0.637,3.328
		c0.837,0.773,1.996,1.434,3.105,1.634C856.177,954.989,860.076,955.465,863.202,955.916z M858.826,980.152
		c-2.093,0-4.19-0.086-6.276,0.027c-1.737,0.094-2.84,2.709-1.706,4.152c0.698,0.888,1.69,1.989,2.678,2.137
		c8.471,1.264,16.717,0.609,24.342-3.714c0.996-0.564,1.849-1.521,2.525-2.469c0.707-0.992,0.933-2.327-0.003-3.259
		c-0.544-0.542-1.623-0.865-2.403-0.776c-1.154,0.131-2.296,0.631-3.374,1.124C869.586,979.672,864.254,980.215,858.826,980.152z
		 M866.418,963.628c-2.675-0.021-3.615,0.231-4.842,1.112c-2.021,1.45-2.759,4.394-1.574,6.279c1.299,2.066,4.044,3.187,6.058,2.474
		c3.302-1.169,5.408-3.792,5.114-6.417c-0.142-1.273-0.932-2.218-2.006-2.711C868.124,963.885,866.92,963.754,866.418,963.628z
		 M851.816,968.876c-0.24-0.461-0.505-1.337-1.057-1.959c-1.447-1.632-3.549-2.15-5.534-2.555c-3.394-0.693-5.924,3.032-4.577,6.52
		c1.213,3.139,3.809,4.417,7.118,3.503C850.185,973.717,851.968,971.467,851.816,968.876z M888.091,966.727
		c0.142-1.845-1.101-3.741-2.656-4.052c-2.771-0.554-5.828,2.13-5.872,5.155c-0.023,1.601,1.553,2.799,3.79,2.882
		C886.293,970.82,887.879,969.486,888.091,966.727z"/>
	<path fill="#F8DD6F" d="M371.859,718.403c2.909-2.708,4.776-6.112,6.599-9.583c1.106-2.107,2.448-4.115,3.885-6.016
		c1.643-2.172,3.267-2.65,4.403-1.561c1.309,1.256,1.014,2.598,0.223,4.043c-1.435,2.621-2.79,5.287-4.141,7.953
		c-1.083,2.136-2.111,4.301-3.16,6.455c-2.208,1.046-3.887,2.372-2.752,5.193c-2.056,0.87-3.3,2.595-4.514,4.333
		c-3.803,5.441-3.977,5.633,0.973,10.456c14.505,14.135,8.273,34.764-2.524,44.216c-12.389,10.845-30.167,9.095-39.299,2.036
		c-11.897-9.198-14.863-25.858-6.248-38.738c0.31,0.261,0.622,0.521,0.934,0.78c-0.476,2.018-1.67,4.384,0.335,5.892
		c2.435,1.833,2.066,3.467,1.464,6.103c-1.126,4.931,1.306,7.323,6.202,7.6c4.52,0.256,7.264-2.199,9.649-5.527
		c0.655-0.914,1.535-2.063,2.805-0.868c0.712,0.67,0.349,1.626-0.049,2.46c-0.518,1.083-1.071,2.162-1.45,3.297
		c-1.305,3.904-0.553,6.614,2.335,8.752c2.435,1.803,5.603,1.16,8.91-1.718c2.466-2.146,3.974-5.355,7.281-6.564l0.224,0.226
		c0.347,1.533,0.096,2.995-0.558,4.395c-0.765,1.638-1.674,3.219-2.31,4.905c-0.611,1.621,0.109,2.943,1.545,3.796
		c1.195,0.709,2.53,0.429,3.27-0.548c2.542-3.356,5.111-6.761,6.484-10.786c0.782-2.295,0.619-4.755-0.278-7.1
		c-1.295-3.385-4.667-5.064-8.045-3.665c-1.625,0.673-2.996,1.956-4.493,2.946c-1.384,0.915-2.048,3.019-4.408,2.57
		c0-0.847-0.263-1.818,0.04-2.557c4.031-9.826-1.152-14.893-10.061-10.824c-1.651,0.754-2.693-0.07-3.199-1.902
		c-2.048-7.411-2.799-7.794-9.788-5.488c-0.858,0.283-1.724,0.543-2.587,0.814c-0.36-0.44-0.748-0.854-1.163-1.242
		c4.715-7.466,12.086-10.312,20.32-11.49c2.346-0.336,4.782,0.015,7.166-0.13c2.595-0.158,5.466,2.222,7.684-0.03
		c2.453-2.49,5.028-5.191,5.01-9.155C369.667,720.89,370.763,719.646,371.859,718.403z"/>
	<path fill="#F8DD6F" d="M532.584,378.429c2.642-5.037,3.67-10.625,5.432-15.961c0.56-1.697,0.89-3.472,1.479-5.158
		c0.761-2.177,2.439-3.294,3.926-2.757c1.823,0.658,1.742,2.254,1.594,3.704c-0.548,5.372-1.835,10.596-3.847,15.59
		c-0.909,2.256-1.546,4.495-1.725,6.893c-1.618,1.594-1.526,3.469-0.894,5.434c0.119,0.855-0.073,2.113,0.414,2.489
		c1.409,1.084,3.004,2.067,4.68,2.637c9.651,3.284,14.196,10.975,16.558,20.005c4.799,18.347-3.719,31.879-17.892,39.271
		c-10.6,5.529-24.791,2.33-33.024-6.913c-5.176-5.811-8.659-12.827-8.718-20.411c-0.107-13.706,5.705-27.769,21.136-33.716
		c2.234-0.861,4.643-1.255,6.933-1.985c2.22-0.707,2.303-2.498,1.979-4.412C532.8,382.208,532.306,380.157,532.584,378.429z
		 M510.757,419.046c0,0,0.021,0.015,0.021,0.015c0.263,2.691,0.151,5.487,0.872,8.049c1.263,4.488,6.294,6.119,10.186,3.505
		c1.48-0.994,2.725-2.34,4.357-3.772c0.695,1.165,1.36,2.108,1.848,3.134c1.057,2.222,2.463,4.154,4.409,5.663
		c2.891,2.243,6.766,1.666,8.577-1.515c1.024-1.798,1.643-3.865,2.208-5.878c0.976-3.476,1.686-7.028,2.721-10.484
		c0.168-0.562,1.413-0.868,2.215-1.105c0.127-0.037,0.751,0.907,0.802,1.431c0.418,4.265-0.316,8.388-1.473,12.494
		c-0.507,1.797,1.063,4.109,2.564,4.176c1.649,0.074,2.971-0.757,3.615-2.228c2.361-5.395,2.838-11.105,2.204-16.867
		c-0.7-6.363-6.461-9.152-12.006-5.828c-1.932,1.158-3.505,2.915-5.369,4.508c-0.635-2.297-1.009-4.376-1.783-6.293
		c-1.359-3.367-4.536-4.567-7.273-2.536c-3.87,2.872-7.734,5.905-7.906,11.442c-0.075,2.397-0.473,4.723-3.076,6.208
		c-0.663-2.275-0.27-4.28,0.587-6.259c1.381-3.188,1.182-6.526,0.635-9.802c-0.663-3.969-4.902-5.801-8.376-3.741
		c-2.408,1.427-4.359,3.456-5.185,6.091c-1.074,3.424-1.763,6.982-2.404,10.521c-0.263,1.453-0.106,3.192,1.638,3.803
		c2.4,0.841,3.036-0.967,3.75-2.721C509.427,420.29,510.196,419.71,510.757,419.046z"/>
	<path fill="#F8DD6F" d="M397.236,908.989c1.482-4.865,3.299-9.658,4.367-14.612c1.648-7.64,5.578-14.567,6.674-22.366
		c0.146-1.041,1.233-2.004,2.026-2.875c0.359-0.395,1.203-0.798,1.579-0.632c0.772,0.339,1.81,0.962,1.962,1.642
		c0.315,1.408,0.454,3.019,0.081,4.388c-1.497,5.495-2.926,11.039-4.933,16.356c-2.239,5.934-3.879,11.944-4.53,18.238
		c-0.166,0.58-0.375,1.152-0.478,1.743c-0.885,5.085-0.981,5.284,2.886,7.276c4.112,2.118,7.474,4.856,10.219,8.627
		c10.377,14.258,5.679,31.967-6.607,40.795c-11.003,7.906-30.178,8.501-40.748-7.42c-11.209-16.883-3.049-36.372,13.089-42.823
		c2.502-1,5.149-2.052,7.782-2.211C394.762,914.864,396.385,912.498,397.236,908.989z M388.199,936.942
		c-1.492-1.463-0.819-3.429-1.418-5.068c-1.688-4.62-5.109-6.075-9.072-3.368c-4.363,2.981-7.262,7.144-8.34,12.401
		c-0.173,0.843-0.115,1.894,0.256,2.639c0.344,0.693,1.197,1.434,1.923,1.55c0.735,0.118,1.925-0.268,2.328-0.844
		c1.351-1.93,1.145-4.688,3.262-6.281c0.719-0.542,1.485-1.061,2.273-0.515c0.354,0.245,0.492,1.12,0.394,1.647
		c-0.496,2.646-1.42,5.249-1.603,7.909c-0.359,5.224,3.948,8.015,9.04,6.027c1.044-0.408,1.834-1.488,3.153-1.117
		c0.68,2.277,1.249,4.601,2.075,6.83c0.845,2.281,2.82,2.935,5.086,2.988c2.278,0.053,4.114-0.926,5.578-2.535
		c3.819-4.196,5.008-9.502,5.83-14.861c0.246-1.604-0.981-2.835-2.801-2.722c-1.128,0.07-2.235,0.489-3.878,0.875
		c-0.682-3.232-0.731-6.68-3.04-9.242c-1.348-1.495-2.846-1.736-4.858-1.24C391.481,932.728,390.893,936.137,388.199,936.942z"/>
	<path fill="#F8DD6F" d="M979.261,896.024c-1.024-6.24-2.019-12.484-3.084-18.717c-0.711-4.162-1.592-8.309-1.013-12.559
		c0.113-0.831,0.446-1.785,1.643-1.816c0.982-0.025,1.712,0.379,2.179,1.224c2.078,3.759,2.825,7.909,3.559,12.068
		c0.992,5.626,1.485,11.357,3.503,16.769c0.262,1.174,0.431,2.38,0.809,3.515c0.729,2.19,2.113,3.574,4.63,3.529
		c8.451-0.154,14.395,4.577,18.89,10.864c9.866,13.799,6.79,31.367-4.977,40.748c-8.165,6.509-19.755,6.818-29.892-1.894
		c-3.487-2.996-5.936-6.738-7.391-11.204c-2.528-7.757-2.541-15.407,0.131-23.105c1.76-5.069,4.984-8.971,9.48-11.757
		C981.122,901.586,981.081,899.044,979.261,896.024z M989.116,949.204c3.64-0.144,8.7-2,13.354-4.949
		c2.279-1.444,4.592-2.942,6.018-5.391c0.776-1.333,1.567-2.697,0.045-3.979c-1.293-1.09-2.86-1.075-4.203-0.216
		c-1.25,0.8-2.162,2.145-3.434,2.888c-5.172,3.023-10.199,6.659-16.814,4.416c-1.58-0.536-2.945,0.111-3.443,1.911
		c-0.453,1.641,0.126,2.918,1.396,3.966C983.545,949.096,985.34,949.199,989.116,949.204z M977.579,920.225
		c9.365-0.476,16.505-3.349,23.141-7.653c0.486-0.315,1.092-0.75,1.223-1.242c0.214-0.802,0.37-1.849,0.018-2.51
		c-0.354-0.666-1.314-1.264-2.087-1.384c-0.799-0.124-1.748,0.242-2.536,0.602c-6.548,2.989-13.139,5.756-20.464,6.276
		c-2.197,0.156-3.434,1.878-3.071,3.576c0.389,1.819,1.826,2.159,3.352,2.324C977.745,920.279,978.349,920.225,977.579,920.225z
		 M982.031,929.158c-3.413,0.072-5.73,0.549-7.335,1.761c-1.32,0.997-1.713,2.49-1.076,4.028c0.747,1.801,3.481,3.537,5.096,3.081
		c3.025-0.855,5.276-2.762,6.404-5.772c0.366-0.977-0.275-1.795-1.02-2.281C983.386,929.509,982.485,929.328,982.031,929.158z
		 M1004.652,921.388c-1.056,0.016-2.568,0.302-3.255,1.857c-0.893,2.022,0.381,3.388,1.779,4.583
		c1.546,1.322,3.256,1.421,4.921,0.275c1.505-1.035,2.914-2.328,2.313-4.378c-0.616-2.101-2.552-2.226-4.371-2.335
		C1005.743,921.372,1005.443,921.388,1004.652,921.388z M994.021,933.245c1.899,0.22,3.931-1.797,4.017-3.986
		c0.077-1.971-1.529-3.525-4.094-3.962c-2.439-0.415-4.335,0.977-4.381,3.217C989.51,931.008,991.324,932.933,994.021,933.245z"/>
	<path fill="#F8DD6F" d="M225.173,838.586c1.507-6.439,3.018-12.876,4.52-19.316c0.683-2.93,1.23-5.922,3.292-8.288
		c0.584-0.671,1.341-1.189,2.364-0.799c0.937,0.357,1.519,1.086,1.472,2.003c-0.107,2.089-0.053,4.279-0.677,6.232
		c-2.313,7.234-3.141,14.692-3.823,22.187c-0.395,1.445-0.869,2.876-1.15,4.345c-0.372,1.95,0.148,3.548,2.124,4.45
		c1.093,0.499,2.129,1.124,3.199,1.675c13.097,6.737,16.955,23.796,7.765,37.485c-4.762,7.093-11.917,11.568-20.329,12.108
		c-15.493,0.995-24.86-8.968-26.575-21.5c-1.529-11.172,5.971-24.041,16.282-28.785c0.818-0.376,1.645-0.934,2.5-1.001
		C222.866,848.853,225.295,844.806,225.173,838.586z M224.328,893.209c1.923-0.091,4.327-0.107,6.709-0.344
		c2.433-0.242,4.614-1.251,6.425-2.906c0.981-0.897,1.107-2.239,0.597-3.302c-0.301-0.627-1.374-0.975-2.169-1.24
		c-0.528-0.176-1.222-0.118-1.767,0.062c-8.382,2.769-16.482,2.3-24.344-1.876c-1.516-0.805-2.953-0.189-3.756,1.325
		c-0.791,1.492-0.302,2.917,0.732,4.121c1.441,1.678,3.518,2.201,5.507,2.865C216.035,893.175,219.988,892.722,224.328,893.209z
		 M226.007,858.768c-3.308-0.183-7.173-0.459-11.044-0.574c-1.203-0.036-2.334,0.518-2.742,1.851
		c-0.512,1.672,0.122,3.118,1.615,3.673c7.858,2.918,15.728,2.954,23.472-0.459c1.141-0.503,1.72-1.707,1.531-2.959
		c-0.194-1.285-1.166-2.152-2.449-2.117C233.115,858.272,229.845,858.539,226.007,858.768z M235.239,872.875
		c-2.485,0.158-4.862,2.394-4.795,4.512c0.089,2.847,2.963,4.737,6.647,4.372c2.417-0.24,3.937-1.957,3.667-4.145
		C240.397,874.68,238.085,872.695,235.239,872.875z M207.085,869.711c-0.265,0.121-0.542,0.222-0.792,0.368
		c-1.737,1.008-2.358,2.579-2.267,4.513c0.103,2.168,1.453,3.112,3.392,3.486c1.8,0.347,3.575,0.534,4.93-1.089
		c0.181-0.216,0.236-0.546,0.322-0.832C213.524,873.326,209.965,869.221,207.085,869.711z M222.376,879.558
		c2.502-0.166,3.744-1.708,3.545-4.234c-0.152-1.924-1.664-3.646-3.191-3.633c-2.039,0.017-4.562,3.776-3.867,5.989
		C219.402,879.398,221.011,879.48,222.376,879.558z"/>
	<path fill="#FFFFFF" d="M333.3,665.245c30.645-15.632,29.475-17.384,39.019-22.487c6.435-3.44,11.946-8.162,17.997-12.121
		c0.752-0.492,1.416-1.124,2.186-1.583c0.852-0.509,1.788-0.408,2.455,0.306c0.99,1.059,0.834,2.324-0.196,3.154
		c-5.152,4.153-10.1,8.649-15.645,12.206c-7.86,5.043-16.146,9.43-24.325,13.963c-9.124,2.356-15.726,8.551-17.957,9.433
		C336.043,666.323,335.151,665.446,333.3,665.245z"/>
	<path fill="#FFFFFF" d="M502.241,1050.115c8.128,1.086,15.52,2.178,22.939,3.042c14.393,1.676,28.819,2.661,43.326,1.798
		c25.35-1.509,50.437-4.904,75.227-10.424c3.531-0.786,6.977-1.954,10.5-2.781c1.665-0.391,3.32-1.555,5.675-0.196
		c0.461,4.78,0.104,9.886-0.706,14.879c-2.562,15.8-4.042,31.702-5.168,47.653c-0.34,4.808-0.531,9.712-1.673,14.356
		c-1.573,6.401-5.852,10.993-11.755,14.025c-9.255,4.753-19.247,7.032-29.405,8.623c-14.971,2.345-30.055,2.711-45.154,1.752
		c-13.585-0.863-26.962-3.041-39.9-7.446c-1.993-0.678-3.964-1.468-5.854-2.393c-2.555-1.25-4.34-3.161-4.805-6.149
		c-0.557-3.579-1.233-7.14-1.9-10.701c-2.609-13.923-5.347-27.823-7.81-41.771C504.415,1066.678,503.503,1058.894,502.241,1050.115z
		"/>
	<path fill="#FFFFFF" d="M537.591,974.814c2.353,17.743,15.763,30.884,33.532,31.997c15.228,0.953,30.898-7.623,35.077-23.812
		c0.448-1.737,0.707-3.523,1.055-5.286c12.019-0.685,24.052-0.987,36.001-2.795c6.551-0.991,13.224-1.237,19.853-1.625
		c3.542-0.207,4.617,0.716,5.841,4.321c4.465,13.146,8.917,26.296,13.315,39.465c1.04,3.114,0.612,4.572-1.885,6.236
		c-2.002,1.333-4.147,2.486-6.328,3.509c-14.567,6.834-29.792,11.551-45.642,14.376c-16.347,2.914-32.759,5.443-49.272,7.037
		c-8.987,0.868-18.111,0.733-27.156,0.475c-19.354-0.551-38.566-2.54-57.375-7.395c-5.542-1.431-11.852-2.452-15.55-6.703
		c-3.449-3.964-0.938-9.92-0.632-14.919c0.903-14.755,2.292-29.481,3.518-44.216c0.33-3.964,0.911-4.255,5.138-4.47
		c7.014-0.355,13.845,1.212,20.689,2.113C517.703,974.431,527.648,974.342,537.591,974.814z"/>
	<path fill="#F8DD6F" d="M525.338,769.035c2.418-8.045,4.83-16.091,7.256-24.134c1.042-3.453,2.113-6.897,3.171-10.345
		c0.477-1.554,1.336-2.714,3.126-2.667c1.559,0.041,2.457,1.841,1.953,4.318c-0.599,2.949-1.391,5.86-2.154,8.774
		c-2.135,8.148-4.298,16.29-6.45,24.433c-1.486,1.643-1.857,3.495-1.041,5.569c-0.369,0.826-0.805,1.629-1.096,2.482
		c-1.991,5.842-2.068,5.959,2.807,9.659c15.886,12.057,16.152,34.566,2.155,47.359c-8.934,8.165-19.571,9.608-30.386,6.109
		c-10.704-3.463-17.454-11.428-19.409-22.928c-2.321-13.649,2.957-25.163,14.665-32.288c4.828-2.938,10.068-3.961,15.536-3.997
		c7.717-0.05,7.718,0.061,7.786-7.83C525.294,772.665,525.323,770.854,525.338,769.035z M519.789,834.813
		c1.62-0.094,5.296,0.423,8.693-1.191c1.461-0.694,2.323-1.851,1.936-3.615c-0.386-1.758-1.52-2.529-3.237-2.261
		c-1.177,0.184-2.297,0.805-3.473,0.917c-10.311,0.987-19.674-1.141-27.374-8.552c-1.93-1.857-3.415-2.106-4.465-0.758
		c-1.322,1.698-0.996,3.33,0.209,4.91c0.363,0.477,0.786,0.91,1.201,1.346C499.97,832.644,508.406,835.056,519.789,834.813z
		 M525.568,801.438c4.141,0.295,6.505-0.044,8.626-1.371c0.748-0.468,1.596-1.11,1.266-2.143c-0.253-0.792-0.714-1.633-1.328-2.172
		c-1.474-1.294-3.376-1.119-5.162-1.055c-6.482,0.231-12.527-1.197-18.16-4.451c-1.812-1.047-3.71-1.99-5.666-2.72
		c-0.669-0.25-1.757,0.101-2.439,0.523c-1.243,0.768-1.076,2.207-0.611,3.235c0.466,1.032,1.347,2.074,2.32,2.649
		C511.469,798.104,518.827,801.452,525.568,801.438z M503.607,807.061c-0.301-2.417-3.213-3.955-6.362-3.36
		c-1.772,0.335-3.049,2.303-2.63,4.053c0.577,2.408,3.003,4.07,5.348,3.665C502.22,811.028,503.858,809.07,503.607,807.061z
		 M519.541,814.936c-0.148-2.538-2.094-4.254-4.768-4.205c-2.582,0.048-4.543,2.273-4.141,4.698c0.33,1.989,2.178,3.196,4.73,3.089
		C518.011,818.407,519.661,816.992,519.541,814.936z M531.71,814.188c-2.393,0.082-4.218,1.675-4.211,3.674
		c0.009,2.466,2.641,4.358,5.799,4.17c1.778-0.106,3.045-1.648,3.042-3.702C536.337,815.672,534.567,814.089,531.71,814.188z"/>
	<path fill="#F8DD6F" d="M744.159,770.921c-0.99-7.974-1.153-16.04-2.775-23.954c-0.314-1.532-0.651-3.697,1.615-4.56
		c1.633-0.622,3.453,0.801,4.143,3.666c1.183,4.915,2.287,9.846,2.551,14.945c0.199,3.843,0.11,7.784,1.874,11.388
		c0.189,1.93,0.202,3.948,2.415,4.879c-2.663,6.104-2.194,7.629,3.595,9.039c4.452,1.084,8.665,2.471,12.505,5.035
		c13.965,9.324,16.596,30.665,5.215,42.968c-4.383,4.738-9.518,7.862-15.914,9.786c-12.31,3.703-28.435-5.605-33.526-17.129
		c-6.241-14.127,0.714-29.152,9.808-35.557c1.724-1.214,3.565-2.287,5.435-3.268c5.942-3.118,5.97-3.092,4.477-9.402
		c-0.206-0.872-0.615-1.696-0.928-2.542C745.036,774.4,745.234,772.601,744.159,770.921z M752.616,812.744
		c0.273-0.038,0.546-0.075,0.82-0.113c0.714,2.847,1.296,5.736,2.173,8.531c1.365,4.349,5.365,7.362,9.306,7.258
		c3.043-0.08,6.077-3.982,6.705-8.647c0.08-0.595,0.169-1.211,0.101-1.8c-0.517-4.469-1.028-8.939-1.656-13.393
		c-0.121-0.859-0.785-1.558-1.829-1.718c-1.43-0.22-2.522,0.614-2.876,1.641c-0.572,1.663-0.791,3.506-0.833,5.281
		c-0.072,3.01,0.178,6.026,0.136,9.038c-0.01,0.708-0.091,1.984-1.516,1.575c-0.928-0.267-1.537-0.932-1.616-1.891
		c-0.171-2.099-0.326-4.203-0.359-6.307c-0.039-2.485-0.756-4.765-1.923-6.904c-1.951-3.577-5.906-4.311-9.211-1.789
		c-2.039,1.556-3.169,3.616-3.349,6.152c-0.192,2.704-0.204,5.423-0.449,8.122c-0.106,1.165-0.472,2.563-1.996,2.487
		c-0.418-0.021-1.011-1.278-1.107-2.022c-0.232-1.788-0.254-3.608-0.292-5.416c-0.046-2.188-0.839-4.14-1.914-5.966
		c-2.09-3.548-6.16-4.207-9.21-1.418c-1.079,0.986-2.204,2.239-2.611,3.582c-1.238,4.086-1.45,8.312-0.32,12.474
		c0.176,0.647,1.303,1.414,2.011,1.435c0.756,0.023,2.014-0.614,2.222-1.238c0.761-2.291,1.176-4.697,1.721-7.06
		c0.837,4.058,2.255,7.624,3.907,11.195c2.191,4.737,8.714,4.23,11.128,0.408c1.306-2.068,2.334-4.201,2.426-6.712
		C752.289,817.264,752.475,815.005,752.616,812.744z"/>
	<path fill="#FFFFFF" d="M852.926,735.347c-9.217-3.183-17.725-7.506-25.507-13.332c-9.157-6.856-19.251-12.442-27.623-20.366
		c-0.429-0.405-0.94-0.909-1.467-0.983c-0.826-0.115-1.816-0.134-2.522,0.227c-1.091,0.559-1.886,1.656-1.612,2.945
		c0.242,1.138,0.764,2.273,1.394,3.262c1.783,2.796,3.699,5.507,5.536,8.269c4.243,6.38,6.876,13.352,7.831,20.975
		c1.444,11.527-2.247,20.672-12.061,27.266c-8.02,5.388-16.925,7.747-26.407,8.234c-6.302,0.324-12.617,0.385-18.922,0.56
		c0.189,1.93,0.202,3.948,2.415,4.879c8.14,1.415,16.266,0.526,24.242-0.875c10.179-1.788,19.765-5.301,27.292-12.908
		c6.726-6.797,9.878-15.114,9.306-24.533c-0.343-5.66-1.579-11.299-3.927-16.6c-0.681-1.538-2.093-2.958-1.376-4.928
		c1.768-0.93,2.736,0.554,3.845,1.335c8.602,6.061,16.884,12.677,26.517,17.049c3.745,1.7,7.189,3.749,10.465,6.091l3.322-6.32
		C853.421,735.515,853.173,735.432,852.926,735.347z"/>
	<path fill="#FFFFFF" d="M744.159,770.921c1.075,1.68,0.877,3.479,0.49,5.295c-13.591-1.382-26.486-5.407-39.092-10.43
		c-22.981-9.157-43.316-22.35-60.666-40.065c-4.03-4.114-7.397-8.727-10.644-13.447c-1.856-2.698-3.692-5.409-5.992-8.781
		c-2.655,3.588-3.893,7.224-5.904,10.368c-2.111,3.301-4.308,6.547-6.445,9.831c-1.479,2.274-2.958,4.55-4.374,6.863
		c-9.535,15.57-23.072,26.989-38.548,36.083c-12.826,7.537-26.947,10.144-41.789,8.347c-0.812-2.076-0.442-3.928,1.045-5.571
		c22.029,2.451,40.098-6.101,56.069-20.314c6.552-5.831,12.606-12.102,17.318-19.624c6.235-9.953,13.612-19.217,17.7-30.438
		c0.588-1.614,1.973-2.994,3.172-4.316c1.455-1.605,3.306-1.346,4.522,0.457c0.337,0.5,0.709,0.99,0.956,1.534
		c9.864,21.794,26.941,36.686,46.664,49.162c16.23,10.267,33.738,17.433,52.229,22.316
		C735.235,769.344,739.725,770.023,744.159,770.921z"/>
	<path fill="#FFFFFF" d="M525.338,769.035c-0.014,1.818-0.043,3.629-2.082,4.514c-19.042-4.943-30.586-17.234-35.111-36.182
		c-2.095-8.772-0.629-17.45,2.344-25.745c2.225-6.207,5.332-12.098,8.046-18.131c1.021-0.716,2.012-1.886,1.029-2.812
		c-1.211-1.141-1.838,0.516-2.536,1.306c-6.72,2.028-12.139,6.471-18.145,9.817c-13.679,7.62-27.357,15.199-42.342,20.082
		c-15.394,5.017-31.159,6.659-47.229,5.306c-4.169-0.351-8.27-1.513-12.399-2.304c-1.131-2.821,0.547-4.148,2.755-5.194
		c17.775,4.583,35.283,2.513,52.571-2.475c14.853-4.285,28.612-11.144,41.812-19.094c11.086-6.677,22.707-12.482,33.134-20.239
		c0.475-0.354,1.037-0.606,1.584-0.845c1.592-0.695,3.746,0.975,3.777,2.752c0.034,1.974-1.034,3.404-2.042,4.894
		c-5.934,8.762-10.822,18.083-14.621,27.949c-3.206,8.328-4.191,16.771-1.863,25.652c3.278,12.501,10.658,21.379,22.142,26.966
		C519.13,766.699,522.274,767.785,525.338,769.035z"/>
	<path fill="#FFFFFF" d="M608.696,971.043c-1.77-1.074-1.771-3.019-2.318-4.698c-1.804-5.532-4.905-10.381-8.727-14.622
		c-5.161-5.728-11.538-9.354-19.503-10.118c-4.991-0.478-5.223-1.206-5.679-7.151c0.901,0.003,1.808-0.061,2.703,0.019
		c14.7,1.312,27.817-3.257,40.189-10.708c2.25-1.355,4.372-3.171,7.658-3.05c1.01,5.374,0.076,10.748-0.458,15.96
		c-0.889,8.687-0.861,17.376-1.227,26.063c-0.334,7.943-0.262,8.078-8.14,8.07C611.695,970.807,610.196,970.961,608.696,971.043z"/>
	<path fill="#FFFFFF" d="M565.31,934.346c0.251,0.864,0.65,1.715,0.728,2.594c0.267,3.005-0.307,3.904-2.967,4.515
		c-1.749,0.403-3.549,0.584-5.327,0.867c-0.027-0.281-0.058-0.565-0.079-0.85c-0.572-7.804,1.177-7.679,6.789-7.146
		C564.738,934.353,565.025,934.34,565.31,934.346z"/>
	<path fill="#F8DD6F" d="M325.302,747.189c0.381-1.893,1.594-3.179,3.096-4.25c0.409,0.386,0.796,0.8,1.155,1.238
		c-1.107,1.263-2.212,2.527-3.317,3.792C325.924,747.71,325.612,747.45,325.302,747.189z"/>
	<path fill="#F8DD6F" d="M482.485,555.838c3.905-4.801,5.056-10.856,7.419-16.357c0.95-2.213,1.606-4.552,2.557-6.765
		c0.958-2.229,2.776-3.265,4.148-2.503c1.994,1.107,1.751,3.024,1.334,4.749c-0.494,2.041-1.277,4.02-2.029,5.99
		c-2.257,5.912-4.56,11.806-6.845,17.707c-1.701,1.431-2.084,3.296-1.776,5.389c-2.379,1.35-2.471,4.03-3.454,6.152
		c-1.246,2.689-0.762,5.205,1.376,7.459c1.44,1.518,2.643,3.278,3.83,5.014c12.413,18.139,3.515,44.668-19.897,50.903
		c-20.855,5.554-43.591-12.626-41.716-34.862c1.294-15.35,12.567-26.763,23.897-29.89c6.241-1.722,12.499-1.379,18.754-0.086
		c1.471,0.304,2.908,0.804,4.39,1.016c1.638,0.235,2.935-0.418,3.544-2.059c0.932-2.512,2.51-4.862,1.993-7.744
		C481.774,559.145,481.859,557.329,482.485,555.838z M471.773,625.968c0.414,0,0.714,0.011,1.013-0.002
		c1.592-0.066,3.044-0.481,3.291-2.308c0.23-1.702-0.884-2.701-2.27-3.474c-2.178-1.216-4.57-1.174-6.954-1.456
		c-10.54-1.245-20.647-3.607-28.218-11.946c-0.591-0.651-1.643-1.029-2.384-0.328c-0.587,0.556-0.989,1.453-1.163,2.266
		c-0.26,1.213,0.166,2.34,1.025,3.285c3.243,3.567,6.798,6.54,11.338,8.567C455.281,624.069,463.757,624.112,471.773,625.968z
		 M481.412,596.065c0.891-0.091,1.803-0.093,2.669-0.296c1.227-0.287,2.228-0.983,2.303-2.363c0.072-1.324-0.824-2.246-1.756-3.006
		c-0.43-0.351-1.121-0.529-1.695-0.533c-9.668-0.076-17.177-4.987-24.313-10.77c-1.636-1.326-3.282-2.655-5.034-3.815
		c-1.067-0.706-2.288-0.572-3.316,0.332c-1.129,0.993-0.799,2.266-0.372,3.328c0.437,1.088,1.128,2.186,1.988,2.973
		C460.285,589.597,469.326,595.989,481.412,596.065z M461.519,600.123c-0.217-2.409-3.284-4.849-5.713-4.544
		c-2.358,0.296-4.748,3.471-4.441,5.901c0.234,1.853,2.51,4.034,4.228,4.051C458.641,605.561,461.753,602.722,461.519,600.123z
		 M441.923,587.528c-2.334-0.064-4.048,0.312-4.877,2.243c-0.745,1.737-0.668,3.479,0.569,4.997
		c1.256,1.541,3.551,1.776,5.725,0.777c1.426-0.655,2.366-1.676,3.01-3.097c1.02-2.249,0.096-4.321-2.216-4.693
		C443.258,587.615,442.365,587.572,441.923,587.528z M482.916,606.054c0.16-1.569-1.446-3.391-3.254-3.692
		c-2.35-0.391-4.604,1.445-4.944,4.028c-0.291,2.205,1.097,4.343,3.1,4.776C480.117,611.663,482.598,609.175,482.916,606.054z"/>
	<path fill="#FFFFFF" d="M475.683,551.376c-10.453-7.454-17.648-17.164-20.369-29.885c-1.916-8.959-1.837-17.943-0.055-26.913
		c0.763-3.839,1.71-7.644,2.38-11.498c0.248-1.427,0.109-2.983-0.157-4.424c-0.333-1.803-2.549-2.919-4.193-2.233
		c-1.107,0.462-2.13,1.119-3.21,1.65c-16.188,7.963-33.284,12.78-51.124,14.801l0.986,5.75c1.495-0.502,3.062-0.854,4.737-1.07
		c14.733-1.903,28.892-5.957,42.488-11.953c1.113-0.491,2.206-0.89,3.705-0.293c0.879,2.522,0.272,5.173-0.445,7.751
		c-1.964,7.068-2.3,14.21-1.61,21.492c1.985,20.947,12.526,35.945,31.194,45.401c1.764-0.806,1.849-2.621,2.475-4.112
		C480.215,554.355,477.89,552.949,475.683,551.376z"/>
	<path fill="#FFFFFF" d="M487.292,564.048c-0.308-2.093,0.076-3.958,1.776-5.389c11.664,5.196,23.533,3.87,35.425,1.054
		c19.367-4.586,31.768-17.672,41.119-34.228c3.849-6.815,7.058-13.99,10.592-20.983c1.498-2.964,3.264-3.111,5.386-0.312
		c2.546,3.359,4.984,6.805,7.353,10.291c12.854,18.918,28.961,34.678,47.288,48.174c8.235,6.064,16.858,11.654,26.79,14.746
		c0.329,2.102,0.556,4.195-0.415,6.206c-13.522-4.831-25.205-12.799-36.311-21.62c-13.489-10.713-25.587-22.878-36.313-36.375
		c-1.495-1.881-2.686-4-4.122-5.93c-1.937-2.603-3.975-5.13-6.546-8.429c-2.124,3.536-3.625,6.373-4.889,9.288
		c-5.759,13.281-14.885,23.975-25.524,33.519c-1.339,1.201-2.765,2.383-4.333,3.24c-17.566,9.59-35.853,13.867-55.552,7.297
		C488.444,564.405,487.867,564.23,487.292,564.048z"/>
	<path fill="#F8DD6F" d="M674.031,402.9c0.522-5.757-1.023-11.361-1.255-17.059c-0.122-2.989-0.169-6,0.071-8.976
		c0.092-1.141,1.244-1.954,2.633-1.938c1.066,0.013,1.651,0.688,1.96,1.541c1.136,3.129,1.752,6.339,1.714,9.705
		c-0.069,6.031,0.613,12,1.901,17.894c-0.028,1.866-0.065,3.735,0.95,5.419c-0.707,2.077-0.363,4.136-0.087,6.251
		c0.441,3.37,2.06,5.191,5.456,6.135c5.321,1.479,9.573,4.817,13.601,8.619c13.868,13.086,11.134,36.583-7.196,46.759
		c-13.307,7.387-31.161,5.023-41.985-9.383c-11.02-14.667-4.24-37.657,13.09-44.721c1.113-0.454,2.305-0.711,3.456-1.074
		c8.294-2.619,8.301-2.622,6.346-11.096c-0.203-0.878-0.562-1.72-0.847-2.577C674.62,406.592,674.244,404.743,674.031,402.9z
		 M680.603,471.684c1.475,0,3.893,0.158,6.283-0.032c5.263-0.418,9.825-2.594,13.696-6.135c0.899-0.822,1.13-2.155,0.615-3.349
		c-0.549-1.272-1.786-1.564-2.986-1.375c-1.16,0.181-2.427,0.453-3.373,1.092c-4.518,3.052-9.551,3.12-14.726,3.065
		c-6.702-0.071-13.103-1.187-19.274-3.881c-1.412-0.617-2.889,0.294-3.753,1.764c-0.956,1.626-0.411,3.048,0.969,3.853
		c2.052,1.197,4.23,2.336,6.502,2.969C669.479,471.028,674.513,471.94,680.603,471.684z M676.141,439.415
		c3.883-0.212,5.691-0.242,7.484-0.424c3.94-0.398,7.617-1.68,11.041-3.635c1.112-0.635,1.593-1.866,1.366-3.085
		c-0.318-1.707-1.703-2.532-3.283-2.434c-1.455,0.09-2.864,0.763-4.316,1.075c-2.334,0.501-4.668,1.113-7.034,1.329
		c-6.093,0.555-12.01-0.057-17.438-3.254c-1.464-0.862-2.913-0.651-3.98,0.712c-1.062,1.356-0.457,3.523,1.199,4.676
		c0.492,0.342,0.991,0.685,1.523,0.957C667.574,437.829,672.598,439.743,676.141,439.415z M658.981,444.021
		c-1.97-0.136-4.059,1.598-4.414,3.664c-0.403,2.349,1.537,5.087,3.737,5.276c2.752,0.236,6.465-2.865,6.227-5.2
		C664.361,446.085,661.563,444.2,658.981,444.021z M700.672,446.862c-0.093-1.921-2.567-3.96-4.404-3.63
		c-2.42,0.434-4.139,2.693-3.991,5.243c0.103,1.779,1.959,3.288,3.748,3.046C698.597,451.173,700.775,448.989,700.672,446.862z
		 M678.215,455.416c2.486,0.145,4.665-1.705,4.817-4.089c0.111-1.736-1.359-3.194-3.364-3.335c-2.761-0.194-4.854,1.536-4.769,3.943
		C674.964,453.746,676.456,455.313,678.215,455.416z"/>
	<path fill="#FFFFFF" d="M759.667,361.135c-4.513-0.64-8.9-1.613-13.206-3.029c-13.059-4.295-24.722-11.128-35.451-19.63
		c-3.186-2.524-6.325-5.097-10.598-6.774c0.62,4.964,3.817,7.542,6.051,10.662c3.157,4.409,6.25,8.901,9.795,12.989
		c6.349,7.32,6.676,15.823,5.649,24.734c-0.574,4.977-2.729,9.203-5.937,12.974c-4.484,5.272-10.182,8.302-16.905,9.82
		c-5.975,1.349-11.998,0.976-18.011,1.185c-0.028,1.866-0.065,3.735,0.95,5.419c5.729,0.538,11.422,0.181,17.048-0.932
		c15.263-3.02,25.665-13.2,28.538-27.7c1.472-7.429-0.415-14.292-3.275-21.025c-0.766-1.803-2.802-3.132-2.15-5.519
		c2.508-1.016,3.931,1.085,5.641,1.949c11.647,5.885,23.735,10.393,36.896,10.757c1.031,0.028,1.957,0.163,2.802,0.391l-1.466-6.138
		C764.016,361.503,761.892,361.451,759.667,361.135z"/>
	<path fill="#FFFFFF" d="M674.031,402.9c0.213,1.843,0.589,3.692-0.193,5.499c-17.986-2.056-33.122-10.445-46.905-21.537
		c-5.609-4.514-10.762-9.627-15.868-14.722c-4.86-4.85-8.294-10.871-12.137-16.36c-1.972,0.566-2.756,1.919-3.62,3.117
		c-7.418,10.283-17.383,17.354-28.646,22.792c-8.922,4.308-18.317,5.699-28.119,4.485c-0.628-1.965-0.72-3.84,0.898-5.434
		c13.304,1.53,24.859-2.837,35.628-10.275c7.274-5.024,13.338-11.253,19.11-17.843c1.747-1.994,2.998-4.578,5.908-5.277
		c2.43,1.199,3.036,3.665,4.112,5.729c3.371,6.465,7.604,12.29,12.715,17.468c9.8,9.929,20.549,18.599,33.113,24.858
		C657.633,399.188,665.473,402.183,674.031,402.9z"/>
	<path fill="#D24D2D" d="M574.607,995.159c-6.755-0.518-13.214-1.877-19.295-4.793c-1.339-0.642-2.615-1.5-3.745-2.463
		c-1-0.853-1.085-2.182-0.565-3.331c0.537-1.188,1.723-1.725,2.965-1.555c1.169,0.16,2.363,0.531,3.419,1.063
		c4.669,2.351,9.719,3.148,14.8,3.978c5.488,0.896,10.807,1.172,15.732-2.048c0.486-0.318,1.173-0.638,1.685-0.538
		c0.832,0.162,1.852,0.475,2.318,1.087c0.465,0.61,0.712,1.82,0.423,2.498c-1.284,3.015-3.822,4.636-6.961,5.076
		C581.813,994.633,578.201,994.83,574.607,995.159z"/>
	<path fill="#D24D2D" d="M567.352,951.102c3.513-0.139,8.375,0.322,12.929-1.855c0.76-0.364,1.799-0.496,2.608-0.305
		c0.763,0.18,1.691,0.792,1.995,1.464c0.306,0.676,0.251,1.922-0.196,2.464c-2.45,2.969-6.05,4.117-9.571,4.556
		c-5.366,0.669-10.832,0.73-16.18-0.595c-0.576-0.143-1.284-0.307-1.627-0.716c-0.541-0.644-1.036-1.47-1.17-2.282
		c-0.222-1.349,0.666-2.547,1.843-2.654C560.656,950.935,563.368,951.102,567.352,951.102z"/>
	<path fill="#D24D2D" d="M557.082,977.362c-1.913,0.216-3.504-0.689-5.067-1.554c-2.292-1.269-2.901-3.288-1.7-5.21
		c1.591-2.547,3.748-3.241,6.004-1.784c1.249,0.807,2.428,1.765,3.492,2.805c0.877,0.856,1.375,2.037,0.775,3.252
		C559.889,976.283,558.696,977.157,557.082,977.362z"/>
	<path fill="#D24D2D" d="M591.401,965.576c2.311,0.014,4.724,2.192,4.856,4.383c0.145,2.396-2.115,4.578-4.567,4.411
		c-2.471-0.168-4.6-2.477-4.352-4.72C587.573,967.529,589.532,965.564,591.401,965.576z"/>
	<path fill="#D24D2D" d="M575.971,977.939c-2.347,0.144-4.124-1.266-4.287-3.401c-0.192-2.516,1.746-4.785,4.078-4.774
		c1.871,0.009,3.658,1.927,3.833,4.117C579.774,976.114,578.27,977.798,575.971,977.939z"/>
	<path fill="#FFFFFF" d="M673.731,636.861c0-2.886-0.046-5.495,0.013-8.102c0.062-2.748,0.622-5.391,1.927-7.851
		c2.305-4.348,7.603-5.484,11.541-2.478c1.998,1.525,3.259,3.541,4.029,5.888c1.539,4.687,1.828,9.476,0.719,14.268
		c-0.258,1.117-1.499,1.992-2.829,1.643c-0.768-0.201-1.718-0.813-2.006-1.487c-0.457-1.069-0.388-2.353-0.612-3.533
		c-0.562-2.961-1.105-5.928-1.788-8.862c-0.194-0.836-0.858-1.795-1.903-1.434c-0.731,0.252-1.445,0.953-1.864,1.638
		c-1.319,2.154-1.279,4.602-1.264,7.032c0.015,2.414,0.106,4.839-0.092,7.238c-0.18,2.18-1.08,4.151-3.254,5.073
		c-2.506,1.062-6.684,0.034-8.302-2.074c-1.885-2.454-2.826-5.281-2.938-8.409c-0.096-2.682,0.411-5.443-0.809-8.001
		c-1.943,0.122-2.439,1.448-2.697,3.032c-0.581,3.566-1.159,7.132-1.809,10.686c-0.475,2.597-1.832,4.533-4.632,4.846
		c-2.675,0.299-4.685-1.037-6.015-3.251c-0.769-1.279-1.094-2.821-1.835-4.122c-1.054-1.85,0.701-5.806-2.34-5.525
		c-2.351,0.217-0.405,3.652-0.73,5.61c-0.278,1.671-1.334,2.672-3.003,2.834c-1.401,0.136-2.472-0.896-2.764-1.953
		c-1.709-6.192-0.972-11.994,3.532-16.895c2.899-3.155,6.688-2.487,9.009,1.214c1.536,2.449,1.048,5.289,1.986,7.86
		c2.274-1.055,2.365-3.367,3.109-5.257c1.297-3.294,3.609-5.487,6.854-6.81c3.669-1.496,6.684,0.019,7.435,3.996
		c0.558,2.956,0.639,6.008,1.282,8.941C671.973,633.951,671.741,635.701,673.731,636.861z"/>
	<path fill="#D24D2D" d="M325.376,540.191c-10.713-1.992-20.305-5.739-27.445-14.238c-0.551-0.656-1.02-1.597-1.044-2.42
		c-0.023-0.773,0.467-1.665,0.978-2.308c0.28-0.352,1.21-0.573,1.607-0.374c1.323,0.661,2.646,1.409,3.773,2.357
		c4.195,3.528,9.043,5.887,14.059,7.901c4.494,1.805,9.097,3.078,14.001,1.384c1.1-0.38,2.364-0.487,3.534-0.415
		c1.583,0.098,2.968,0.923,3.218,2.58c0.244,1.614-0.641,3.14-2.175,3.52C332.406,539.038,328.844,539.549,325.376,540.191z"/>
	<path fill="#D24D2D" d="M343.569,509.336c-9.561-0.544-18.166-3.926-26.297-8.742c-2.946-1.745-5.092-4.211-6.606-7.234
		c-0.815-1.626,0.025-2.929,1.209-3.934c1.117-0.947,2.48-0.525,3.248,0.384c4.648,5.5,10.639,8.619,17.438,10.641
		c3.778,1.123,7.457,2.305,11.467,2.1c1.477-0.076,3.033,0.057,4.444,0.47c1.121,0.328,1.986,1.309,2.124,2.632
		c0.147,1.402-0.739,2.242-1.793,2.857C347.183,509.456,345.372,509.536,343.569,509.336z"/>
	<path fill="#D24D2D" d="M311.08,509.335c0.06,2.785-1.534,3.927-3.605,4.71c-1.505,0.569-2.879,0.415-4.134-0.601
		c-1.651-1.337-1.58-3.07-0.917-4.801c0.8-2.086,3.059-2.84,6.055-2.132C310.095,506.892,310.955,507.962,311.08,509.335z"/>
	<path fill="#D24D2D" d="M344.562,524.077c-0.601,1.54-1.687,2.384-3.373,2.137c-2.761-0.404-4.695-2.613-4.067-4.714
		c0.475-1.587,1.79-2.369,3.371-2.249C342.822,519.43,344.888,522.013,344.562,524.077z"/>
	<path fill="#D24D2D" d="M323.406,522.489c-1.646,0.039-2.941-0.483-3.285-2.27c-0.409-2.126,1.063-4.257,3.135-4.645
		c1.651-0.309,3.691,1.171,3.948,2.866C327.508,520.448,325.811,522.257,323.406,522.489z"/>
	<path fill="#FFFFFF" d="M741.912,984.695c-1.43,2.247-0.53,4.734-0.967,7.035c-0.334,1.759-0.548,3.579-1.177,5.235
		c-1.077,2.839-3.532,4.159-6.378,4.268c-2.802,0.107-4.333-2.022-5.154-4.358c-0.788-2.243-1.099-4.656-1.604-6.997
		c-0.196-0.91-0.594-1.773-1.557-1.876c-1.678-0.18-1.864,1.262-2.014,2.377c-0.239,1.783-0.089,3.624-0.407,5.386
		c-0.129,0.716-0.939,1.551-1.646,1.866c-1.217,0.543-2.372-0.023-3.044-1.147c-0.614-1.026-1.554-2.229-1.442-3.255
		c0.517-4.745,0.763-9.656,5.074-12.993c2.475-1.916,4.903-2.035,7.336,0.109c0.883,0.778,1.493,1.868,2.215,2.825
		c0.536,0.711,1.052,1.437,1.722,2.355c1.515-2.587,2.629-5.289,4.431-7.404c4.164-4.886,8.317-4.111,11.324,1.555
		c1.777,3.349,1.554,6.983,1.999,10.655c2.269-1.326,1.082-3.375,1.476-4.989c0.944-3.864,2.094-7.568,5.607-9.969
		c2.15-1.469,5.012-1.029,6.347,1.144c1.759,2.862,2.977,5.956,2.811,9.386c-0.077,1.593-0.885,2.901-2.628,3.168
		c-1.307,0.2-2.295-0.412-2.871-1.635c-0.35-0.744-0.757-2.12-1.081-2.103c-1.45,0.075-1.826,1.512-2.018,2.607
		c-0.197,1.121,0.031,2.38,0.331,3.51c0.476,1.796,0.656,3.576,0.095,5.34c-0.742,2.331-1.613,4.63-4.517,5.047
		c-2.956,0.424-5.558-0.434-6.994-3.048c-1.286-2.342-1.845-5.073-2.979-7.514C743.221,989.167,744.241,986.373,741.912,984.695z"/>
	<path fill="#D24D2D" d="M794.871,413.599c-0.578-0.134-1.215-0.154-1.722-0.422c-1.406-0.743-2.383-1.899-2.102-3.565
		c0.202-1.198,0.964-2.255,2.243-2.518c2.627-0.539,5.353-0.699,7.914-1.442c6.678-1.937,10.885-7.158,15.31-12.032
		c1.399-1.541,2.59-3.284,4.08-4.723c0.891-0.861,2.255-0.832,3.308-0.087c1.088,0.77,1.171,1.999,0.969,3.232
		c-0.048,0.293-0.094,0.62-0.253,0.855c-6.872,10.186-14.858,18.871-27.955,20.607C796.072,413.583,795.469,413.571,794.871,413.599
		z"/>
	<path fill="#D24D2D" d="M809.003,364.492c-0.084,0.581,0.009,1.274-0.279,1.725c-6.342,9.937-15.437,15.801-26.937,18.034
		c-0.547,0.106-1.297-0.006-1.73-0.322c-0.696-0.508-1.357-1.198-1.729-1.959c-0.176-0.36,0.258-1.128,0.578-1.601
		c1.268-1.87,3.246-2.547,5.313-3.141c6.56-1.887,11.97-5.536,16.387-10.737c1.345-1.584,2.635-3.295,4.848-3.894
		C806.842,362.22,809.057,363.302,809.003,364.492z"/>
	<path fill="#D24D2D" d="M809.658,387.508c-0.21,2.908-2.582,4.796-5.59,4.286c-1.628-0.276-2.694-1.358-2.518-3.101
		c0.292-2.88,2.828-5.285,5.213-5.129C808.297,383.665,809.789,385.697,809.658,387.508z"/>
	<path fill="#D24D2D" d="M815.788,373.463c1.675,0.16,2.905,0.845,3.133,2.535c0.321,2.378-1.56,4.529-4.02,4.756
		c-1.654,0.153-3.044-1.526-2.938-3.547C812.086,374.862,813.568,373.444,815.788,373.463z"/>
	<path fill="#D24D2D" d="M792.281,395.865c0.038,2.609-2.005,5.008-4.157,4.692c-1.6-0.235-2.645-1.359-2.811-2.959
		c-0.205-1.973,1.613-3.787,3.824-4.059C790.733,393.342,792.26,394.473,792.281,395.865z"/>
	<path fill="#D24D2D" d="M909.447,793.086c-2.639,0.061-5.951-0.137-8.717-2.359c-0.92-0.739-1.759-1.645-1.404-3.035
		c0.352-1.377,1.454-1.878,2.664-2.032c0.875-0.111,1.81,0.019,2.688,0.195c9.003,1.797,17.249-0.095,24.927-4.969
		c1.506-0.956,3.079-1.871,4.74-2.485c0.641-0.237,1.863,0.184,2.361,0.727c0.488,0.532,0.598,1.622,0.509,2.427
		c-0.18,1.623-1.515,2.525-2.66,3.488C928.45,790.18,919.721,793.051,909.447,793.086z"/>
	<path fill="#D24D2D" d="M909.197,761.518c-3.992-1.366-8.647-0.19-11.837-3.701c-0.772-0.85-1.536-1.897-0.887-3.231
		c0.607-1.247,1.733-1.5,2.963-1.549c0.299-0.012,0.641-0.076,0.893,0.038c8.332,3.783,15.771,0.449,23.194-2.918
		c1.347-0.611,2.56-1.582,3.95-2.018c1.263-0.396,2.263,0.567,2.975,1.56c0.768,1.072,0.643,2.224-0.007,3.346
		c-0.984,1.698-2.907,2.011-4.366,3.008C920.96,759.55,915.011,760.344,909.197,761.518z"/>
	<path fill="#D24D2D" d="M898.658,769.393c3.036-0.115,5.112,1.165,5.51,3.398c0.43,2.415-1.16,4.834-3.546,5.391
		c-2.713,0.634-5.488-0.903-6.38-3.532C893.376,772.094,895.545,769.512,898.658,769.393z"/>
	<path fill="#D24D2D" d="M916.12,768.044c1.794,0.004,3.58,1.635,3.597,3.286c0.035,3.393-2.181,5.358-5.827,5.166
		c-2.085-0.11-3.584-1.39-3.69-3.151C910.021,770.363,912.619,768.037,916.12,768.044z"/>
	<path fill="#D24D2D" d="M936.49,767.613c-0.13,2.538-2.109,4.8-4.211,4.814c-1.961,0.014-4.184-2.018-4.138-3.781
		c0.071-2.728,2.484-4.858,5.263-4.647C935.128,764.13,936.581,765.831,936.49,767.613z"/>
	<path fill="#D24D2D" d="M868.374,571.274c-0.475-0.138-1.716-0.292-2.741-0.845c-1.367-0.738-2.396-1.987-1.916-3.666
		c0.342-1.199,1.395-1.969,2.682-2.132c1.194-0.152,2.408-0.207,3.613-0.211c5.775-0.018,10.394-2.77,14.701-6.221
		c1.648-1.32,3.115-2.875,4.802-4.138c1.497-1.12,3.214-1.699,4.975-0.388c1.256,0.934,1.201,3.051-0.337,4.807
		c-1.588,1.812-3.267,3.572-5.082,5.152C884.414,567.685,874.82,571.283,868.374,571.274z"/>
	<path fill="#D24D2D" d="M880.081,599.435c-1.549-0.352-2.815-0.991-2.947-2.828c-0.1-1.389,0.672-2.4,1.777-2.847
		c1.658-0.67,3.437-1.086,5.197-1.453c6.937-1.445,13.08-4.289,17.813-9.758c0.575-0.664,1.282-1.331,2.068-1.665
		c1.124-0.478,2.455-0.51,3.239,0.613c0.454,0.651,0.801,1.743,0.57,2.426c-0.467,1.386-1.124,2.85-2.112,3.895
		C898.748,595.154,889.95,598.501,880.081,599.435z"/>
	<path fill="#D24D2D" d="M873.537,585.821c0.099,1.932-0.51,3.54-2.184,4.623c-1.701,1.1-3.49,0.97-5.042-0.136
		c-1.181-0.842-2.299-1.934-3.07-3.152c-1.102-1.743-0.622-4.627,0.722-5.841c1.543-1.394,3.341-1.195,5.034-0.453
		C871.198,581.826,873.437,582.878,873.537,585.821z"/>
	<path fill="#D24D2D" d="M882.377,578.324c0.153-0.514,0.398-1.704,0.859-2.804c1.102-2.633,4.703-3.117,6.773-0.965
		c1.539,1.6,1.855,3.836,0.721,5.844c-1.097,1.943-2.64,3.286-5.043,3.203C883.692,583.535,882.225,581.502,882.377,578.324z"/>
	<path fill="#D24D2D" d="M902.058,572.144c-1.95,0.155-4.052-1.936-4.004-3.982c0.056-2.381,2.297-4.773,4.468-4.771
		c1.885,0.002,3.577,1.8,3.946,4.194C906.823,569.883,904.851,571.922,902.058,572.144z"/>
	<path fill="#D24D2D" d="M247.92,714.005c-7.937-0.967-15.637-3.252-22.46-8.022c-2.542-1.777-4.183-4.266-5.511-7.008
		c-0.751-1.551-0.183-2.917,0.524-4.258c1.094-2.075,4.282-2.321,5.043-0.173c2.558,7.216,8.759,9.427,15.106,11.344
		c3.138,0.948,6.492,1.167,9.73,1.807c1.628,0.322,2.687,1.312,2.515,3.123c-0.166,1.741-1.389,2.554-2.925,2.965
		C249.369,713.937,248.753,713.92,247.92,714.005z"/>
	<path fill="#D24D2D" d="M258.818,691.421c-3.61,0.342-7.384-1.2-10.994-3.665c-4.275-2.919-7.902-6.467-11.122-10.456
		c-1.389-1.721-1.959-3.697-0.888-5.882c0.806-1.644,3.451-2.204,4.566-0.876c0.574,0.684,1.06,1.453,1.518,2.224
		c3.885,6.541,9.413,10.724,17.019,11.997c1.481,0.248,2.937,0.652,4.394,1.029c1.656,0.429,2.616,1.51,2.35,3.239
		c-0.277,1.799-1.756,2.253-3.322,2.378C261.441,691.48,260.534,691.421,258.818,691.421z"/>
	<path fill="#D24D2D" d="M243.042,701.434c-1.746,0.103-4.028-2.298-3.917-4.122c0.113-1.875,2.21-3.852,4.176-3.939
		c1.668-0.074,3.717,1.52,3.884,3.022C247.407,698.4,245.008,701.319,243.042,701.434z"/>
	<path fill="#D24D2D" d="M226.474,682.284c2.744,0.059,4.951,2.167,4.518,4.467c-0.326,1.727-1.622,2.451-3.302,2.407
		c-2.49-0.065-4.356-1.503-4.627-3.468C222.837,684.054,224.649,682.245,226.474,682.284z"/>
	<path fill="#D24D2D" d="M258.932,705.406c-1.938-0.183-2.925-1.234-3.206-2.76c-0.343-1.86,2.047-4.027,3.99-3.589
		c1.548,0.349,2.495,1.47,2.43,3.166C262.076,704.008,260.412,705.489,258.932,705.406z"/>
	<path fill="#D24D2D" d="M863.202,955.916c-3.126-0.451-7.025-0.927-10.883-1.625c-1.109-0.2-2.268-0.861-3.105-1.634
		c-0.89-0.822-1.115-2.067-0.637-3.328c0.493-1.301,1.528-1.876,2.779-1.839c0.873,0.026,1.718,0.616,2.602,0.717
		c8.421,0.971,16.844,1.886,24.925-1.848c1.618-0.748,2.936-0.32,3.635,1.376c0.656,1.591,0.279,3.232-1.169,3.948
		C875.895,954.38,870.15,956.099,863.202,955.916z"/>
	<path fill="#D24D2D" d="M858.826,980.152c5.428,0.063,10.76-0.481,15.783-2.778c1.078-0.493,2.22-0.992,3.374-1.124
		c0.78-0.089,1.859,0.234,2.403,0.776c0.936,0.932,0.71,2.267,0.003,3.259c-0.676,0.948-1.529,1.905-2.525,2.469
		c-7.625,4.322-15.871,4.978-24.342,3.714c-0.988-0.148-1.979-1.248-2.678-2.137c-1.134-1.443-0.032-4.059,1.706-4.152
		C854.636,980.067,856.733,980.152,858.826,980.152z"/>
	<path fill="#D24D2D" d="M866.418,963.628c0.503,0.126,1.706,0.257,2.75,0.736c1.074,0.493,1.864,1.438,2.006,2.711
		c0.294,2.625-1.812,5.248-5.114,6.417c-2.014,0.713-4.76-0.408-6.058-2.474c-1.185-1.885-0.446-4.829,1.574-6.279
		C862.803,963.859,863.743,963.607,866.418,963.628z"/>
	<path fill="#D24D2D" d="M851.816,968.876c0.152,2.591-1.63,4.841-4.049,5.509c-3.309,0.914-5.905-0.364-7.118-3.503
		c-1.348-3.488,1.182-7.213,4.577-6.52c1.985,0.405,4.087,0.923,5.534,2.555C851.31,967.539,851.576,968.414,851.816,968.876z"/>
	<path fill="#D24D2D" d="M888.091,966.727c-0.212,2.76-1.798,4.093-4.739,3.984c-2.237-0.083-3.813-1.281-3.79-2.882
		c0.044-3.025,3.101-5.71,5.872-5.155C886.989,962.986,888.232,964.882,888.091,966.727z"/>
	<path fill="#FFFFFF" d="M326.236,747.969c1.105-1.265,2.211-2.529,3.317-3.792c0.864-0.269,1.73-0.53,2.588-0.813
		c6.99-2.306,7.74-1.924,9.788,5.488c0.506,1.832,1.548,2.656,3.199,1.902c8.909-4.068,14.092,0.998,10.061,10.824
		c-0.303,0.738-0.04,1.709-0.04,2.557c2.359,0.449,3.023-1.655,4.408-2.57c1.497-0.99,2.868-2.273,4.493-2.946
		c3.378-1.399,6.751,0.28,8.045,3.665c0.897,2.346,1.06,4.805,0.278,7.1c-1.372,4.025-3.942,7.429-6.484,10.786
		c-0.74,0.977-2.075,1.257-3.27,0.548c-1.436-0.853-2.156-2.175-1.545-3.796c0.635-1.686,1.544-3.267,2.31-4.905
		c0.654-1.4,0.905-2.862,0.555-4.398c0.716-0.06,0.979-0.38,0.786-0.962c-0.336,0.246-0.671,0.493-1.007,0.739
		c-3.307,1.209-4.815,4.418-7.281,6.564c-3.307,2.878-6.475,3.521-8.91,1.718c-2.888-2.139-3.639-4.848-2.335-8.752
		c0.379-1.134,0.932-2.214,1.45-3.297c0.399-0.834,0.762-1.79,0.049-2.46c-1.271-1.195-2.15-0.047-2.805,0.868
		c-2.386,3.328-5.129,5.784-9.649,5.527c-4.896-0.277-7.328-2.669-6.202-7.6c0.602-2.636,0.971-4.27-1.464-6.103
		C324.566,752.352,325.76,749.987,326.236,747.969z M348.373,758.065l0.284-0.535l-0.49-0.035L348.373,758.065z"/>
	<path fill="#FFFFFF" d="M510.757,419.046c-0.561,0.664-1.33,1.244-1.642,2.01c-0.714,1.755-1.35,3.562-3.75,2.721
		c-1.744-0.611-1.901-2.35-1.638-3.803c0.641-3.539,1.329-7.098,2.404-10.521c0.827-2.635,2.777-4.663,5.185-6.091
		c3.474-2.059,7.713-0.228,8.376,3.741c0.547,3.276,0.746,6.614-0.635,9.802c-0.857,1.979-1.25,3.984-0.587,6.259
		c2.603-1.485,3.001-3.811,3.076-6.208c0.172-5.537,4.036-8.57,7.906-11.442c2.737-2.031,5.914-0.831,7.273,2.536
		c0.774,1.917,1.148,3.996,1.783,6.293c1.864-1.593,3.437-3.35,5.369-4.508c5.546-3.324,11.306-0.534,12.006,5.828
		c0.634,5.762,0.157,11.473-2.204,16.867c-0.644,1.471-1.966,2.302-3.615,2.228c-1.5-0.067-3.07-2.379-2.564-4.176
		c1.158-4.106,1.891-8.229,1.473-12.494c-0.051-0.524-0.676-1.468-0.802-1.431c-0.802,0.237-2.047,0.543-2.215,1.105
		c-1.035,3.456-1.744,7.009-2.721,10.484c-0.565,2.012-1.184,4.08-2.208,5.878c-1.812,3.181-5.686,3.758-8.577,1.515
		c-1.946-1.509-3.352-3.441-4.409-5.663c-0.488-1.027-1.153-1.969-1.848-3.134c-1.632,1.432-2.876,2.778-4.357,3.772
		c-3.892,2.614-8.923,0.983-10.186-3.505c-0.721-2.562-0.609-5.358-0.872-8.049c1.276-0.51,1.667-1.594,1.6-2.806
		c-0.025-0.461-0.549-0.895-0.845-1.341c-0.158,0.223-0.425,0.432-0.454,0.67C510.936,416.733,510.858,417.891,510.757,419.046z
		 M536.282,426.618c-0.332-0.414-0.665-0.829-0.997-1.243c-0.277,0.504-0.749,0.999-0.775,1.515
		c-0.025,0.508,0.397,1.48,0.635,1.484C536.258,428.391,536.233,427.435,536.282,426.618z M537.834,419.95
		c-0.224-0.512-0.448-1.025-0.671-1.537c-0.316,0.421-0.806,0.805-0.908,1.272c-0.16,0.736-0.227,1.701,0.899,1.721
		C537.371,421.411,537.606,420.461,537.834,419.95z"/>
	<path fill="#FFFFFF" d="M388.199,936.942c2.695-0.805,3.283-4.213,6.186-4.929c2.012-0.496,3.51-0.255,4.858,1.24
		c2.309,2.561,2.358,6.01,3.04,9.242c1.643-0.386,2.75-0.805,3.878-0.875c1.82-0.113,3.047,1.118,2.801,2.722
		c-0.822,5.359-2.011,10.665-5.83,14.861c-1.464,1.608-3.299,2.587-5.578,2.535c-2.266-0.052-4.241-0.706-5.086-2.988
		c-0.826-2.229-1.395-4.553-2.075-6.83c-1.32-0.371-2.109,0.71-3.153,1.117c-5.092,1.988-9.399-0.803-9.04-6.027
		c0.183-2.659,1.107-5.262,1.603-7.909c0.099-0.526-0.04-1.402-0.394-1.647c-0.788-0.546-1.554-0.026-2.273,0.515
		c-2.117,1.593-1.911,4.351-3.262,6.281c-0.403,0.576-1.593,0.962-2.328,0.844c-0.726-0.117-1.579-0.858-1.923-1.55
		c-0.371-0.746-0.429-1.797-0.256-2.639c1.078-5.257,3.977-9.419,8.34-12.401c3.963-2.708,7.384-1.253,9.072,3.368
		C387.379,933.513,386.707,935.479,388.199,936.942z M391.896,947.887c0.185-0.136,0.465-0.238,0.531-0.418
		c0.082-0.221,0.086-0.605-0.053-0.749c-0.442-0.462-0.799-0.257-0.84,0.511C391.523,947.443,391.768,947.668,391.896,947.887z"/>
	<path fill="#D24D2D" d="M989.116,949.204c-3.776-0.006-5.572-0.108-7.08-1.354c-1.27-1.048-1.85-2.326-1.396-3.966
		c0.497-1.799,1.863-2.446,3.443-1.911c6.615,2.243,11.642-1.393,16.814-4.416c1.272-0.744,2.184-2.089,3.434-2.888
		c1.343-0.859,2.91-0.874,4.203,0.216c1.522,1.283,0.73,2.647-0.045,3.979c-1.425,2.448-3.738,3.947-6.018,5.391
		C997.816,947.205,992.756,949.061,989.116,949.204z"/>
	<path fill="#D24D2D" d="M977.579,920.225c0.77,0,0.166,0.054-0.425-0.01c-1.525-0.165-2.963-0.505-3.352-2.324
		c-0.363-1.698,0.874-3.42,3.071-3.576c7.325-0.52,13.916-3.287,20.464-6.276c0.788-0.36,1.737-0.726,2.536-0.602
		c0.773,0.12,1.733,0.718,2.087,1.384c0.352,0.661,0.196,1.708-0.018,2.51c-0.131,0.491-0.737,0.926-1.223,1.242
		C994.084,916.876,986.944,919.749,977.579,920.225z"/>
	<path fill="#D24D2D" d="M982.031,929.158c0.454,0.17,1.355,0.351,2.069,0.818c0.745,0.486,1.386,1.304,1.02,2.281
		c-1.128,3.01-3.379,4.917-6.404,5.772c-1.615,0.456-4.35-1.279-5.096-3.081c-0.637-1.538-0.244-3.031,1.076-4.028
		C976.301,929.706,978.618,929.229,982.031,929.158z"/>
	<path fill="#D24D2D" d="M1004.652,921.388c0.791,0,1.091-0.015,1.388,0.002c1.819,0.109,3.754,0.234,4.371,2.335
		c0.601,2.049-0.809,3.342-2.313,4.378c-1.665,1.146-3.375,1.047-4.921-0.275c-1.398-1.196-2.673-2.561-1.779-4.583
		C1002.084,921.69,1003.596,921.404,1004.652,921.388z"/>
	<path fill="#D24D2D" d="M994.021,933.245c-2.697-0.312-4.51-2.236-4.459-4.731c0.047-2.24,1.942-3.632,4.381-3.217
		c2.565,0.437,4.171,1.992,4.094,3.962C997.951,931.448,995.919,933.464,994.021,933.245z"/>
	<path fill="#D24D2D" d="M224.328,893.209c-4.34-0.487-8.293-0.034-12.067-1.294c-1.988-0.664-4.066-1.187-5.507-2.865
		c-1.034-1.205-1.524-2.629-0.732-4.121c0.802-1.513,2.24-2.13,3.756-1.325c7.862,4.176,15.962,4.645,24.344,1.876
		c0.545-0.18,1.239-0.238,1.767-0.062c0.795,0.265,1.868,0.613,2.169,1.24c0.51,1.063,0.385,2.405-0.597,3.302
		c-1.811,1.655-3.992,2.663-6.425,2.906C228.655,893.102,226.25,893.118,224.328,893.209z"/>
	<path fill="#D24D2D" d="M226.007,858.768c3.838-0.23,7.109-0.497,10.384-0.585c1.283-0.035,2.255,0.833,2.449,2.117
		c0.189,1.252-0.39,2.456-1.531,2.959c-7.744,3.413-15.615,3.377-23.472,0.459c-1.493-0.554-2.128-2.001-1.615-3.673
		c0.408-1.333,1.539-1.887,2.742-1.851C218.833,858.309,222.699,858.585,226.007,858.768z"/>
	<path fill="#D24D2D" d="M235.239,872.875c2.846-0.18,5.158,1.805,5.519,4.738c0.269,2.188-1.25,3.905-3.667,4.145
		c-3.683,0.366-6.557-1.525-6.647-4.372C230.377,875.269,232.754,873.033,235.239,872.875z"/>
	<path fill="#D24D2D" d="M207.085,869.711c2.88-0.49,6.439,3.615,5.585,6.446c-0.086,0.286-0.141,0.615-0.322,0.832
		c-1.355,1.623-3.13,1.436-4.93,1.089c-1.939-0.373-3.289-1.318-3.392-3.486c-0.092-1.934,0.529-3.505,2.267-4.513
		C206.543,869.933,206.82,869.832,207.085,869.711z"/>
	<path fill="#D24D2D" d="M222.376,879.558c-1.365-0.078-2.973-0.16-3.513-1.878c-0.695-2.212,1.828-5.971,3.867-5.989
		c1.527-0.013,3.04,1.708,3.191,3.633C226.12,877.85,224.878,879.392,222.376,879.558z"/>
	<path fill="#D24D2D" d="M519.789,834.813c-11.383,0.243-19.819-2.169-26.511-9.203c-0.414-0.436-0.838-0.869-1.201-1.346
		c-1.205-1.58-1.531-3.212-0.209-4.91c1.049-1.348,2.535-1.099,4.465,0.758c7.7,7.411,17.063,9.539,27.374,8.552
		c1.176-0.112,2.296-0.733,3.473-0.917c1.717-0.268,2.852,0.503,3.237,2.261c0.387,1.764-0.475,2.92-1.936,3.615
		C525.085,835.237,521.409,834.719,519.789,834.813z"/>
	<path fill="#D24D2D" d="M525.568,801.438c-6.741,0.013-14.099-3.334-21.154-7.506c-0.973-0.575-1.854-1.617-2.32-2.649
		c-0.464-1.029-0.632-2.467,0.611-3.235c0.683-0.422,1.77-0.772,2.439-0.523c1.956,0.73,3.854,1.673,5.666,2.72
		c5.633,3.254,11.677,4.681,18.16,4.451c1.786-0.063,3.688-0.238,5.162,1.055c0.614,0.539,1.075,1.38,1.328,2.172
		c0.329,1.034-0.519,1.675-1.266,2.143C532.073,801.394,529.709,801.734,525.568,801.438z"/>
	<path fill="#D24D2D" d="M503.607,807.061c0.25,2.009-1.387,3.967-3.644,4.357c-2.345,0.406-4.771-1.256-5.348-3.665
		c-0.42-1.75,0.857-3.719,2.63-4.053C500.394,803.106,503.306,804.644,503.607,807.061z"/>
	<path fill="#D24D2D" d="M519.541,814.936c0.12,2.057-1.53,3.472-4.179,3.582c-2.551,0.107-4.4-1.1-4.73-3.089
		c-0.403-2.426,1.558-4.651,4.141-4.698C517.447,810.681,519.393,812.397,519.541,814.936z"/>
	<path fill="#D24D2D" d="M531.71,814.188c2.857-0.098,4.626,1.484,4.63,4.142c0.003,2.054-1.264,3.596-3.042,3.702
		c-3.158,0.189-5.79-1.703-5.799-4.17C527.492,815.862,529.317,814.27,531.71,814.188z"/>
	<path fill="#FFFFFF" d="M752.616,812.744c-0.14,2.261-0.327,4.521-0.409,6.784c-0.092,2.512-1.12,4.644-2.426,6.712
		c-2.414,3.823-8.938,4.329-11.128-0.408c-1.652-3.571-3.069-7.137-3.907-11.195c-0.545,2.363-0.96,4.768-1.721,7.06
		c-0.207,0.625-1.465,1.261-2.222,1.238c-0.708-0.021-1.835-0.788-2.011-1.435c-1.13-4.161-0.918-8.388,0.32-12.474
		c0.407-1.343,1.532-2.596,2.611-3.582c3.05-2.789,7.12-2.13,9.21,1.418c1.076,1.826,1.868,3.778,1.914,5.966
		c0.038,1.808,0.06,3.628,0.292,5.416c0.096,0.744,0.69,2.001,1.107,2.022c1.524,0.076,1.89-1.322,1.996-2.487
		c0.246-2.698,0.258-5.417,0.449-8.122c0.18-2.536,1.31-4.596,3.349-6.152c3.305-2.521,7.26-1.788,9.211,1.789
		c1.166,2.139,1.883,4.418,1.923,6.904c0.033,2.104,0.187,4.208,0.359,6.307c0.078,0.959,0.687,1.624,1.616,1.891
		c1.425,0.409,1.506-0.867,1.516-1.575c0.042-3.012-0.208-6.028-0.136-9.038c0.042-1.775,0.261-3.618,0.833-5.281
		c0.353-1.027,1.446-1.861,2.876-1.641c1.044,0.161,1.708,0.86,1.829,1.718c0.628,4.454,1.139,8.924,1.656,13.393
		c0.068,0.589-0.021,1.205-0.101,1.8c-0.628,4.665-3.662,8.567-6.705,8.647c-3.941,0.104-7.941-2.909-9.306-7.258
		c-0.877-2.796-1.459-5.684-2.173-8.531C753.162,812.669,752.889,812.706,752.616,812.744z"/>
	<path fill="#279989" d="M497.027,691.986c0.697-0.791,1.325-2.447,2.536-1.306c0.984,0.926-0.008,2.096-1.029,2.812
		C498.032,692.991,497.529,692.489,497.027,691.986z"/>
	<path fill="#D24D2D" d="M471.773,625.968c-8.016-1.856-16.492-1.899-24.324-5.396c-4.54-2.027-8.096-5-11.338-8.567
		c-0.859-0.945-1.285-2.072-1.025-3.285c0.174-0.812,0.576-1.71,1.163-2.266c0.741-0.702,1.794-0.323,2.384,0.328
		c7.571,8.339,17.678,10.701,28.218,11.946c2.384,0.282,4.776,0.24,6.954,1.456c1.386,0.774,2.5,1.772,2.27,3.474
		c-0.246,1.826-1.698,2.242-3.291,2.308C472.487,625.979,472.187,625.968,471.773,625.968z"/>
	<path fill="#D24D2D" d="M481.412,596.065c-12.086-0.075-21.127-6.467-29.527-14.15c-0.86-0.787-1.551-1.885-1.988-2.973
		c-0.427-1.062-0.757-2.335,0.372-3.328c1.028-0.904,2.249-1.039,3.316-0.332c1.752,1.16,3.398,2.489,5.034,3.815
		c7.136,5.783,14.645,10.694,24.313,10.77c0.574,0.005,1.265,0.183,1.695,0.533c0.933,0.76,1.828,1.682,1.756,3.006
		c-0.075,1.38-1.076,2.076-2.303,2.363C483.215,595.971,482.303,595.973,481.412,596.065z"/>
	<path fill="#D24D2D" d="M461.519,600.123c0.234,2.599-2.877,5.438-5.927,5.408c-1.718-0.017-3.994-2.198-4.228-4.051
		c-0.306-2.43,2.084-5.605,4.441-5.901C458.234,595.274,461.302,597.714,461.519,600.123z"/>
	<path fill="#D24D2D" d="M441.923,587.528c0.442,0.044,1.335,0.087,2.212,0.228c2.312,0.372,3.235,2.444,2.216,4.693
		c-0.644,1.421-1.584,2.442-3.01,3.097c-2.174,0.999-4.469,0.764-5.725-0.777c-1.237-1.519-1.315-3.26-0.569-4.997
		C437.875,587.84,439.588,587.464,441.923,587.528z"/>
	<path fill="#D24D2D" d="M482.916,606.054c-0.318,3.121-2.799,5.609-5.098,5.112c-2.003-0.433-3.391-2.571-3.1-4.776
		c0.341-2.583,2.594-4.419,4.944-4.028C481.471,602.663,483.076,604.485,482.916,606.054z"/>
	<path fill="#D24D2D" d="M680.603,471.684c-6.09,0.256-11.124-0.657-16.047-2.029c-2.272-0.633-4.45-1.772-6.502-2.969
		c-1.38-0.805-1.925-2.226-0.969-3.853c0.864-1.47,2.341-2.38,3.753-1.764c6.17,2.694,12.572,3.81,19.274,3.881
		c5.175,0.055,10.208-0.014,14.726-3.065c0.946-0.639,2.213-0.911,3.373-1.092c1.2-0.188,2.437,0.103,2.986,1.375
		c0.515,1.194,0.284,2.527-0.615,3.349c-3.87,3.541-8.432,5.717-13.696,6.135C684.496,471.842,682.078,471.684,680.603,471.684z"/>
	<path fill="#D24D2D" d="M676.141,439.415c-3.543,0.328-8.566-1.586-13.438-4.082c-0.532-0.272-1.031-0.615-1.523-0.957
		c-1.656-1.153-2.261-3.321-1.199-4.676c1.067-1.362,2.516-1.574,3.98-0.712c5.427,3.197,11.345,3.809,17.438,3.254
		c2.366-0.216,4.701-0.828,7.034-1.329c1.452-0.312,2.862-0.985,4.316-1.075c1.58-0.098,2.965,0.727,3.283,2.434
		c0.227,1.219-0.254,2.45-1.366,3.085c-3.423,1.955-7.101,3.237-11.041,3.635C681.832,439.172,680.024,439.202,676.141,439.415z"/>
	<path fill="#D24D2D" d="M658.981,444.021c2.582,0.179,5.379,2.064,5.55,3.739c0.238,2.336-3.475,5.436-6.227,5.2
		c-2.201-0.189-4.141-2.927-3.737-5.276C654.922,445.619,657.011,443.885,658.981,444.021z"/>
	<path fill="#D24D2D" d="M700.672,446.862c0.103,2.127-2.075,4.311-4.647,4.659c-1.789,0.242-3.645-1.267-3.748-3.046
		c-0.148-2.55,1.571-4.808,3.991-5.243C698.105,442.902,700.579,444.941,700.672,446.862z"/>
	<path fill="#D24D2D" d="M678.215,455.416c-1.759-0.103-3.251-1.67-3.315-3.482c-0.085-2.407,2.008-4.137,4.769-3.943
		c2.004,0.141,3.474,1.599,3.364,3.335C682.88,453.711,680.7,455.561,678.215,455.416z"/>
	<polygon fill="#F8DD6F" points="348.373,758.065 348.167,757.494 348.657,757.529 	"/>
	<path fill="#F8DD6F" d="M363.717,767.396c0.336-0.247,0.671-0.493,1.007-0.739c0.193,0.582-0.07,0.902-0.786,0.962
		C363.941,767.622,363.717,767.396,363.717,767.396z"/>
	<path fill="#F8DD6F" d="M536.282,426.619c-0.049,0.816-0.024,1.772-1.137,1.755c-0.238-0.004-0.66-0.976-0.635-1.484
		c0.025-0.516,0.498-1.011,0.775-1.515C535.617,425.789,535.95,426.204,536.282,426.619z"/>
	<path fill="#F8DD6F" d="M537.833,419.951c-0.227,0.51-0.462,1.46-0.68,1.456c-1.127-0.021-1.06-0.985-0.899-1.721
		c0.102-0.468,0.592-0.851,0.908-1.272C537.386,418.926,537.61,419.438,537.833,419.951z"/>
	<path fill="#F8DD6F" d="M510.757,419.046c0.101-1.155,0.179-2.312,0.321-3.462c0.029-0.238,0.297-0.447,0.454-0.67
		c0.296,0.446,0.819,0.88,0.845,1.341c0.067,1.212-0.323,2.296-1.6,2.806C510.778,419.061,510.757,419.046,510.757,419.046z"/>
	<path fill="#F8DD6F" d="M391.896,947.887c-0.128-0.219-0.373-0.444-0.362-0.656c0.04-0.768,0.397-0.973,0.84-0.511
		c0.139,0.145,0.134,0.528,0.053,0.749C392.361,947.65,392.081,947.751,391.896,947.887z"/>
</g>
</svg>
