<?xml version="1.0" encoding="utf-8"?>
<!-- Generator: Adobe Illustrator 27.0.0, SVG Export Plug-In . SVG Version: 6.00 Build 0)  -->
<svg version="1.1" id="Capa_1" xmlns="http://www.w3.org/2000/svg" xmlns:xlink="http://www.w3.org/1999/xlink" x="0px" y="0px"
	 viewBox="0 0 1200 1200" enable-background="new 0 0 1200 1200" xml:space="preserve">
<g id="Design_03">
	<path fill="#FFFFFF" d="M797.404,924.008c-2.235,2.888-5.069,5.247-7.898,7.556c-6.437,5.255-12.975,10.388-19.608,15.395
		c-21.097,15.925-44.142,30.965-70.293,34.816c-17.029,2.508-34.766,0.004-50.436-7.118c-6.839-3.109-13.519-7.3-17.511-13.664
		c-3.992-6.364-4.611-15.3,0.18-21.086c1.852-2.237,4.334-3.846,6.775-5.42c15.474-9.977,30.963-19.963,47.081-28.864
		c15.082-8.33,30.815-15.741,47.519-19.964c14.93-3.775,30.378-4.941,45.735-6.093c5.079-0.381,10.315-0.744,15.152,0.853
		C810.157,885.721,805.41,913.661,797.404,924.008z"/>
	<path fill="#FFFFFF" d="M392.394,168.634c12.178-6.974,24.085-14.442,36.85-20.353c0.303-0.14,0.578-0.339,0.88-0.481
		c1.876-0.884,3.639-1.919,3.306-4.383c-0.18-1.329-2.933-1.732-5.273-0.595c-5.41,2.629-10.885,5.163-16.1,8.144
		c-8.401,4.803-16.775,9.653-25.146,14.506l1.998,5.772C389.326,170.419,390.367,169.795,392.394,168.634z"/>
	<path fill="#FFFFFF" d="M309.616,785.075c6.456,7.575,14.801,12.419,23.664,16.529c3.329,1.544,6.628,3.168,10.035,4.518
		c0.611,0.242,2.125-0.477,2.425-1.122c0.331-0.712,0.081-2.265-0.499-2.737c-4.151-3.382-8.669-6.29-13.678-8.187
		c-4.802-1.818-8.983-4.536-12.642-7.989c-2.856-2.695-5.667-5.425-8.424-8.197l-3.55,4.818
		C307.914,783.405,308.852,784.179,309.616,785.075z"/>
	<path fill="#FFFFFF" d="M378.964,912.135l1.256,8.539c0.891-0.903,2.21-1.081,3.864-0.48c6.282,2.286,12.529,4.666,18.818,6.935
		c30.265,10.918,61.345,18.639,93.085,23.816c17.501,2.855,35.017,5.506,52.763,6.284c2.002,0.088,4.018,0.261,5.985,0.626
		c0.314,0.058,0.601,0.133,0.873,0.218l0.149-5.885c-44.846-2.484-88.794-10.611-131.747-23.817
		C408.704,923.667,393.654,918.314,378.964,912.135z"/>
	<path fill="#FFFFFF" d="M780.555,781.906c-19.483,8.067-39.59,14.032-60.283,18.245c-9.157,1.864-18.269,3.91-27.523,5.232
		c-1.516,0.217-2.584-0.655-2.45-2.305c0.998-12.28,2.197-24.552,4.21-36.702c2.686-16.215,3.8-32.539,4.428-48.927
		c0.693-18.102-1.3-36.059-2.438-54.079c-1.057-16.736-3.317-33.269-5.928-49.783c-3.666-23.183-10.704-45.527-17.313-67.964
		c-1.596-5.419-4.043-10.594-6.24-15.823c-0.466-1.11-1.546-1.963-2.401-3.005c-16.149,25.399-51.749,32.648-73.074,9.717
		c-0.51,0.476-1.02,0.952-1.531,1.428c3.249,10.472,7.56,20.611,9.851,31.386c0.278,1.306,0.71,2.579,1.07,3.867
		c1.402,5.024,0.432,10.27,2.323,15.443c1.78,4.868,1.301,10.545,1.949,15.85c0.645,5.279,1.335,10.559,2.222,15.802
		c1.266,7.48,2.947,14.897,2.259,22.575c-0.337,3.761,2.171,6.834,2.446,10.617c1.665,22.926,3.795,45.819,2.739,68.854
		c-0.122,2.65,0.271,5.32,0.269,7.98c-0.021,21.353-1.788,42.549-5.859,63.529c-0.317,1.634-0.722,3.269-1.27,4.839
		c-4.134,11.848-3.823,11.095-15.448,10.297c-18.381-1.261-36.495-4.144-54.6-7.266c-1.09-0.188-1.998,0.181-2.362,1.114
		c-0.169,0.432,0.293,1.287,0.702,1.741c3.038,3.372,6.85,4.961,11.384,5.486c11.624,1.346,23.222,2.926,34.817,4.517
		c3.905,0.536,7.767,1.385,11.854,2.128c-2.034,16.48-2.05,32.346,2.133,47.994c-1.89,1.977-4.365,1.384-6.543,1.49
		c-10.419,0.507-20.683-0.918-30.889-2.856c-2.959-0.562-5.909-1.184-8.885-1.63c-0.492-0.074-1.386,0.505-1.572,0.984
		c-0.19,0.49,0.088,1.373,0.465,1.835c2.018,2.472,4.96,3.408,7.88,3.899c11.855,1.992,23.692,4.123,35.847,2.836
		c4.972-0.526,10.034-0.47,15.045-0.318c19.49,0.59,38.848-1.271,57.947-4.587c31.307-5.436,62.073-13.121,91.242-26.228
		c13.404-6.024,26.957-11.699,39.967-18.587c14.521-7.688,28.542-16.085,41.013-26.884c1.005-0.87,2.085-1.655,3.173-2.429
		l-5.664-5.978c-0.231,0.416-0.555,0.777-0.94,1.025c-6.248,4.024-9.17,11.414-15.808,15.071
		c-6.426,3.539-12.418,7.879-18.898,11.305c-32.255,17.051-65.628,31.342-101.154,40.178c-1.613,0.401-3.269,0.715-4.923,0.833
		c-1.484,0.106-2.575-0.602-2.38-2.318c0.791-6.967,1.731-13.92,2.401-20.898c0.509-5.307,0.829-10.642,0.958-15.971
		c0.061-2.507,1.253-3.636,3.403-4.146c7.799-1.851,15.569-3.851,23.417-5.467c22.971-4.729,45.172-11.807,66.637-21.246
		c11.418-5.021,21.434-12.206,31.118-19.918c1.016-0.808,1.699-2.107,3.697-1.931c0.423,0.393,0.807,0.813,1.172,1.247
		l-1.185-10.074c-0.016,0.016-0.031,0.032-0.047,0.049C810.765,766.277,796.46,775.321,780.555,781.906z M689.125,825.118
		c-0.555,7.326-1.521,14.628-2.526,21.91c-0.315,2.281-1.391,4.447-1.962,6.705c-0.666,2.633-2.41,3.773-4.944,4.226
		c-5.592,1-11.14,2.266-16.75,3.143c-18.858,2.95-37.849,4.415-56.928,4.73c-0.967,0.016-1.941-0.373-3.547-0.704
		c-3.894-12.133-3.873-24.167-3.734-36.21c0.019-1.67,0.13-3.351,0.355-5.006c0.858-6.312,2.325-7.459,8.437-7.078
		c21.359,1.33,42.665,0.727,63.909-1.894c2.324-0.287,4.659-0.493,6.993-0.692c3.274-0.279,6.552-0.516,9.828-0.772
		C690.73,817.182,689.417,821.262,689.125,825.118z"/>
	<path fill="#D1372D" d="M796.074,100.316c-0.39-2.967-0.781-5.934-1.164-8.881c0.563-1.044,0.44-1.969-0.554-2.716
		c-0.348-5.67-0.832-11.335-1.005-17.011c-0.165-5.424,1.105-10.698,3.263-15.599c2.951-6.703,9.592-7.655,14.568-2.339
		c3.277,3.502,5.142,7.835,6.315,12.389c1.997,7.748,4.323,15.436,4.669,23.537c0.109,2.55-0.125,5.416,2.485,7.248
		c2.68-2.366,3.275-5.744,4.386-8.853c3.281-9.184,7.738-17.775,13.258-25.79c2.651-3.849,5.533-7.595,9.485-10.248
		c6.591-4.424,13.838-1.438,14.964,6.444c1.112,7.783-1.088,15.22-3.759,22.439c-1.152,3.112-2.899,6.001-4.317,9.019
		c-3.979,8.467-7.948,16.939-11.87,25.433c-0.685,1.483-1.467,3.038-0.242,5.42c1.916,0,4.201-0.149,6.461,0.024
		c14.245,1.089,23.258,8.914,28.227,21.984c1.218,3.204,1.655,6.467,1.357,9.824c-0.528,5.94-3.201,10.12-9.53,11.096
		c-4.225,0.449-7.366-1.594-10.138-4.475c-1.496-3.345-2.953-6.708-4.502-10.028c-1.145-2.454-2.718-4.665-5.091-6.02
		c-1.395-0.797-3.09-1.574-4.626-1.53c-6.136,0.177-11.493,5.085-12.287,11.096c-0.304,2.303-0.424,4.679-0.233,6.988
		c0.66,7.955,8.13,13.013,15.735,10.631c2.851-0.893,5.559-2.24,8.332-3.381c5.951-0.274,9.294,3.522,12.282,7.872
		c1.764,12.006-3.005,19.878-17.947,20.726c-3.02,0.171-5.994,0.34-8.985-0.015c-2.124-0.252-3.952,0.042-5.264,1.981
		c-4.181,6.175-6.185,4.228,0.349,10.101c7.294,6.555,13.58,13.804,18.545,22.219c3.812,6.461,5.108,13.022,0.659,19.814
		c-1.088,1.662-1.645,3.676-2.76,5.315c-5.056,7.44-9.112,15.662-16.465,21.337c-1.718,1.326-2.17,3.255-2.385,5.317
		c-2.472,23.733-9.316,46.432-16.672,68.971c-4.345,13.313-9.372,26.397-14.332,39.504c-3.525,9.315-7.91,18.282-11.138,27.622
		c-3.392,9.812-10.056,17.864-13.207,27.68c-0.592,1.843-1.966,3.5-3.209,5.059c-7.727,9.691-12.87,20.974-19.484,31.346
		c-1.538,2.412-0.964,4.236,0.124,6.452c3.351,6.826,6.508,13.748,9.834,20.587c2.468,5.076,5.29,9.989,7.589,15.137
		c5.281,11.825,10.991,23.439,16.587,35.11c4.125,8.604,6.502,18.087,9.253,27.3c3.989,13.36,6.682,27.059,10.901,40.397
		c2.565,8.108,4.246,16.727,4.016,25.459c-0.21,7.98,1.014,15.859,2.085,23.708c0.991,7.265,1.292,14.55,1.935,21.824
		c1.309,14.82,2.571,29.614,1.735,44.513c-0.07,1.244,0.515,2.582,1.01,3.788c1.353,3.295,0.107,5.384-2.332,7.839
		c-12.218,12.295-26.523,21.339-42.428,27.924c-19.483,8.067-39.59,14.032-60.283,18.245c-9.157,1.864-18.269,3.91-27.523,5.232
		c-1.516,0.217-2.584-0.655-2.45-2.305c0.998-12.28,2.197-24.552,4.21-36.702c2.686-16.215,3.8-32.539,4.428-48.926
		c0.693-18.102-1.3-36.059-2.438-54.079c-1.057-16.736-3.317-33.269-5.928-49.783c-3.666-23.183-10.704-45.527-17.313-67.963
		c-1.596-5.419-4.043-10.594-6.24-15.823c-0.466-1.11-1.546-1.963-2.401-3.005c-16.149,25.398-51.749,32.648-73.074,9.717
		c-0.471-0.353-1.185-1.109-1.372-0.995c-1.068,0.648-0.808,1.56-0.158,2.422c3.249,10.472,7.56,20.611,9.851,31.386
		c0.278,1.306,0.71,2.579,1.07,3.867c1.402,5.024,0.432,10.27,2.324,15.443c1.78,4.868,1.301,10.545,1.949,15.85
		c0.645,5.279,1.335,10.559,2.222,15.802c1.267,7.48,2.948,14.897,2.259,22.576c-0.337,3.761,2.171,6.834,2.446,10.617
		c1.665,22.926,3.795,45.819,2.739,68.853c-0.122,2.65,0.271,5.32,0.269,7.98c-0.021,21.353-1.788,42.549-5.859,63.529
		c-0.317,1.634-0.722,3.269-1.27,4.839c-4.134,11.848-3.823,11.095-15.448,10.297c-18.381-1.261-36.495-4.144-54.6-7.266
		c-1.09-0.188-1.998,0.181-2.362,1.114c-0.169,0.432,0.293,1.287,0.702,1.741c3.038,3.372,6.85,4.961,11.384,5.486
		c11.624,1.346,23.222,2.926,34.817,4.517c3.905,0.536,7.767,1.385,11.854,2.128c-2.034,16.48-2.05,32.346,2.133,47.994
		c-1.891,1.977-4.365,1.384-6.543,1.49c-10.419,0.507-20.683-0.918-30.889-2.856c-2.959-0.562-5.909-1.184-8.885-1.63
		c-0.492-0.074-1.386,0.505-1.572,0.984c-0.19,0.49,0.088,1.373,0.465,1.836c2.018,2.472,4.96,3.408,7.88,3.899
		c11.855,1.992,23.692,4.123,35.847,2.836c4.972-0.527,10.035-0.47,15.045-0.318c19.49,0.59,38.848-1.271,57.946-4.587
		c31.307-5.436,62.073-13.121,91.242-26.228c13.404-6.023,26.957-11.699,39.967-18.587c14.521-7.688,28.542-16.085,41.013-26.884
		c1.512-1.31,3.191-2.429,4.819-3.6c0.212-0.152,0.583-0.083,0.882-0.118c2.216,0.691,2.712,2.856,3.736,4.507
		c7.925,12.777,15.786,25.593,24.358,37.955c1.14,1.644,2.126,3.399,3.108,5.145c3.141,5.58,2.41,10.15-2.301,13.923
		c-2.08,1.666-4.236,3.256-6.466,4.714c-13.429,8.78-26.838,17.592-40.351,26.241c-18.909,12.103-39.058,21.66-59.832,30.198
		c-31.297,12.863-63.435,23.014-95.977,32.04c-21.381,5.93-43.166,9.05-65.375,9.02c-8.303-0.011-16.62-0.372-24.904,0.012
		c-4.821,0.223-9.07-1.856-13.802-2.027c-48.369-1.753-95.706-10.085-141.894-24.285c-35.55-10.93-69.73-25.343-101.194-45.512
		c-13.759-8.82-26.898-18.459-37.401-31.256c-1.657-2.019-4.287-3.207-6.19-5.064c-5.204-5.079-8.624-10.907-7.497-18.641
		c0.301-2.063,1.36-3.473,2.259-5.197c5.396-10.357,14.37-18.057,20.276-28.073c2.415-4.096,6.572-7.253,8.792-11.782
		c0.622-1.268,2.317-1.247,3.548-0.389c1.087,0.758,2.158,1.615,3.013,2.618c6.456,7.574,14.801,12.419,23.664,16.529
		c3.329,1.544,6.628,3.168,10.035,4.518c0.611,0.242,2.125-0.477,2.425-1.122c0.331-0.712,0.081-2.265-0.499-2.737
		c-4.152-3.382-8.669-6.29-13.678-8.187c-4.802-1.818-8.983-4.536-12.642-7.989c-19.082-18.007-36.219-37.522-47.927-61.341
		c-9.831-20.001-16.183-41.03-19.242-63.049c-4.609-33.172-2.45-65.936,5.046-98.6c6.295-27.43,16.897-52.776,32.639-76.012
		c10.545-15.566,22.36-29.895,37.45-41.514c11.118-8.56,21.954-17.452,33.723-25.141c15.189-9.923,31.348-17.821,48.433-23.877
		c8.17-2.896,16.327-5.831,24.453-8.848c1.164-0.432,2.728-1.496,1.718-2.935c-6.025-8.584-5.857-18.153-4.807-27.917
		c0.064-0.594-0.244-1.228-0.381-1.841c-4.176-1.101-8.428-1.975-12.511-3.351c-10.384-3.499-18.101-9.912-21.442-20.743
		c-1.368-4.436-3.943-8.446-4.01-13.352c-0.185-13.5,4.493-24.13,17.093-30.389c1.423-0.707,2.749-1.611,4.274-2.515
		c-2.071-5.334-5.291-9.571-8.52-13.826c-3.642-4.8-6.914-9.819-9.312-15.408c-1.248-2.909-0.773-5.136,1.362-7.245
		c1.429-1.411,2.716-2.986,4.259-4.255c2.687-2.211,3.068-4.293,1.66-7.769c-4.538-11.21-6.196-23.198-8.155-35.049
		c-1.42-8.591-3.259-17.069-5.391-25.498c-1.133-4.479-1.175-4.55,3.061-6.976c12.178-6.974,24.085-14.442,36.85-20.353
		c0.303-0.14,0.578-0.339,0.88-0.481c1.876-0.884,3.639-1.919,3.306-4.384c-0.18-1.329-2.933-1.732-5.273-0.595
		c-5.41,2.629-10.885,5.163-16.1,8.144c-18.273,10.446-36.421,21.111-54.686,31.57c-2.688,1.539-4.434,3.552-6.301,6.001
		c-2.107,2.763-1.983,4.6-0.373,7.073c3.323,5.106,3.195,10.608,2.426,16.433c-0.943,7.151-3.683,13.412-7.39,19.464
		c-4.12,6.724-10.149,10.32-17.641,12.1c-8.011,1.904-15.976,1.622-23.83-0.38c-17.869-4.555-30.443-20.94-25.937-42.234
		c5.634-13.177,13.797-23.777,28.785-26.684c5.218-1.012,10.534-0.53,15.56,1.981c4.241,2.119,4.53,2.026,7.349-1.794
		c14.387-19.495,31.842-36.089,49.278-52.737c19.928-19.027,41.94-35.237,65.463-49.473c2.287-1.384,4.602-2.75,7.012-3.9
		c5.198-2.48,10.411-2.937,16.177-1.327c28.72,8.016,52.646,23.697,73.302,44.842c7.679,7.861,15.726,15.337,21.901,24.586
		c3.238,4.849,7.746,6.463,13.834,4.199c8.549-3.18,15.543-0.13,21.175,6.871c6.932,8.618,13.494,17.359,17.136,28.038
		c1.493,4.376,4.225,8.318,6.228,12.536c1.051,2.213,2.67,2.894,4.84,2.345c4.613-1.168,9.277-1.033,13.964-0.855
		c7.383,0.281,13.386,3.728,18.922,8.2c7.205,5.82,10.029,21.608-1.745,28.423c-2.321,1.344-4.521,2.798-7.122,3.586
		c-2.415,0.732-4.769,1.663-7.034,2.465c0.136,2.761,2.107,3.78,3.553,5.016c9.61,8.207,14.345,27.028,3.769,41.109
		c-1.605,2.137-3.046,4.64-5.167,6.093c-3.661,2.509-4.257,5.575-3.312,9.478c1.424,5.877,1.702,11.877,1.3,17.866
		c-0.178,2.658,1.414,3.421,3.154,4.403c1.951,1.101,3.021-0.246,4.2-1.414c5.754-5.705,9.133-13.101,13.873-19.544
		c14.259-19.383,28.671-38.638,43.715-57.421c7.306-9.121,14.407-18.406,21.754-27.494c3.148-3.894,6.587-7.57,10.086-11.157
		c1.692-1.735,3.203-3.175,2.559-5.961c-0.267-1.156,0.143-2.827,0.869-3.797c5.581-7.465,9.281-16.306,16.451-22.601
		c2.511-2.205,4.808-4.837,7.676-6.416c6.137-3.379,9.506-9.181,13.648-14.322c2.103-2.61,1.997-5.347,0.396-8.361
		c-3.599-6.779-6.72-13.818-10.452-20.519c-3.179-5.708-4.643-11.798-5.23-18.148c-0.431-4.66,1.155-8.576,5.421-11.042
		c2.934-1.696,5.771-1.494,8.323,0.763c3.282,2.902,6.014,6.296,8.231,10.068c2.202,3.747,4.27,7.573,6.388,11.35
		c1.659,3.525,1.913,7.901,6.64,10.891C799.331,113.553,797.702,106.934,796.074,100.316z M562.91,341.971
		c-7.722,3.871-15.417,7.795-23.172,11.599c-11.71,5.744-24.224,7.76-37.034,6.353c-14.426-1.584-24.213-10.374-31.17-22.593
		c-1.753-3.078-0.315-5.582,3-7.145c2.409-1.135,5.291,0.441,7.361-1.468c-0.44-3.464-0.255-7.006-1.399-10.05
		c-3.131-8.333-5.678-17.402-16.569-19.231c-1.985-0.333-3.415-1.622-4.05-3.9c-0.677-2.431,1.028-6.199-2.056-7.071
		c-2.224-0.628-5.134,0.791-7.628,1.626c-1.776,0.594-3.841,0.919-5.137,3.016c5,4.32,7.867,9.698,7.77,16.529
		c-0.023,1.598,0.995,3.183,1.307,4.817c1.897,9.941,0.984,19.298-5.729,27.479c-2.542,3.098-4.985,6.287-7.306,9.553
		c-4.297,6.047-5.689,12.509-3.512,19.893c1.217,4.128,3.67,6.972,6.524,9.835c3.679,3.69,4.073,5.977,0.318,9.216
		c-5.339,4.605-6.846,10.592-7.339,16.928c-0.306,3.935,0.706,7.963,1.021,11.958c0.816,10.353,6.496,17.209,15.469,21.739
		c1.485,0.75,3.124,1.309,4.401,2.322c0.937,0.743,2.154,1.876,1.361,3.402c-0.437,0.841-1.113,1.893-1.906,2.146
		c-1.882,0.599-3.932,0.646-5.853,1.149c-8.739,2.287-13.734,12.551-10.263,20.732c1.711,4.033,5.208,5.986,8.72,7.894
		c2.62,1.423,5.475,2.409,8.129,3.777c1.215,0.626,1.963,1.89,1.408,3.335c-0.515,1.342-1.77,2.061-3.121,2.191
		c-0.937,0.09-1.921-0.359-2.889-0.543c-4.553-0.866-6.138,0.712-4.826,4.975c0.483,1.57,1.093,3.265,2.141,4.471
		c6.743,7.758,14.971,12.228,25.603,10.777c3.838-0.524,7.649-1.251,12.046-1.981c-0.187,3.73-0.574,6.714-0.443,9.675
		c0.52,11.743,11.499,22.498,22.363,21.027c12.879-1.744,25.903-3.686,36.739-11.923c2.233-1.697,4.059-1.703,6.226,0.067
		c7.221,5.899,15.621,7.187,24.583,5.941c2.644-0.368,5.436-0.515,7.852-1.51c4.721-1.945,8.269-0.826,11.385,2.956
		c1.053,1.278,2.406,2.314,3.662,3.416c6.618,5.803,14.444,8.164,23.123,8.059c9.769-0.118,18.33-3.748,25.778-9.728
		c6.162-4.948,8.922-11.564,7.012-19.613c-0.538-2.269-1.32-4.492-1.69-6.785c-0.437-2.709,1.328-4.676,3.974-4.447
		c5.323,0.461,10.625,1.519,15.945,1.584c14.518,0.177,25.401-10.002,26.739-24.455c0.463-5.003,0.118-9.921-1.679-14.986
		c2.448-0.8,4.319-1.381,6.168-2.02c4.61-1.595,8.22-4.581,10.684-8.68c4.887-8.128,6.101-16.681,3.191-25.973
		c-2.21-7.056-6.043-12.561-12.101-16.661c-1.532-1.037-2.1-2.414-1.051-4.25c0.658-1.151,1.087-2.446,1.519-3.71
		c3.222-9.423,1.055-16.259-7.127-21.724c-4.767-3.184-9.961-5.378-15.787-5.941c-2.476-0.239-5.167,0.078-8.17-1.386
		c4.627-6.905,3.271-13.159-0.09-19.332c-5.309-9.752-8.098-11.257-20.455-8.77c-2.266,0.456-4.396,1.662-6.667,2.015
		c-13.461,2.095-26.57,0.426-39.47-3.776c-9.752-3.177-18.127-8.395-25.056-15.939c-1.964-2.138-3.856-4.343-6.311-7.116
		c-4.241,8.362-10.782,14.051-16.594,20.369L562.91,341.971z M403.839,253.163c4.849,10.617,13.731,18.6,18.005,29.963
		c9.582-8.819,20.023-15.435,30.099-22.489c8.698-6.089,18.241-10.988,27.5-16.255c15.988-9.093,32.42-17.432,49.462-24.242
		c19.206-7.674,39.135-13.411,59.091-18.917c7.396-2.041,14.772-4.16,22.124-6.352c2.993-0.892,3.771-2.517,2.515-5.272
		c-2.076-4.553-4.793-8.862-6.427-13.558c-2.809-8.073-7.522-14.856-12.745-21.432c-5.846-7.361-9.195-8.348-18.147-5.775
		c-9.332,2.682-18.177,6.58-27.146,10.194c-15.797,6.365-31.193,13.675-46.111,21.782c-15.521,8.435-30.516,17.817-45.091,27.957
		C437.963,221.992,420.836,237.244,403.839,253.163z M525.509,814.502c-0.124,0,0.547,0.036,1.213-0.007
		c2.052-0.132,4.261-0.436,4.862-2.692c0.476-1.787-1.036-2.975-2.479-3.947c-8.045-5.421-16.135-10.87-24.994-14.792
		c-6.641-2.941-13.075-6.443-20.53-7.697c-4.226-0.711-6.794-0.083-9.631,2.903c-11.11,11.692-24.211,21.01-37.158,30.487
		c-4.583,3.355-9.401,6.39-13.963,9.771c-4.662,3.454-5.66,7.445-2.913,12.097c1.336,2.262,3.181,4.325,5.137,6.102
		c8.646,7.857,16.567,16.502,26.058,23.451c5.111,3.742,9.598,8.336,14.696,12.099c6.179,4.562,12.642,8.753,19.122,12.886
		c1.923,1.227,4.256,2.029,6.509,2.461c2.205,0.423,3.67-1.234,4.728-3.042c0.891-1.524-0.329-2.489-1.114-3.476
		c-1.249-1.57-2.628-3.036-3.931-4.564c-4.554-5.341-9.121-10.672-13.635-16.046c-1.281-1.525-2.643-3.046-2.858-5.187
		c-0.142-1.413,0.079-2.795,1.457-3.367c0.803-0.333,2.045-0.312,2.793,0.095c1.135,0.618,2.011,1.712,3,2.601
		c6.964,6.26,13.922,12.525,20.894,18.776c3.784,3.392,8.079,5.94,12.918,7.49c1.224,0.391,2.599,0.599,3.869,0.485
		c1.708-0.152,3.161-0.974,3.817-2.768c0.528-1.445-0.053-2.695-0.869-3.719c-1.248-1.565-2.636-3.043-4.115-4.395
		c-8.38-7.665-16.807-15.281-25.214-22.917c-2.229-2.025-4.621-3.953-5.878-6.762c-0.327-0.732-0.071-2.051,0.423-2.734
		c0.514-0.71,1.656-1.373,2.497-1.342c1.26,0.047,2.63,0.499,3.721,1.161c3.976,2.411,7.939,4.861,11.755,7.514
		c7.665,5.329,15.096,11.018,23.573,15.062c2.704,1.29,5.454,2.515,8.273,3.514c1.219,0.431,2.703,0.228,3.372-1.298
		c0.525-1.197,1.292-2.407,0.396-3.764c-0.368-0.558-0.715-1.137-1.147-1.643c-4.571-5.353-9.441-10.376-15.234-14.463
		c-7.65-5.398-15.245-10.875-22.784-16.427c-1.288-0.948-2.372-2.33-3.157-3.732c-0.346-0.618,0.026-2.008,0.556-2.643
		c0.539-0.647,1.769-1.232,2.527-1.066c1.231,0.269,2.374,1.094,3.466,1.819c8.357,5.547,16.484,11.431,25.238,16.391
		c3.869,2.192,7.985,3.411,12.179,4.49c1.553,0.399,3.309,0.177,4.95,0.016c1.661-0.163,2.705-2.199,2.012-3.706
		c-2.587-5.626-6.545-10.054-11.805-13.303c-10.244-6.328-20.543-12.567-30.732-18.983c-2.926-1.843-7.179-2.548-7.451-7.129
		c-0.118-1.984,4.579-1.352,10.561,1.532c0.903,0.435,1.779,0.929,2.657,1.414C516.748,813.495,520.663,814.256,525.509,814.502z
		 M446.545,735.919c-3.87-0.691-6.584,1.427-9.461,3.095c-24.062,13.945-46.156,30.613-67.324,48.572
		c-5.608,4.757-11.091,9.648-15.812,15.3c-2.99,3.58-2.809,6.36,0.377,9.707c4.143,4.352,8.671,8.38,12.469,13.01
		c4.739,5.778,10.582,10.15,16.406,14.633c2.353,1.811,4.385,2.24,7.263,0.665c7.302-3.995,14.969-7.302,21.404-12.793
		c3.039-2.592,6.43-4.78,9.717-7.071c18.361-12.798,36.132-26.329,52.292-41.877c4.002-3.85,5.04-8.849,1.982-13.402
		c-5.96-8.874-12.537-17.304-19.819-25.155C453.423,737.783,450.129,736.302,446.545,735.919z M831.099,197.459
		c1.619-1.849,3.15-3.206,4.193-4.87c2.286-3.646,5.412-4.754,9.445-3.729c5.462,1.389,10.632-0.45,15.822-1.564
		c3.503-0.752,5.914-4.934,5.433-8.505c-0.406-3.011-3.763-5.1-6.619-4.023c-1.561,0.589-2.984,1.581-4.568,2.066
		c-10.278,3.143-20.208-1.239-24.119-10.701c-1.704-4.121-1.466-8.526-1.127-12.856c0.786-10.027,6.951-16.833,16.886-17.903
		c6.625-0.713,12.671,0.904,16.152,7.49c2.03,3.84,4.046,7.687,6.067,11.532c0.661,1.257,1.68,2.243,3.096,2.099
		c1.764-0.18,3.146-1.353,3.687-3.011c0.392-1.201,0.487-2.652,0.227-3.889c-2.308-11.018-7.954-18.951-19.712-21.353
		c-2.971-0.607-5.859-1.123-8.918-0.976c-2.654,0.128-5.349-0.122-7.995-0.451c-2.145-0.267-3.396-2.208-3.107-4.404
		c0.13-0.989,0.196-2.055,0.62-2.925c5.269-10.797,10.432-21.652,15.968-32.312c4.21-8.108,7.252-16.479,7.823-25.64
		c0.109-1.743-0.455-3.397-2.235-4.095c-1.384-0.542-2.507,0.325-3.553,1.199c-3.906,3.264-7.004,7.274-9.509,11.595
		c-6.21,10.717-11.099,22.065-14.817,33.887c-1.001,3.183-1.489,6.526-2.42,9.735c-0.554,1.908-1.333,3.806-2.352,5.504
		c-0.676,1.126-2.019,1.608-3.508,1.372c-1.205-0.191-1.719-1.047-1.944-1.975c-0.71-2.923-1.436-5.859-1.864-8.832
		c-1.428-9.924-2.731-19.866-4.078-29.801c-0.953-7.023-2.853-13.741-6.503-19.874c-0.683-1.148-1.718-2.24-3.155-1.745
		c-0.818,0.282-1.631,1.226-1.998,2.068c-2.336,5.349-2.539,11.031-2.273,16.74c0.595,12.743,3.106,25.176,6.195,37.513
		c0.645,2.575,1.455,5.164,1.642,7.785c0.253,3.542-5.765,8.333-8.988,7.365c-0.918-0.276-1.962-0.839-2.485-1.593
		c-1.522-2.193-2.915-4.493-4.167-6.853c-2.507-4.722-4.908-9.5-7.312-14.276c-1.812-3.601-3.879-7.028-6.609-10.017
		c-1.075-1.177-2.046-2.923-4.008-1.779c-1.236,0.721-1.527,2.219-1.294,3.549c0.863,4.922,1.501,9.852,4.033,14.389
		c4.069,7.291,7.678,14.837,11.637,22.191c2.289,4.252,2.485,8.034-0.697,12.058c-2.854,3.61-5.156,7.657-7.947,11.883
		c8.958,6.23,18.274,10.822,26.197,17.459C814.499,183.823,822.74,190.555,831.099,197.459z M856.095,240.316
		c-0.641-1.729-1.088-3.35-1.817-4.834c-3.717-7.566-8.73-14.196-14.849-19.974c-5.343-5.045-10.844-9.923-16.134-15.022
		c-13.285-12.804-28.108-23.559-43.819-33.137c-5.195-3.167-5.06-2.828-10.391,1.047c-7.538,5.479-12.115,13.22-17.021,20.775
		c-1.475,2.272-1.321,4.398,0.307,6.419c1.039,1.29,2.169,2.539,3.417,3.623c9.576,8.32,19.325,16.448,28.762,24.922
		c12.16,10.919,24.068,22.118,36.112,33.167c4.415,4.051,8.472,8.539,14.028,11.201c2.104,1.008,3.657,0.916,5.26-0.913
		c6.211-7.088,10.702-15.257,14.972-23.565C855.513,242.873,855.724,241.522,856.095,240.316z M582.311,304.631
		c5.368-0.285,10.698-0.414,15.768-2.451c8.589-3.45,12.757-13.422,8.456-21.493c-2.744-5.149-6.875-9.163-13.427-8.97
		c-5.965,0.176-11.971-0.122-17.32,3.612c-1.788,1.248-4.521,2.006-6.643,1.71c-3.143-0.438-3.998,1.366-5.281,3.334
		c-6.839,10.488-16.163,16.106-29.071,16.432c-13.195,0.333-22.368-5.162-28.453-16.48c-1.101-2.047-1.989-4.238-2.727-6.445
		c-0.813-2.43-2.379-3.109-4.6-2.306c-9.721,3.514-19.429,7.063-29.115,10.673c-2.949,1.099-3.612,3.633-3.684,6.494
		c-0.06,2.369,1.148,3.415,3.228,4.37c6.647,3.052,11.105,8.304,14.272,14.833c3.116,6.423,5.079,12.999,4.628,20.266
		c-0.203,3.271,1.829,4.823,5.101,4.601c6.538-0.444,12.384-2.748,17.342-7.021c3.542-3.053,7.04-6.193,10.249-9.586
		c5.995-6.338,13.839-9.494,21.79-11.689c5.276-1.457,10.946-2.551,16.811-1.694C567.121,303.914,574.745,304.071,582.311,304.631z
		 M321.344,183.983c-3.183-2.114-6.013-2.752-9.124-2.309c-10.261,1.463-18.214,6.514-23.16,15.644
		c-6.855,12.652-2.318,28.77,9.671,34.592c4.551,2.21,9.186,3.92,14.262,4.362c17.256,1.502,27.891-4.573,31.685-24.187
		c0.946-4.892,0.167-9.285-1.715-13.61c-0.697-1.602-2.249-2.386-4.119-1.3c-3.16,1.835-6.303,3.702-9.514,5.443
		c-1.755,0.952-3.575,1.87-5.473,2.457c-3.993,1.234-7.517-0.437-9.919-3.244c-2.297-2.683-0.205-5.616,1.365-8.196
		C317.194,190.527,320.402,188.266,321.344,183.983z M490.389,339.799c-1.854-0.371-3.168-0.876-4.448-0.802
		c-0.812,0.046-1.79,0.798-2.304,1.513c-0.668,0.929,0.092,1.894,0.756,2.558c6.599,6.595,14.217,11.225,23.88,10.776
		c9.356-0.435,18.68-1.897,27.228-5.787c7.856-3.575,15.395-7.922,22.805-12.375c5.758-3.461,10.646-7.983,13.066-14.618
		c1.146-3.141,0.905-4.817-1.459-6.992c-3.952-3.636-8.838-4.655-13.919-4.495c-12.47,0.39-23.434,4.506-32.25,13.673
		c-2.306,2.399-4.711,4.739-7.294,6.828C508.708,336.335,499.978,340.01,490.389,339.799z M601.105,234.27
		c5.215,1.293,10.702-3.407,16.816-5.719c1.627-0.615,1.744-2.747,1.103-4.436c-0.73-1.924-2.025-3.456-3.928-4.323
		c-1.817-0.828-3.755-1.405-5.52-2.322c-1.573-0.818-2.494-2.26-2.1-4.122c0.411-1.937,2.229-2.229,3.727-2.873
		c1.377-0.592,2.61-0.056,3.85,0.419c5.522,2.115,9.905,5.527,12.201,11.135c1.059,2.588,3.004,3.562,5.537,3.268
		c4.63-0.536,9.292-1.032,13.828-2.05c2.899-0.651,5.51-2.34,7.725-4.471c3.094-2.976,3.894-5.992,2.09-9.944
		c-2.314-5.069-5.932-8.888-11.621-10.088c-6.954-1.467-13.888-1.743-20.723,0.787c-2.178,0.806-4.428,1.448-6.683,2.014
		c-18.099,4.545-35.86,10.239-53.661,15.792c-0.891,0.278-1.948,0.613-1.792,1.921c0.133,1.116,0.972,1.581,1.885,2.058
		c2.065,1.078,4.222,2.061,6.085,3.432C578.613,231.145,588.694,232.98,601.105,234.27z M597.521,242.566
		c-3.502-0.63-6.103-1.078-8.697-1.569c-12.782-2.42-23.885-8.161-32.952-17.453c-2.673-2.739-5.45-2.58-8.185-1.551
		c-8.717,3.279-17.382,6.731-25.911,10.472c-15.545,6.819-30.358,15.097-45.29,23.141c-9.667,5.208-9.869,5.2-9.079,16.214
		c0.192,2.672,1.309,3.5,3.827,2.645c9.146-3.108,18.276-6.263,27.408-9.413c0.629-0.217,1.202-0.63,1.841-0.778
		c2.27-0.525,3.499-2.126,3.665-4.224c0.547-6.926,5.022-11.477,9.553-15.88c14.303-13.898,41.09-10.947,49.609,5.531
		c0.593,1.147,1.546,2.107,2.183,2.956c0.673,0.056,1.02,0.191,1.269,0.088c0.922-0.385,1.842-0.796,2.709-1.291
		c7.167-4.093,14.376-7.029,22.477-2.153c1.659,0.999,3.158-0.238,3.886-1.968C596.339,246.133,596.712,244.875,597.521,242.566z
		 M584.135,314.481c3.591,7.472,8.527,13.158,15.247,17.303c13.843,8.536,28.948,11.456,45.006,10.355
		c2.711-0.186,5.219-0.805,7.661-2.019c3.27-1.626,6.599-3.093,10.053-4.373c4.285-1.588,8.037-4.314,9.118-9.41
		c-3.151-1.117-5.817-0.488-8.395-0.145c-9.109,1.212-17.102-1.219-24.258-6.829c-3.932-3.083-7.991-6.008-11.855-9.172
		c-6.678-5.468-13.779-5.836-21.325-2.128c-4.823,2.369-9.73,4.29-15.284,4.009C588.115,311.968,586.147,312.592,584.135,314.481z
		 M448.402,323.316c-0.95-17.142-8.55-26.837-22.207-30.709c-3.283-0.931-6.68-1.295-9.818,0.131
		c-5.882,2.674-11.395,6.204-13.651,12.558c-2.347,6.609-4.151,13.486,0.578,20.122c1.329,1.864,1.965,4.215,2.971,6.318
		c3.219,6.728,8.304,11.224,15.773,12.47c9.954,1.66,9.184,3.312,17.812-4.912c0.477-0.455,1.116-0.734,1.63-1.156
		C446.157,334.303,448.553,329.402,448.402,323.316z M559.071,266.19c0.231-6.464-2.4-13.509-6.799-17.076
		c-14.351-11.638-35.474-5.689-40.687,12.919c-0.787,2.81-1.02,5.721-0.295,8.85c2.223,9.6,9.792,17.167,21.192,18.073
		C545.909,290.023,558.604,279.251,559.071,266.19z M624.185,284.143c9.793-0.446,17.165-4.792,21.541-13.752
		c4.623-9.464,2.951-18.126-3.711-25.972c-6.163-7.258-14.588-9.112-23.359-5.326c-1.836,0.793-3.643,1.796-5.569,2.21
		c-3.912,0.839-6.388,3.533-8.724,6.346c-3.586,4.316-3.239,9.942-4.507,15.018c-0.154,0.616,0.818,1.968,1.563,2.284
		c7.258,3.077,11.75,8.454,13.894,15.97c0.511,1.793,2.112,2.509,3.836,2.754C620.796,283.909,622.467,283.99,624.185,284.143z
		 M410.02,642.167c0.755,21.852,3.254,43.062,8.808,63.826c2.426,9.068,6.741,17.412,10.862,25.802
		c0.874,1.779,2.357,2.366,4.061,1.211c1.542-1.046,2.065-2.51,0.942-4.277c-0.716-1.126-1.395-2.282-1.998-3.472
		c-4.55-8.976-8.368-18.337-10.363-28.137c-5.696-27.965-8.758-56.144-4.134-84.654c4.252-26.214,10.338-51.768,26.467-73.716
		c0.707-0.962,0.6-1.923-0.28-2.611c-0.878-0.687-1.767-0.168-2.682,0.259c-3.221,1.504-4.929,4.348-6.697,7.194
		c-6.927,11.149-11.582,23.196-15.322,35.771C413.538,600.03,410.781,621.116,410.02,642.167z M459.288,265.978
		c-9.479,5.81-17.269,11.959-25.068,18.089c-0.374,0.294-0.559,1.184-0.428,1.692c0.263,1.022,1.085,1.715,2.178,1.681
		c0.955-0.03,1.935-0.23,2.845-0.533c3.463-1.154,6.924-2.317,10.344-3.59C459.27,279.552,461.201,281.43,459.288,265.978z
		 M567.64,264.846c-0.325,4.943,0.27,5.428,4.73,3.379c4.899-2.251,10.005-3.596,15.307-4.503c3.656-0.626,4.631-4.16,2.149-6.723
		c-3.065-3.165-6.595-4.533-10.872-2.738c-2.465,1.034-4.955,2.06-7.278,3.367C568.914,259.18,566.879,261.338,567.64,264.846z
		 M635.184,306.355c0.761-4.28-0.364-8.43-1.577-12.563c-0.308-1.049-1.208-1.754-2.181-1.614c-4.301,0.62-8.583,0.454-12.891,0.133
		c-2.85-0.212-2.897,2.166-3.29,4.053c-0.417,1.999,0.414,3.157,2.531,3.212c4.88,0.127,8.833,2.576,12.767,5.077
		C631.897,305.514,633.022,306.93,635.184,306.355z"/>
	<path fill="#D1372D" d="M381.414,1108.84c-7.784-7.089-8.106-15.969-7.449-25.155c0.525-7.332,1.019-14.672,1.278-22.016
		c0.241-6.832,2.076-12.577,9.426-15.155c-2.725-12.174-2.202-24.136-2.916-36.023c-1.192-19.821-0.217-39.689-1.859-59.502
		c-0.657-7.931,0.317-15.983-1.117-23.924c-0.228-1.265,0.069-2.666,0.318-3.967c0.543-2.829,2.336-3.87,4.99-2.904
		c6.282,2.286,12.529,4.666,18.818,6.935c30.265,10.918,61.345,18.639,93.085,23.816c17.501,2.855,35.017,5.506,52.763,6.284
		c2.002,0.088,4.018,0.261,5.985,0.626c3.063,0.569,4.079,2.385,3.636,5.834c-1.305,10.166-2.7,20.323-3.827,30.51
		c-1.639,14.813-3.965,29.522-6.408,44.214c-0.985,5.922-1.501,11.807-1.578,17.849c-0.093,7.277-1.566,14.546-2.591,21.797
		c-0.231,1.63-0.899,3.101-0.219,4.839c4.731,12.086-0.609,22.886-4.528,33.825c-0.8,2.233-2.575,3.936-4.819,4.895
		c-2.765,1.181-5.504,2.717-8.407,3.216c-5.311,0.914-7.85,3.638-9.286,8.899c-1.711,6.271-6.234,9.734-13.307,9.943
		c-16.044,0.474-32.077,1.359-48.111,2.159c-18.697,0.934-37.383,2.113-56.086,2.893c-15.673,0.654-31.363,0.933-47.048,1.263
		c-2.649,0.056-5.371-0.2-7.95-0.79c-3.656-0.837-5.343-4.752-3.275-7.862c3.139-4.719,6.319-9.42,10.562-13.329
		c7.452-6.865,15.846-12.244,24.938-16.613C377.914,1110.686,379.361,1109.897,381.414,1108.84z M499.295,1117.662
		c3.34,0.178,6.685,0.552,10.02,0.487c4.668-0.091,9.367-0.244,13.982-0.881c2.987-0.412,5.931-1.811,6.785-5.18
		c1.887-7.447,3.599-14.938,5.344-22.42c0.37-1.586-0.711-2.618-1.905-3.133c-1.509-0.652-3.189-0.94-4.817-1.28
		c-11.116-2.319-22.25-4.553-33.355-6.922c-20.229-4.315-40.437-8.729-60.663-13.056c-15.003-3.209-30.021-6.346-45.034-9.511
		c-0.982-0.207-1.968-0.4-2.959-0.556c-2.269-0.357-3.665,0.626-4.163,3.031c-0.27,1.303-0.494,2.64-0.52,3.966
		c-0.134,6.691-0.599,13.34-1.437,19.993c-0.497,3.944-0.215,8.026,0.077,12.019c0.285,3.888,2.113,6.98,5.894,8.63
		c2.448,1.068,4.854,2.231,7.3,3.304c4.385,1.923,9.157,1.863,13.77,2.504c12.239,1.699,24.297,4.661,36.709,5.178
		c5.673,0.236,11.334,0.752,17.002,1.118C473.988,1115.77,486.54,1118.106,499.295,1117.662z"/>
	<path fill="#D1372D" d="M629.465,959.959c61.041-10.684,118.763-30.995,175.117-57.148c1.424,16.909,1.916,33.208,1.707,49.621
		c-0.237,18.53-1.434,37.12,0.29,55.62c0.711,7.63-0.379,15.159,0.047,22.746c0.193,3.442,0.247,6.493,2.906,9.171
		c1.32,1.329,2.143,3.415,2.591,5.301c2.077,8.746,4.045,17.52,5.858,26.324c1.958,9.508,2.572,19.164,2.426,29.062
		c3.055,1.557,6.053,2.955,8.929,4.573c11.069,6.229,19.372,15.136,25.218,26.374c0.615,1.182,1.293,2.354,1.723,3.605
		c1.025,2.984-0.532,5.442-3.583,5.737c-1.327,0.128-2.674,0.175-4.005,0.116c-20.697-0.916-41.381-0.738-62.096-0.241
		c-17.356,0.417-34.745-0.606-52.12-0.962c-12.703-0.26-25.407-0.474-38.111-0.704c-1.003-0.018-2.01,0.041-3.01-0.02
		c-6.575-0.397-11.744-2.607-12.978-9.992c-0.218-1.307-0.805-2.547-1.126-3.842c-0.65-2.619-2.228-3.956-4.976-4.006
		c-2.42-0.044-4.583-0.969-6.434-2.495c-2.695-2.222-4.182-5.025-4.47-8.612c-0.775-9.648-1.232-19.342-3.518-28.809
		c-0.153-0.634-0.449-1.45-0.199-1.932c2.802-5.407-0.221-10.19-1.591-15.106c-3.461-12.416-7.974-24.543-10.211-37.293
		c-0.173-0.987,0.004-2.111-0.405-2.97c-3.762-7.893-4.759-16.545-7.092-24.826c-1.528-5.423-3.214-10.789-4.26-16.331
		c-0.431-2.285-0.502-4.641-1.862-6.684C630.999,971.384,630.468,965.757,629.465,959.959z M667.553,1084.044
		c0.821,8.855,1.495,17.175,2.405,25.47c0.4,3.642,2.263,5.247,5.931,5.449c2.662,0.147,5.349,0.04,8.015-0.122
		c7.662-0.463,15.318-1.014,22.977-1.526c14.667-0.98,29.162-3.377,43.732-5.142c19.588-2.373,38.972-5.509,58.126-10.182
		c5.054-1.233,5.619-1.861,5.056-6.585c-1.382-11.599-2.741-23.242-6.629-34.31c-1.17-3.33,0.756-8.139-3.25-9.876
		c-3.357-1.455-7.207,0.357-10.816,0.91c-3.955,0.605-7.944,1.088-11.839,1.971c-28.595,6.484-57.043,13.559-85.23,21.647
		c-8.019,2.301-15.981,4.808-23.926,7.356C668.201,1080.355,667.547,1081.346,667.553,1084.044z"/>
	<path fill="#D1372D" d="M823.043,762.76c4.055,3.766,5.193,9.634,8.338,14.278c1.261,1.862,1.384,4.335,3.494,5.895
		c1.682,1.243,1.045,3.469-0.299,4.334c-6.248,4.024-9.17,11.414-15.808,15.071c-6.426,3.539-12.418,7.88-18.899,11.305
		c-32.254,17.051-65.629,31.342-101.154,40.178c-1.613,0.401-3.27,0.715-4.923,0.833c-1.484,0.106-2.575-0.602-2.38-2.317
		c0.791-6.967,1.731-13.92,2.401-20.898c0.509-5.307,0.829-10.642,0.958-15.971c0.061-2.507,1.253-3.636,3.403-4.146
		c7.799-1.851,15.569-3.851,23.417-5.467c22.971-4.729,45.172-11.807,66.637-21.246c11.418-5.021,21.434-12.206,31.118-19.918
		C820.362,763.883,821.045,762.584,823.043,762.76z"/>
	<path fill="#FCE16E" d="M872.544,174.89c-2.988-4.35-6.331-8.146-12.283-7.872c-1.189-1.099-2.292-2.312-3.588-3.265
		c-1.312-0.965-2.859-1.603-4.221-2.508c-1.472-0.977-2.272-2.338-1.674-4.18c0.553-1.705,2.512-2.144,5.028-1.055
		c2.396,1.037,4.753,2.163,7.127,3.251c2.772,2.881,5.913,4.924,10.138,4.475c2.282,3.982,6.393,5.654,10.032,7.935
		c2.776,1.741,5.101,1.786,8.228-0.053c14.824-8.717,30.026-7.145,43.316,2.286c19.042,13.513,22.796,39.908,1.982,57.372
		c-12.567,10.545-33.818,11.081-47.008,2.812c-16.571-10.389-22.354-30.925-12.852-47.98c0.162-0.291,0.342-0.573,0.509-0.861
		C881.519,177.919,881.461,177.79,872.544,174.89z M944.557,195.067c-0.101-2.758-1.723-4.787-3.003-4.753
		c-1.444,0.039-2.474,0.856-2.978,2.209c-0.462,1.239-0.784,2.53-1.233,3.775c-5.207,14.465-14.71,25.006-28.719,31.433
		c-0.891,0.409-1.78,0.859-2.583,1.416c-1.732,1.202-1.367,3.88,0.553,4.958c1.559,0.876,3.076,1.023,4.732,0.333
		c4.64-1.931,8.62-4.927,12.684-7.789c9.905-6.975,16.047-16.593,19.605-28.008C944.101,197.088,944.447,195.492,944.557,195.067z
		 M914.39,175.769c-0.308-1.294-0.411-2.306-0.81-3.184c-0.231-0.509-0.935-1.122-1.43-1.126c-0.911-0.006-2.021,0.162-2.683,0.704
		c-0.693,0.568-1.101,1.615-1.385,2.53c-4.143,13.334-12.749,23.043-24.384,30.374c-1.644,1.036-3.097,2.482-4.352,3.978
		c-0.503,0.6-0.544,1.962-0.245,2.775c0.493,1.343,1.829,1.933,3.222,1.646c1.27-0.261,2.558-0.718,3.684-1.359
		c9.128-5.195,16.469-12.415,22.284-21.029C911.416,186.451,913.756,181.232,914.39,175.769z M904.694,213.279
		c-3.414-0.175-5.969,1.724-6.286,4.672c-0.285,2.655,1.129,4.848,3.321,5.15c3.246,0.447,6.128-2.188,6.369-5.823
		C908.232,215.264,906.626,213.378,904.694,213.279z M930.443,183.953c-0.307-0.551-0.481-1.284-0.944-1.624
		c-2.098-1.542-4.312-1.211-6.409-0.003c-1.812,1.044-2.962,2.656-2.591,4.82c0.143,0.834,0.83,1.899,1.562,2.252
		C925.544,191.076,930.592,187.721,930.443,183.953z M920.045,202.321c-0.092-2.184-1.359-2.885-3.235-2.822
		c-2.653,0.089-4.027,1.233-3.989,3.282c0.039,2.128,1.502,3.929,3.373,4.152C918.258,207.181,919.99,205.06,920.045,202.321z"/>
	<path fill="#FCE16E" d="M602.467,865.129c-3.894-12.133-3.873-24.168-3.734-36.21c0.019-1.67,0.13-3.351,0.355-5.006
		c0.858-6.312,2.325-7.459,8.437-7.078c21.359,1.331,42.665,0.727,63.909-1.894c2.324-0.287,4.659-0.493,6.993-0.692
		c3.274-0.279,6.552-0.516,9.828-0.772c2.474,3.706,1.161,7.786,0.869,11.643c-0.555,7.326-1.521,14.628-2.526,21.91
		c-0.315,2.281-1.391,4.447-1.962,6.705c-0.667,2.633-2.41,3.773-4.944,4.226c-5.592,1-11.14,2.266-16.75,3.143
		c-18.858,2.95-37.849,4.415-56.928,4.73C605.047,865.849,604.074,865.46,602.467,865.129z M633.267,856.822
		c10.08,0.514,19.934-1.6,29.861-2.699c5.088-0.564,7.225-2.444,7.588-6.504c0.534-5.965,0.803-11.964,0.91-17.953
		c0.067-3.725-1.916-5.21-5.862-4.987c-0.333,0.019-0.67,0.027-0.997,0.088c-12.853,2.407-25.958,1.211-38.884,2.692
		c-2.517,0.289-5.071,0.495-7.732-0.948c-3.215-1.744-4.795-0.449-5.035,3.161c-0.56,8.405,1.49,16.571,2.339,24.846
		c0.157,1.534,1.428,2.252,2.817,2.274C623.27,856.871,628.269,856.822,633.267,856.822z"/>
	<path fill="#D1372D" d="M794.356,88.719c0.993,0.747,1.116,1.672,0.553,2.716C793.819,90.699,793.988,89.73,794.356,88.719z"/>
	<path fill="#FFFFFF" d="M562.784,342.083c5.812-6.319,12.353-12.008,16.594-20.369c2.455,2.773,4.347,4.978,6.311,7.116
		c6.929,7.544,15.304,12.762,25.056,15.939c12.899,4.202,26.009,5.871,39.47,3.776c2.271-0.353,4.401-1.559,6.667-2.015
		c12.357-2.487,15.145-0.983,20.455,8.77c3.361,6.174,4.717,12.427,0.09,19.332c3.003,1.465,5.694,1.147,8.17,1.386
		c5.826,0.563,11.02,2.757,15.787,5.941c8.182,5.465,10.349,12.301,7.127,21.724c-0.432,1.264-0.861,2.559-1.519,3.71
		c-1.049,1.835-0.482,3.213,1.051,4.25c6.058,4.1,9.891,9.605,12.101,16.661c2.91,9.291,1.696,17.845-3.191,25.973
		c-2.464,4.098-6.074,7.084-10.684,8.68c-1.85,0.64-3.72,1.221-6.168,2.02c1.798,5.066,2.143,9.984,1.679,14.986
		c-1.338,14.453-12.22,24.632-26.739,24.455c-5.32-0.065-10.622-1.123-15.945-1.584c-2.646-0.229-4.411,1.738-3.974,4.447
		c0.37,2.293,1.151,4.516,1.69,6.785c1.91,8.049-0.85,14.665-7.012,19.613c-7.448,5.98-16.008,9.61-25.778,9.728
		c-8.679,0.105-16.505-2.255-23.123-8.059c-1.256-1.101-2.61-2.138-3.662-3.416c-3.116-3.781-6.664-4.901-11.385-2.956
		c-2.416,0.996-5.207,1.142-7.852,1.51c-8.962,1.246-17.363-0.042-24.583-5.941c-2.167-1.77-3.993-1.764-6.226-0.067
		c-10.836,8.237-23.86,10.179-36.739,11.923c-10.864,1.471-21.844-9.284-22.363-21.027c-0.131-2.961,0.256-5.945,0.443-9.675
		c-4.397,0.73-8.207,1.457-12.046,1.981c-10.633,1.451-18.86-3.018-25.603-10.777c-1.048-1.206-1.658-2.901-2.141-4.471
		c-1.312-4.263,0.273-5.841,4.826-4.975c0.968,0.184,1.952,0.634,2.889,0.543c1.352-0.13,2.606-0.849,3.121-2.191
		c0.554-1.445-0.194-2.709-1.408-3.335c-2.654-1.368-5.508-2.354-8.129-3.777c-3.512-1.908-7.009-3.861-8.72-7.894
		c-3.471-8.181,1.524-18.445,10.263-20.732c1.921-0.503,3.971-0.55,5.853-1.149c0.793-0.252,1.469-1.305,1.906-2.146
		c0.793-1.526-0.424-2.659-1.361-3.402c-1.277-1.013-2.915-1.572-4.401-2.322c-8.973-4.529-14.653-11.386-15.469-21.739
		c-0.315-3.995-1.327-8.023-1.021-11.958c0.493-6.337,2-12.324,7.339-16.928c3.755-3.239,3.361-5.526-0.318-9.216
		c-2.855-2.863-5.308-5.707-6.524-9.835c-2.176-7.383-0.785-13.846,3.512-19.893c2.321-3.266,4.764-6.455,7.306-9.553
		c6.713-8.181,7.626-17.538,5.729-27.479c-0.312-1.634-1.33-3.22-1.307-4.817c0.098-6.831-2.769-12.208-7.77-16.529
		c1.295-2.097,3.36-2.422,5.137-3.016c2.494-0.835,5.404-2.254,7.628-1.626c3.084,0.871,1.379,4.64,2.056,7.071
		c0.635,2.278,2.065,3.567,4.05,3.9c10.891,1.829,13.438,10.898,16.569,19.231c1.144,3.043,0.959,6.585,1.399,10.05
		c-2.071,1.91-4.953,0.333-7.361,1.468c-3.315,1.562-4.753,4.067-3,7.145c6.957,12.218,16.744,21.009,31.17,22.593
		c12.81,1.407,25.324-0.609,37.034-6.353c7.755-3.804,15.45-7.729,23.174-11.6c1.685,0.393,1.763,1.608,1.538,2.987
		c-0.365,2.233,0.64,3.902,2.357,5.117c11.539,8.169,23.954,11.081,37.628,6.102c3.571-1.3,5.462-3.631,4.331-5.399
		c-1.705-2.667-4.271-1.482-6.305-0.805c-11.292,3.759-21.6,1.903-31.025-5.133c-2.384-1.78-4.802-1.925-7.518-1.379
		C563.644,343.515,563.167,342.566,562.784,342.083z"/>
	<path fill="#FFFFFF" d="M403.839,253.163c16.998-15.919,34.125-31.171,53.131-44.395c14.575-10.141,29.57-19.522,45.091-27.957
		c14.918-8.108,30.314-15.417,46.111-21.782c8.969-3.614,17.814-7.512,27.146-10.194c8.952-2.573,12.3-1.586,18.147,5.775
		c5.223,6.576,9.937,13.359,12.745,21.432c1.634,4.695,4.351,9.004,6.427,13.558c1.256,2.755,0.478,4.38-2.515,5.272
		c-7.352,2.192-14.728,4.311-22.124,6.352c-19.956,5.506-39.885,11.243-59.091,18.917c-17.043,6.81-33.474,15.149-49.462,24.242
		c-9.26,5.266-18.803,10.165-27.5,16.255c-10.076,7.054-20.517,13.67-30.099,22.489C417.57,271.763,408.688,263.78,403.839,253.163z
		"/>
	<path fill="#FFFFFF" d="M525.509,814.502c-4.846-0.246-8.761-1.007-12.363-2.994c-0.878-0.485-1.754-0.979-2.657-1.414
		c-5.982-2.884-10.678-3.516-10.561-1.532c0.271,4.58,4.525,5.286,7.451,7.129c10.188,6.416,20.488,12.655,30.732,18.983
		c5.26,3.249,9.218,7.677,11.805,13.303c0.693,1.507-0.351,3.543-2.012,3.706c-1.642,0.161-3.397,0.383-4.95-0.016
		c-4.194-1.079-8.31-2.298-12.179-4.49c-8.754-4.96-16.881-10.844-25.238-16.391c-1.092-0.724-2.235-1.55-3.466-1.819
		c-0.758-0.166-1.987,0.419-2.527,1.066c-0.53,0.636-0.902,2.026-0.556,2.643c0.785,1.402,1.87,2.783,3.157,3.732
		c7.539,5.552,15.134,11.029,22.784,16.427c5.792,4.087,10.662,9.11,15.234,14.463c0.432,0.505,0.779,1.085,1.147,1.643
		c0.896,1.357,0.129,2.567-0.396,3.764c-0.669,1.526-2.154,1.729-3.372,1.298c-2.82-0.999-5.57-2.224-8.273-3.514
		c-8.477-4.045-15.908-9.733-23.573-15.062c-3.816-2.653-7.779-5.104-11.755-7.514c-1.092-0.662-2.461-1.114-3.721-1.161
		c-0.841-0.031-1.983,0.632-2.497,1.342c-0.494,0.683-0.75,2.003-0.423,2.734c1.257,2.809,3.649,4.738,5.878,6.762
		c8.407,7.636,16.834,15.252,25.214,22.917c1.478,1.352,2.867,2.83,4.115,4.395c0.816,1.024,1.397,2.274,0.869,3.719
		c-0.656,1.794-2.108,2.616-3.817,2.768c-1.27,0.113-2.645-0.094-3.869-0.485c-4.84-1.549-9.135-4.098-12.918-7.49
		c-6.972-6.251-13.931-12.516-20.894-18.776c-0.989-0.889-1.865-1.983-3-2.601c-0.748-0.407-1.99-0.428-2.793-0.095
		c-1.378,0.571-1.599,1.954-1.457,3.367c0.215,2.141,1.577,3.662,2.858,5.187c4.515,5.374,9.081,10.705,13.635,16.046
		c1.303,1.528,2.682,2.994,3.931,4.564c0.785,0.987,2.005,1.952,1.114,3.476c-1.057,1.808-2.523,3.466-4.728,3.042
		c-2.253-0.433-4.586-1.234-6.509-2.461c-6.479-4.133-12.942-8.324-19.122-12.886c-5.098-3.763-9.585-8.357-14.696-12.099
		c-9.492-6.949-17.413-15.593-26.058-23.451c-1.956-1.778-3.801-3.84-5.137-6.102c-2.747-4.652-1.749-8.643,2.913-12.097
		c4.563-3.381,9.38-6.416,13.963-9.771c12.947-9.477,26.048-18.795,37.158-30.487c2.838-2.986,5.406-3.614,9.631-2.903
		c7.454,1.254,13.888,4.756,20.53,7.697c8.859,3.922,16.948,9.371,24.994,14.792c1.443,0.972,2.954,2.16,2.479,3.947
		c-0.601,2.257-2.81,2.561-4.862,2.692C526.056,814.538,525.385,814.502,525.509,814.502z"/>
	<path fill="#FFFFFF" d="M446.545,735.919c3.584,0.383,6.877,1.864,9.493,4.684c7.282,7.851,13.859,16.281,19.819,25.155
		c3.058,4.553,2.02,9.551-1.982,13.402c-16.16,15.547-33.931,29.078-52.292,41.877c-3.287,2.291-6.678,4.479-9.717,7.071
		c-6.435,5.491-14.102,8.798-21.404,12.793c-2.878,1.575-4.91,1.146-7.263-0.665c-5.824-4.483-11.667-8.855-16.406-14.633
		c-3.798-4.63-8.326-8.657-12.469-13.01c-3.186-3.347-3.367-6.127-0.377-9.707c4.721-5.652,10.204-10.543,15.812-15.3
		c21.168-17.958,43.263-34.627,67.324-48.572C439.962,737.346,442.675,735.227,446.545,735.919z"/>
	<path fill="#FFFFFF" d="M831.099,197.459c-8.359-6.904-16.6-13.637-24.757-20.469c-7.923-6.636-17.239-11.229-26.197-17.459
		c2.791-4.226,5.093-8.273,7.947-11.883c3.182-4.025,2.986-7.807,0.697-12.058c-3.959-7.354-7.568-14.9-11.637-22.191
		c-2.532-4.537-3.17-9.467-4.033-14.389c-0.233-1.331,0.058-2.829,1.294-3.549c1.962-1.144,2.932,0.602,4.008,1.779
		c2.73,2.989,4.797,6.415,6.609,10.017c2.403,4.776,4.805,9.554,7.312,14.276c1.253,2.359,2.645,4.66,4.167,6.853
		c0.523,0.753,1.567,1.317,2.485,1.593c3.223,0.968,9.241-3.824,8.988-7.365c-0.187-2.621-0.997-5.21-1.642-7.785
		c-3.088-12.337-5.599-24.769-6.195-37.513c-0.266-5.709-0.063-11.392,2.273-16.74c0.367-0.842,1.18-1.786,1.998-2.068
		c1.437-0.495,2.472,0.597,3.155,1.745c3.65,6.133,5.551,12.851,6.503,19.874c1.348,9.935,2.65,19.877,4.078,29.801
		c0.428,2.973,1.154,5.908,1.864,8.832c0.225,0.927,0.739,1.784,1.944,1.975c1.488,0.235,2.832-0.246,3.508-1.372
		c1.019-1.698,1.799-3.596,2.352-5.504c0.931-3.209,1.418-6.552,2.42-9.735c3.718-11.822,8.607-23.17,14.817-33.887
		c2.504-4.322,5.603-8.331,9.509-11.595c1.046-0.874,2.169-1.741,3.553-1.199c1.78,0.698,2.344,2.352,2.235,4.095
		c-0.572,9.161-3.613,17.532-7.823,25.64c-5.536,10.66-10.699,21.515-15.968,32.312c-0.425,0.87-0.491,1.936-0.62,2.925
		c-0.288,2.195,0.962,4.137,3.107,4.404c2.646,0.329,5.341,0.579,7.995,0.451c3.059-0.148,5.946,0.368,8.918,0.976
		c11.758,2.402,17.404,10.336,19.712,21.353c0.259,1.237,0.164,2.688-0.227,3.889c-0.541,1.659-1.923,2.831-3.687,3.011
		c-1.415,0.145-2.435-0.842-3.096-2.099c-2.021-3.845-4.037-7.692-6.067-11.532c-3.481-6.586-9.527-8.203-16.152-7.49
		c-9.935,1.069-16.1,7.875-16.886,17.903c-0.339,4.33-0.577,8.735,1.127,12.856c3.911,9.462,13.841,13.844,24.119,10.701
		c1.584-0.485,3.007-1.477,4.568-2.066c2.856-1.077,6.213,1.012,6.619,4.023c0.481,3.57-1.93,7.753-5.433,8.505
		c-5.19,1.114-10.361,2.953-15.822,1.564c-4.033-1.025-7.159,0.083-9.445,3.729C834.249,194.253,832.718,195.61,831.099,197.459z"/>
	<path fill="#FFFFFF" d="M856.095,240.316c-0.371,1.206-0.581,2.557-1.174,3.71c-4.27,8.308-8.761,16.477-14.972,23.565
		c-1.603,1.829-3.156,1.922-5.26,0.913c-5.555-2.662-9.612-7.151-14.028-11.201c-12.044-11.049-23.952-22.248-36.112-33.167
		c-9.437-8.474-19.186-16.602-28.762-24.922c-1.248-1.084-2.378-2.333-3.417-3.623c-1.628-2.022-1.782-4.147-0.307-6.419
		c4.906-7.554,9.482-15.296,17.021-20.775c5.332-3.875,5.196-4.214,10.391-1.047c15.711,9.577,30.534,20.333,43.819,33.137
		c5.29,5.099,10.792,9.977,16.134,15.022c6.119,5.778,11.132,12.408,14.849,19.974C855.006,236.966,855.454,238.587,856.095,240.316
		z"/>
	<path fill="#FFFFFF" d="M582.311,304.631c-7.565-0.56-15.189-0.718-22.677-1.811c-5.865-0.856-11.535,0.237-16.811,1.694
		c-7.951,2.196-15.795,5.352-21.79,11.689c-3.209,3.393-6.708,6.533-10.249,9.586c-4.957,4.273-10.804,6.577-17.342,7.021
		c-3.272,0.222-5.304-1.33-5.101-4.601c0.451-7.267-1.512-13.843-4.628-20.266c-3.167-6.528-7.625-11.781-14.272-14.833
		c-2.079-0.954-3.287-2.001-3.228-4.37c0.072-2.861,0.736-5.395,3.684-6.494c9.685-3.61,19.394-7.159,29.115-10.673
		c2.22-0.803,3.787-0.125,4.6,2.306c0.738,2.207,1.626,4.397,2.727,6.445c6.086,11.318,15.258,16.813,28.453,16.48
		c12.909-0.326,22.232-5.944,29.071-16.432c1.283-1.968,2.138-3.773,5.281-3.334c2.123,0.296,4.855-0.462,6.643-1.71
		c5.349-3.734,11.355-3.436,17.32-3.612c6.551-0.193,10.683,3.821,13.427,8.97c4.301,8.072,0.133,18.043-8.456,21.493
		C593.009,304.217,587.679,304.346,582.311,304.631z"/>
	<path fill="#FFFFFF" d="M321.344,183.983c-0.941,4.284-4.15,6.544-6.041,9.652c-1.57,2.579-3.662,5.512-1.365,8.196
		c2.402,2.806,5.927,4.478,9.919,3.244c1.898-0.587,3.717-1.505,5.473-2.457c3.211-1.741,6.354-3.608,9.514-5.443
		c1.87-1.086,3.421-0.302,4.119,1.3c1.883,4.325,2.662,8.718,1.715,13.61c-3.794,19.614-14.429,25.69-31.685,24.187
		c-5.077-0.442-9.711-2.151-14.262-4.362c-11.989-5.823-16.526-21.94-9.671-34.592c4.947-9.13,12.899-14.18,23.16-15.644
		C315.331,181.23,318.161,181.869,321.344,183.983z"/>
	<path fill="#FFFFFF" d="M490.389,339.799c9.589,0.211,18.32-3.464,26.06-9.722c2.584-2.089,4.988-4.429,7.294-6.828
		c8.815-9.167,19.78-13.282,32.25-13.673c5.08-0.159,9.967,0.859,13.919,4.495c2.364,2.175,2.604,3.851,1.459,6.992
		c-2.42,6.635-7.308,11.157-13.066,14.618c-7.41,4.454-14.949,8.8-22.805,12.375c-8.548,3.89-17.872,5.352-27.228,5.787
		c-9.663,0.449-17.281-4.18-23.88-10.776c-0.664-0.664-1.423-1.63-0.756-2.558c0.514-0.715,1.493-1.467,2.304-1.513
		C487.221,338.924,488.535,339.428,490.389,339.799z"/>
	<path fill="#FFFFFF" d="M601.105,234.27c-12.411-1.29-22.492-3.125-31.183-9.521c-1.863-1.371-4.02-2.354-6.085-3.432
		c-0.914-0.477-1.753-0.942-1.885-2.058c-0.156-1.308,0.901-1.643,1.792-1.921c17.802-5.553,35.562-11.247,53.661-15.792
		c2.255-0.566,4.505-1.208,6.683-2.014c6.836-2.53,13.769-2.254,20.723-0.787c5.69,1.2,9.307,5.019,11.621,10.088
		c1.804,3.952,1.004,6.968-2.09,9.944c-2.215,2.131-4.826,3.82-7.725,4.471c-4.535,1.018-9.198,1.514-13.828,2.05
		c-2.533,0.293-4.478-0.681-5.537-3.268c-2.296-5.608-6.679-9.02-12.201-11.135c-1.24-0.475-2.472-1.011-3.85-0.419
		c-1.498,0.644-3.316,0.936-3.727,2.873c-0.394,1.862,0.527,3.304,2.1,4.122c1.765,0.917,3.704,1.495,5.52,2.322
		c1.903,0.867,3.198,2.398,3.928,4.323c0.64,1.688,0.523,3.821-1.103,4.436C611.807,230.862,606.32,235.562,601.105,234.27z"/>
	<path fill="#FFFFFF" d="M597.521,242.566c-0.809,2.309-1.182,3.566-1.687,4.768c-0.728,1.73-2.227,2.967-3.886,1.968
		c-8.1-4.877-15.309-1.941-22.477,2.153c-0.867,0.495-1.787,0.906-2.709,1.291c-0.248,0.104-0.596-0.031-1.269-0.088
		c-0.637-0.849-1.59-1.809-2.183-2.956c-8.518-16.479-35.306-19.43-49.609-5.531c-4.531,4.403-9.005,8.954-9.553,15.88
		c-0.166,2.098-1.394,3.699-3.665,4.224c-0.639,0.148-1.212,0.561-1.841,0.778c-9.132,3.149-18.262,6.305-27.408,9.413
		c-2.518,0.855-3.635,0.026-3.827-2.645c-0.79-11.014-0.588-11.006,9.079-16.214c14.932-8.044,29.744-16.322,45.29-23.141
		c8.529-3.741,17.194-7.193,25.911-10.472c2.735-1.029,5.512-1.188,8.185,1.551c9.067,9.292,20.17,15.033,32.952,17.453
		C591.418,241.488,594.02,241.936,597.521,242.566z"/>
	<path fill="#FFFFFF" d="M584.135,314.481c2.012-1.889,3.98-2.512,5.967-2.411c5.554,0.282,10.461-1.639,15.284-4.009
		c7.546-3.707,14.647-3.339,21.325,2.128c3.865,3.164,7.923,6.09,11.855,9.172c7.156,5.61,15.149,8.041,24.258,6.829
		c2.578-0.343,5.244-0.972,8.395,0.145c-1.081,5.097-4.832,7.822-9.118,9.41c-3.454,1.28-6.783,2.747-10.053,4.373
		c-2.442,1.214-4.95,1.833-7.661,2.019c-16.058,1.101-31.163-1.818-45.006-10.355C592.662,327.639,587.726,321.952,584.135,314.481z
		"/>
	<path fill="#FFFFFF" d="M448.403,323.316c0.149,6.085-2.247,10.986-6.914,14.821c-0.514,0.422-1.153,0.702-1.63,1.156
		c-8.629,8.224-7.858,6.572-17.812,4.912c-7.469-1.246-12.554-5.742-15.773-12.47c-1.006-2.103-1.642-4.454-2.971-6.318
		c-4.73-6.637-2.925-13.513-0.578-20.122c2.256-6.353,7.769-9.883,13.651-12.558c3.138-1.427,6.535-1.062,9.818-0.131
		C439.852,296.479,447.451,306.174,448.403,323.316z M420.812,302.225c-0.195,0-0.868-0.056-1.53,0.01
		c-2.922,0.29-5.087,2.027-4.786,4.032c0.373,2.488,2.313,2.711,4.434,3.013c3.092,0.441,3.6,1.581,1.857,3.509
		c-2.912,3.222-6.094,6.217-7.644,10.437c-0.668,1.82-0.238,3.242,1.4,4.25c1.369,0.842,2.739,0.347,3.601-0.664
		c1.947-2.284,3.532-4.883,5.53-7.115c1.137-1.27,1.99-4.127,4.389-2.551c1.457,0.957,0.627,3.112,0.167,4.701
		c-0.367,1.267-1.067,2.442-1.397,3.715c-0.391,1.508,0.509,2.488,1.754,3.199c1.365,0.779,2.619,0.325,3.69-0.513
		c0.763-0.597,1.478-1.388,1.919-2.245c3.851-7.482,1.035-17.062-6.334-21.993C425.841,302.658,423.737,301.857,420.812,302.225z"/>
	<path fill="#FFFFFF" d="M559.071,266.19c-0.467,13.061-13.161,23.833-26.589,22.765c-11.4-0.906-18.968-8.472-21.192-18.073
		c-0.725-3.129-0.492-6.04,0.295-8.85c5.213-18.608,26.336-24.557,40.687-12.919C556.671,252.681,559.302,259.726,559.071,266.19z
		 M536.277,259.812c0.102,2.596,1.253,6.083,2.616,9.457c2.309,5.716,6.896,6.249,10.552,1.35c1.231-1.65,1.72-3.507,1.683-5.598
		c-0.07-3.92-2.185-6.916-4.305-9.884c-1.427-1.998-3.265-3.199-5.98-2.229C537.859,253.972,536.444,255.626,536.277,259.812z"/>
	<path fill="#FFFFFF" d="M624.185,284.143c-1.717-0.153-3.388-0.234-5.037-0.469c-1.723-0.246-3.324-0.962-3.836-2.754
		c-2.144-7.516-6.636-12.893-13.894-15.97c-0.745-0.316-1.717-1.668-1.563-2.284c1.268-5.075,0.921-10.702,4.507-15.018
		c2.337-2.812,4.812-5.507,8.724-6.346c1.926-0.413,3.733-1.417,5.569-2.21c8.771-3.787,17.196-1.933,23.359,5.326
		c6.662,7.846,8.333,16.508,3.711,25.972C641.349,279.351,633.978,283.697,624.185,284.143z M636.849,259.741
		c-0.316-3.803-1.473-7.895-4.68-11.154c-2.187-2.223-6.18-1.778-7.683,1.034c-0.749,1.403-1.495,3.271-1.176,4.689
		c0.791,3.519,2.006,6.982,3.436,10.302c0.643,1.492,2.397,2.192,4.187,2.234C634.421,266.928,636.817,264.311,636.849,259.741z"/>
	<path fill="#FFFFFF" d="M410.02,642.167c0.761-21.052,3.518-42.137,9.664-62.805c3.74-12.575,8.395-24.622,15.322-35.771
		c1.768-2.846,3.476-5.69,6.697-7.194c0.915-0.427,1.805-0.946,2.682-0.259c0.879,0.688,0.986,1.649,0.28,2.611
		c-16.129,21.948-22.215,47.501-26.467,73.716c-4.624,28.51-1.562,56.689,4.134,84.654c1.996,9.8,5.814,19.161,10.363,28.137
		c0.603,1.19,1.282,2.346,1.998,3.472c1.124,1.766,0.601,3.231-0.942,4.277c-1.705,1.156-3.187,0.568-4.061-1.211
		c-4.122-8.389-8.437-16.734-10.862-25.802C413.275,685.229,410.775,664.019,410.02,642.167z"/>
	<path fill="#FFFFFF" d="M459.288,265.978c1.913,15.452-0.018,13.573-10.129,17.339c-3.42,1.273-6.882,2.437-10.344,3.59
		c-0.91,0.303-1.89,0.503-2.845,0.533c-1.093,0.035-1.914-0.658-2.178-1.681c-0.131-0.508,0.054-1.398,0.428-1.692
		C442.02,277.938,449.809,271.788,459.288,265.978z"/>
	<path fill="#FFFFFF" d="M567.64,264.846c-0.76-3.508,1.275-5.665,4.036-7.219c2.323-1.307,4.813-2.332,7.278-3.367
		c4.277-1.795,7.807-0.426,10.872,2.738c2.481,2.562,1.507,6.097-2.149,6.723c-5.301,0.907-10.407,2.252-15.307,4.503
		C567.91,270.274,567.315,269.789,567.64,264.846z"/>
	<path fill="#FFFFFF" d="M635.184,306.355c-2.161,0.575-3.287-0.841-4.64-1.702c-3.934-2.501-7.887-4.95-12.767-5.077
		c-2.117-0.055-2.948-1.213-2.531-3.212c0.393-1.887,0.44-4.265,3.29-4.053c4.307,0.321,8.589,0.487,12.891-0.133
		c0.972-0.14,1.873,0.565,2.181,1.614C634.82,297.925,635.945,302.074,635.184,306.355z"/>
	<path fill="#FFFFFF" d="M590.013,537.941c-0.651-0.862-0.91-1.774,0.158-2.422c0.187-0.113,0.901,0.642,1.372,0.995
		C591.033,536.989,590.523,537.465,590.013,537.941z"/>
	<path fill="#FFFFFF" d="M499.296,1117.662c-12.756,0.444-25.308-1.892-37.971-2.71c-5.668-0.366-11.329-0.882-17.002-1.118
		c-12.411-0.516-24.47-3.479-36.709-5.178c-4.614-0.64-9.386-0.581-13.77-2.504c-2.446-1.073-4.852-2.236-7.3-3.304
		c-3.782-1.65-5.61-4.742-5.894-8.63c-0.292-3.993-0.574-8.075-0.077-12.019c0.838-6.653,1.303-13.302,1.437-19.993
		c0.027-1.326,0.25-2.663,0.52-3.966c0.498-2.405,1.895-3.388,4.163-3.031c0.991,0.156,1.977,0.349,2.959,0.556
		c15.012,3.164,30.031,6.302,45.034,9.511c20.227,4.326,40.434,8.74,60.663,13.056c11.105,2.369,22.239,4.603,33.355,6.922
		c1.628,0.34,3.308,0.628,4.817,1.28c1.194,0.516,2.275,1.548,1.905,3.133c-1.745,7.482-3.456,14.974-5.344,22.42
		c-0.854,3.369-3.797,4.768-6.785,5.18c-4.615,0.637-9.314,0.79-13.982,0.881C505.98,1118.213,502.635,1117.84,499.296,1117.662z"/>
	<path fill="#FFFFFF" d="M667.553,1084.044c-0.006-2.698,0.648-3.689,4.549-4.94c7.945-2.548,15.907-5.055,23.926-7.356
		c28.187-8.088,56.635-15.163,85.23-21.647c3.895-0.883,7.884-1.365,11.839-1.971c3.61-0.552,7.46-2.365,10.816-0.91
		c4.007,1.737,2.08,6.546,3.25,9.876c3.888,11.068,5.247,22.711,6.629,34.31c0.563,4.724-0.002,5.352-5.056,6.585
		c-19.153,4.673-38.538,7.808-58.126,10.182c-14.57,1.765-29.065,4.162-43.732,5.142c-7.659,0.512-15.315,1.063-22.977,1.526
		c-2.666,0.161-5.353,0.268-8.015,0.122c-3.668-0.202-5.531-1.807-5.931-5.449C669.048,1101.219,668.374,1092.899,667.553,1084.044z
		"/>
	<path fill="#D1372D" d="M944.557,195.067c-0.111,0.425-0.457,2.022-0.941,3.575c-3.558,11.416-9.7,21.033-19.605,28.008
		c-4.064,2.862-8.044,5.858-12.684,7.789c-1.656,0.689-3.173,0.542-4.732-0.333c-1.919-1.078-2.285-3.756-0.553-4.958
		c0.803-0.557,1.691-1.008,2.583-1.416c14.009-6.427,23.512-16.968,28.719-31.433c0.448-1.245,0.771-2.536,1.233-3.775
		c0.504-1.353,1.534-2.169,2.978-2.209C942.834,190.279,944.457,192.309,944.557,195.067z"/>
	<path fill="#D1372D" d="M914.39,175.769c-0.634,5.463-2.974,10.682-6.1,15.311c-5.816,8.614-13.156,15.833-22.284,21.029
		c-1.126,0.641-2.413,1.097-3.684,1.359c-1.393,0.287-2.729-0.304-3.222-1.646c-0.298-0.813-0.258-2.176,0.245-2.775
		c1.255-1.496,2.708-2.942,4.352-3.978c11.635-7.331,20.242-17.039,24.384-30.374c0.284-0.915,0.692-1.962,1.385-2.53
		c0.662-0.542,1.772-0.711,2.683-0.704c0.495,0.003,1.198,0.616,1.43,1.126C913.979,173.463,914.082,174.476,914.39,175.769z"/>
	<path fill="#D1372D" d="M904.694,213.279c1.932,0.099,3.538,1.985,3.405,3.999c-0.241,3.635-3.124,6.27-6.369,5.823
		c-2.192-0.302-3.606-2.495-3.321-5.15C898.725,215.003,901.28,213.103,904.694,213.279z"/>
	<path fill="#D1372D" d="M930.443,183.953c0.149,3.768-4.898,7.123-8.381,5.445c-0.732-0.353-1.419-1.418-1.562-2.252
		c-0.371-2.164,0.779-3.776,2.591-4.82c2.097-1.208,4.312-1.539,6.409,0.003C929.962,182.669,930.136,183.401,930.443,183.953z"/>
	<path fill="#D1372D" d="M920.045,202.321c-0.055,2.739-1.787,4.86-3.852,4.613c-1.871-0.224-3.334-2.025-3.373-4.152
		c-0.038-2.049,1.336-3.193,3.989-3.282C918.686,199.436,919.953,200.137,920.045,202.321z"/>
	<path fill="#FFFFFF" d="M633.267,856.822c-4.998,0-9.997,0.048-14.994-0.031c-1.389-0.022-2.659-0.74-2.817-2.274
		c-0.849-8.275-2.899-16.441-2.339-24.846c0.24-3.61,1.82-4.906,5.035-3.161c2.661,1.443,5.215,1.237,7.732,0.948
		c12.925-1.481,26.031-0.285,38.884-2.692c0.326-0.061,0.664-0.069,0.997-0.088c3.947-0.223,5.929,1.262,5.862,4.987
		c-0.108,5.989-0.377,11.988-0.91,17.953c-0.363,4.06-2.501,5.941-7.588,6.504C653.201,855.223,643.347,857.337,633.267,856.822z
		 M637.014,851.151c-0.001-0.092-0.001-0.184-0.002-0.276c4.663-0.274,9.344-0.378,13.987-0.854
		c14.548-1.491,14.543-1.546,14.538-15.909c-0.001-3.32-0.688-4.112-4.301-3.504c-11.568,1.945-23.261,1.663-34.904,2.263
		c-1.331,0.069-2.671,0.077-3.989,0.25c-2.426,0.318-3.657,1.633-3.383,4.016c0.418,3.639,1.065,7.254,1.693,10.866
		c0.42,2.416,2.166,3.146,4.378,3.147C629.025,851.152,633.02,851.151,637.014,851.151z"/>
	<path fill="#D1372D" d="M562.784,342.083c0.383,0.483,0.86,1.432,1.134,1.377c2.716-0.547,5.134-0.401,7.518,1.379
		c9.425,7.035,19.733,8.892,31.025,5.133c2.034-0.677,4.6-1.862,6.305,0.805c1.131,1.768-0.761,4.099-4.331,5.399
		c-13.674,4.979-26.089,2.067-37.628-6.102c-1.717-1.216-2.722-2.884-2.357-5.117c0.225-1.379,0.147-2.594-1.538-2.987
		C562.91,341.971,562.784,342.083,562.784,342.083z"/>
	<path fill="#D1372D" d="M420.812,302.225c2.925-0.368,5.03,0.433,7.051,1.785c7.369,4.931,10.185,14.511,6.334,21.993
		c-0.441,0.857-1.156,1.647-1.919,2.245c-1.071,0.839-2.326,1.293-3.69,0.513c-1.245-0.711-2.145-1.691-1.754-3.199
		c0.33-1.273,1.03-2.448,1.397-3.715c0.46-1.589,1.29-3.744-0.167-4.701c-2.399-1.576-3.252,1.281-4.389,2.551
		c-1.999,2.232-3.583,4.831-5.53,7.115c-0.862,1.012-2.233,1.506-3.601,0.664c-1.638-1.008-2.068-2.43-1.4-4.25
		c1.55-4.22,4.732-7.215,7.644-10.437c1.743-1.929,1.235-3.068-1.857-3.509c-2.121-0.302-4.061-0.525-4.434-3.013
		c-0.301-2.005,1.864-3.742,4.786-4.032C419.944,302.169,420.617,302.225,420.812,302.225z"/>
	<path fill="#D1372D" d="M536.277,259.812c0.167-4.186,1.583-5.839,4.565-6.905c2.715-0.969,4.553,0.231,5.98,2.229
		c2.12,2.968,4.234,5.964,4.305,9.884c0.037,2.091-0.451,3.948-1.683,5.598c-3.655,4.899-8.242,4.366-10.552-1.35
		C537.529,265.895,536.379,262.408,536.277,259.812z"/>
	<path fill="#D1372D" d="M636.849,259.741c-0.031,4.57-2.427,7.187-5.916,7.104c-1.79-0.042-3.544-0.742-4.187-2.234
		c-1.43-3.32-2.645-6.782-3.436-10.302c-0.319-1.418,0.427-3.287,1.176-4.689c1.502-2.812,5.495-3.256,7.683-1.034
		C635.376,251.846,636.532,255.938,636.849,259.741z"/>
	<path fill="#D1372D" d="M637.014,851.151c-3.995,0-7.989,0.001-11.984,0c-2.212-0.001-3.958-0.731-4.378-3.147
		c-0.628-3.612-1.275-7.227-1.693-10.866c-0.274-2.383,0.957-3.698,3.383-4.016c1.318-0.173,2.658-0.182,3.989-0.25
		c11.643-0.601,23.337-0.318,34.904-2.263c3.613-0.608,4.3,0.184,4.301,3.504c0.005,14.363,0.01,14.417-14.538,15.909
		c-4.643,0.476-9.323,0.58-13.987,0.854C637.013,850.967,637.014,851.059,637.014,851.151z"/>
</g>
</svg>
